<svg xmlns="http://www.w3.org/2000/svg" xmlns:xlink="http://www.w3.org/1999/xlink" width="151" zoomAndPan="magnify" viewBox="0 0 113.25 113.249998" height="151" preserveAspectRatio="xMidYMid meet" version="1.0"><defs><clipPath id="83b13e8e21"><path d="M 0 0 L 112.503906 0 L 112.503906 112.503906 L 0 112.503906 Z M 0 0 " clip-rule="nonzero"/></clipPath><clipPath id="e0ee2f97e8"><path d="M 0 0 L 112.371094 0 L 112.371094 112.371094 L 0 112.371094 Z M 0 0 " clip-rule="nonzero"/></clipPath><clipPath id="9af4f087fc"><path d="M 9.585938 65 L 101.867188 65 L 101.867188 109.90625 L 9.585938 109.90625 Z M 9.585938 65 " clip-rule="nonzero"/></clipPath><clipPath id="329dd93ead"><path d="M 24 3.488281 L 96 3.488281 L 96 99 L 24 99 Z M 24 3.488281 " clip-rule="nonzero"/></clipPath><clipPath id="db7332224d"><rect x="0" width="113" y="0" height="113"/></clipPath></defs><g clip-path="url(#83b13e8e21)"><path fill="#ffffff" d="M 0 0 L 112.503906 0 L 112.503906 112.503906 L 0 112.503906 Z M 0 0 " fill-opacity="1" fill-rule="nonzero"/><g transform="matrix(1, 0, 0, 1, 0, -0.000000000000001404)"><g clip-path="url(#db7332224d)"><g clip-path="url(#e0ee2f97e8)"><path fill="#ffffff" d="M 0 0 L 112.371094 0 L 112.371094 112.371094 L 0 112.371094 Z M 0 0 " fill-opacity="1" fill-rule="nonzero"/></g><g clip-path="url(#9af4f087fc)"><path fill="#000000" d="M 22.792969 92.300781 L 22.78125 86.664062 L 10.476562 93.816406 C 9.1875 94.472656 9.375 96 10.433594 96.527344 L 32.753906 109.40625 C 33.535156 109.863281 34.898438 109.960938 35.828125 109.40625 L 101.019531 71.570312 C 102.175781 70.9375 102.164062 69.464844 101 68.882812 L 94.515625 65.136719 C 92.722656 67.296875 94.863281 65.328125 35.644531 99.707031 C 34.105469 100.574219 32.355469 100.804688 30.878906 99.914062 L 24.960938 96.503906 C 23.578125 95.6875 22.792969 94.164062 22.792969 92.300781 Z M 22.792969 92.300781 " fill-opacity="1" fill-rule="nonzero"/></g><g clip-path="url(#329dd93ead)"><path fill="#000000" d="M 25.777344 95.09375 C 33.890625 99.796875 31.09375 98.1875 31.699219 98.527344 C 32.683594 99.089844 33.832031 98.867188 34.828125 98.292969 L 91.480469 65.621094 C 93.53125 64.4375 95.136719 61.664062 95.128906 59.304688 L 95.007812 10.167969 C 95.003906 9.011719 94.617188 7.914062 93.597656 7.355469 C 93.488281 7.292969 87.625 3.886719 87.734375 3.941406 C 86.867188 3.429688 85.726562 3.511719 84.601562 4.164062 L 27.945312 36.84375 C 25.820312 38.105469 24.292969 40.832031 24.292969 43.160156 L 24.417969 92.300781 C 24.417969 93.585938 24.898438 94.574219 25.777344 95.09375 Z M 34.691406 41.699219 C 94.890625 7.019531 91.328125 8.941406 91.960938 8.765625 C 92.230469 8.691406 92.546875 8.660156 92.796875 8.792969 L 92.816406 8.804688 C 92.820312 8.808594 92.828125 8.808594 92.832031 8.808594 C 93.164062 9.011719 93.355469 9.503906 93.359375 10.171875 L 93.378906 17.332031 L 31.875 52.804688 C 31.890625 46.207031 31.589844 45.699219 32.714844 43.78125 C 33.160156 43.019531 33.898438 42.164062 34.691406 41.699219 Z M 90.65625 64.195312 L 34.003906 96.871094 C 33.410156 97.210938 32.875 97.292969 32.53125 97.101562 C 32.523438 97.097656 32.523438 97.09375 32.515625 97.089844 C 31.730469 96.515625 31.996094 98.199219 31.878906 54.703125 L 93.382812 19.230469 L 93.480469 59.308594 C 93.484375 61.074219 92.191406 63.308594 90.65625 64.195312 Z M 85.429688 5.589844 C 86.015625 5.25 86.5625 5.160156 86.902344 5.359375 L 90.632812 7.535156 C 90.523438 7.59375 34.234375 40.039062 33.597656 40.457031 C 32.839844 40.957031 32.21875 41.589844 31.6875 42.332031 L 27.195312 39.738281 C 28.613281 37.839844 25.890625 40.164062 85.429688 5.589844 Z M 85.429688 5.589844 " fill-opacity="1" fill-rule="nonzero"/></g><path fill="#000000" d="M 36.417969 48.027344 C 38.074219 47.074219 38.90625 44.277344 37.371094 43.398438 C 35.824219 42.511719 33.816406 44.640625 33.824219 46.546875 C 33.828125 48.039062 35.121094 48.777344 36.417969 48.027344 Z M 36.417969 48.027344 " fill-opacity="1" fill-rule="nonzero"/><path fill="#000000" d="M 39.675781 45.214844 C 41.214844 46.097656 43.230469 43.976562 43.222656 42.066406 C 43.21875 40.574219 41.925781 39.832031 40.628906 40.582031 C 38.964844 41.542969 38.144531 44.332031 39.675781 45.214844 Z M 39.675781 45.214844 " fill-opacity="1" fill-rule="nonzero"/><path fill="#000000" d="M 46.503906 42.207031 C 48.160156 41.25 48.992188 38.457031 47.457031 37.574219 C 45.914062 36.691406 43.902344 38.8125 43.910156 40.722656 C 43.910156 41.847656 45.207031 42.957031 46.503906 42.207031 Z M 46.503906 42.207031 " fill-opacity="1" fill-rule="nonzero"/><path fill="#000000" d="M 64.871094 72.308594 L 63.433594 73.136719 L 63.371094 56.597656 C 63.367188 55.96875 62.683594 55.570312 62.132812 55.886719 L 57.09375 58.796875 C 56.839844 58.945312 56.683594 59.21875 56.683594 59.511719 L 56.75 76.996094 L 54.054688 78.550781 L 53.949219 51.601562 C 53.949219 50.96875 53.257812 50.578125 52.714844 50.894531 L 47.675781 53.800781 C 47.417969 53.949219 47.261719 54.222656 47.261719 54.519531 L 47.371094 82.410156 L 44.671875 83.964844 L 44.625 72.125 C 44.621094 71.492188 43.933594 71.097656 43.386719 71.414062 L 38.347656 74.324219 C 38.09375 74.472656 37.933594 74.746094 37.9375 75.039062 L 37.988281 87.824219 L 36.558594 88.648438 C 35.832031 89.066406 36.128906 90.183594 36.972656 90.183594 C 37.40625 90.183594 65.988281 73.5625 65.695312 73.734375 C 66.089844 73.507812 66.222656 73.003906 65.996094 72.609375 C 65.769531 72.214844 65.265625 72.082031 64.871094 72.308594 Z M 58.332031 59.984375 L 61.726562 58.023438 L 61.789062 74.085938 L 58.394531 76.046875 Z M 39.585938 75.507812 L 42.980469 73.550781 L 43.027344 84.914062 L 39.632812 86.875 Z M 39.585938 75.507812 " fill-opacity="1" fill-rule="nonzero"/><path fill="#000000" d="M 87.210938 51.902344 L 72.046875 60.691406 C 71.652344 60.921875 71.519531 61.425781 71.746094 61.816406 C 71.972656 62.207031 72.476562 62.34375 72.871094 62.117188 L 88.039062 53.328125 C 88.433594 53.101562 88.566406 52.597656 88.339844 52.203125 C 88.109375 51.808594 87.605469 51.675781 87.210938 51.902344 Z M 87.210938 51.902344 " fill-opacity="1" fill-rule="nonzero"/><path fill="#000000" d="M 84.714844 59.054688 L 72.046875 66.359375 C 71.320312 66.777344 71.617188 67.894531 72.460938 67.894531 C 72.878906 67.894531 72.207031 68.117188 85.539062 60.480469 C 85.933594 60.253906 86.066406 59.75 85.839844 59.355469 C 85.613281 58.960938 85.105469 58.828125 84.714844 59.054688 Z M 84.714844 59.054688 " fill-opacity="1" fill-rule="nonzero"/><path fill="#000000" d="M 83.089844 28.042969 C 82.742188 28.078125 82.453125 28.335938 82.375 28.675781 L 80.019531 38.855469 C 79.847656 39.613281 80.726562 40.160156 81.332031 39.6875 L 88.449219 34.113281 C 88.683594 33.933594 88.800781 33.640625 88.757812 33.347656 C 88.273438 30.078125 86.253906 27.703125 83.089844 28.042969 Z M 83.089844 28.042969 " fill-opacity="1" fill-rule="nonzero"/><path fill="#000000" d="M 86.304688 39.878906 C 86.300781 39.25 85.617188 38.851562 85.066406 39.167969 L 78.640625 42.878906 L 78.71875 35.433594 C 78.726562 34.804688 78.042969 34.394531 77.484375 34.714844 L 77.363281 34.785156 C 70.320312 38.847656 66.316406 51.121094 71.96875 54.371094 C 77.636719 57.628906 86.328125 48.003906 86.304688 39.878906 Z M 77.054688 36.96875 L 76.976562 44.300781 C 76.96875 44.9375 77.660156 45.34375 78.210938 45.023438 L 84.550781 41.371094 C 83.558594 48.398438 76.597656 55.136719 72.792969 52.945312 C 68.839844 50.671875 71.558594 41.171875 77.054688 36.96875 Z M 77.054688 36.96875 " fill-opacity="1" fill-rule="nonzero"/></g></g></g></svg>