<svg xmlns="http://www.w3.org/2000/svg" xmlns:xlink="http://www.w3.org/1999/xlink" width="151" zoomAndPan="magnify" viewBox="0 0 113.25 113.249998" height="151" preserveAspectRatio="xMidYMid meet" version="1.0"><defs><clipPath id="9172e4bdfa"><path d="M 0 0 L 112.503906 0 L 112.503906 112.503906 L 0 112.503906 Z M 0 0 " clip-rule="nonzero"/></clipPath><clipPath id="fe05ab15c8"><path d="M 0 0 L 112.371094 0 L 112.371094 112.371094 L 0 112.371094 Z M 0 0 " clip-rule="nonzero"/></clipPath><clipPath id="20f50d6ab7"><path d="M 9 8.503906 L 85 8.503906 L 85 19 L 9 19 Z M 9 8.503906 " clip-rule="nonzero"/></clipPath><clipPath id="ffda2aef85"><path d="M 8.601562 77 L 25 77 L 25 103.757812 L 8.601562 103.757812 Z M 8.601562 77 " clip-rule="nonzero"/></clipPath><clipPath id="7b9d4a2d1b"><path d="M 90 33 L 103.855469 33 L 103.855469 60 L 90 60 Z M 90 33 " clip-rule="nonzero"/></clipPath><clipPath id="c1fa7d7d36"><rect x="0" width="113" y="0" height="113"/></clipPath></defs><g clip-path="url(#9172e4bdfa)"><path fill="#ffffff" d="M 0 0 L 112.503906 0 L 112.503906 112.503906 L 0 112.503906 Z M 0 0 " fill-opacity="1" fill-rule="nonzero"/><g transform="matrix(1, 0, 0, 1, 0, -0.000000000000001404)"><g clip-path="url(#c1fa7d7d36)"><g clip-path="url(#fe05ab15c8)"><path fill="#ffffff" d="M 0 0 L 112.371094 0 L 112.371094 112.371094 L 0 112.371094 Z M 0 0 " fill-opacity="1" fill-rule="nonzero"/></g><path fill="#ff6633" d="M 22.910156 12.675781 C 22.375 12.675781 21.9375 13.113281 21.9375 13.648438 C 21.9375 14.183594 22.375 14.621094 22.910156 14.621094 C 23.449219 14.621094 23.882812 14.183594 23.882812 13.648438 C 23.882812 13.113281 23.46875 12.675781 22.910156 12.675781 Z M 22.910156 12.675781 " fill-opacity="1" fill-rule="nonzero"/><path fill="#ff6633" d="M 30.5625 12.675781 C 30.027344 12.675781 29.589844 13.113281 29.589844 13.648438 C 29.589844 14.183594 30.027344 14.621094 30.5625 14.621094 C 31.097656 14.621094 31.535156 14.183594 31.535156 13.648438 C 31.535156 13.113281 31.097656 12.675781 30.5625 12.675781 Z M 30.5625 12.675781 " fill-opacity="1" fill-rule="nonzero"/><g clip-path="url(#20f50d6ab7)"><path fill="#003366" d="M 84.898438 12.714844 C 84.898438 10.414062 83.007812 8.53125 80.703125 8.53125 L 13.648438 8.53125 C 11.324219 8.53125 9.457031 10.414062 9.457031 12.714844 L 9.457031 18.726562 L 84.898438 18.726562 Z M 15.28125 15.691406 C 14.148438 15.691406 13.230469 14.777344 13.230469 13.648438 C 13.230469 12.519531 14.148438 11.605469 15.28125 11.605469 C 16.414062 11.605469 17.328125 12.519531 17.328125 13.648438 C 17.328125 14.777344 16.414062 15.691406 15.28125 15.691406 Z M 22.910156 15.691406 C 21.777344 15.691406 20.863281 14.777344 20.863281 13.648438 C 20.863281 12.519531 21.777344 11.605469 22.910156 11.605469 C 24.042969 11.605469 24.957031 12.519531 24.957031 13.648438 C 24.976562 14.777344 24.042969 15.691406 22.910156 15.691406 Z M 30.5625 15.691406 C 29.429688 15.691406 28.515625 14.777344 28.515625 13.648438 C 28.515625 12.519531 29.429688 11.605469 30.5625 11.605469 C 31.695312 11.605469 32.609375 12.519531 32.609375 13.648438 C 32.609375 14.777344 31.695312 15.691406 30.5625 15.691406 Z M 30.5625 15.691406 " fill-opacity="1" fill-rule="nonzero"/></g><path fill="#ff6633" d="M 15.28125 12.675781 C 14.742188 12.675781 14.304688 13.113281 14.304688 13.648438 C 14.304688 14.183594 14.742188 14.621094 15.28125 14.621094 C 15.816406 14.621094 16.253906 14.183594 16.253906 13.648438 C 16.253906 13.113281 15.816406 12.675781 15.28125 12.675781 Z M 15.28125 12.675781 " fill-opacity="1" fill-rule="nonzero"/><path fill="#ff6633" d="M 31.457031 70.191406 C 42.527344 70.191406 51.527344 61.207031 51.527344 50.160156 C 51.527344 39.113281 42.527344 30.128906 31.457031 30.128906 C 20.386719 30.128906 11.382812 39.113281 11.382812 50.160156 C 11.382812 61.207031 20.386719 70.191406 31.457031 70.191406 Z M 31.457031 33.460938 C 40.679688 33.460938 48.191406 40.957031 48.191406 50.160156 C 48.191406 59.363281 40.679688 66.859375 31.457031 66.859375 C 22.234375 66.859375 14.722656 59.363281 14.722656 50.160156 C 14.722656 40.957031 22.234375 33.460938 31.457031 33.460938 Z M 31.457031 33.460938 " fill-opacity="1" fill-rule="nonzero"/><path fill="#003366" d="M 31.457031 63.84375 C 39.007812 63.84375 45.167969 57.714844 45.167969 50.160156 C 45.167969 42.625 39.027344 36.476562 31.457031 36.476562 C 23.90625 36.476562 17.742188 42.605469 17.742188 50.160156 C 17.742188 57.695312 23.90625 63.84375 31.457031 63.84375 Z M 20.1875 50.160156 C 20.1875 49.328125 20.863281 48.652344 21.699219 48.652344 L 22.792969 48.652344 C 23.425781 45.023438 26.308594 42.148438 29.945312 41.511719 L 29.945312 40.421875 C 29.945312 39.589844 30.621094 38.914062 31.457031 38.914062 C 32.292969 38.914062 32.96875 39.589844 32.96875 40.421875 L 32.96875 41.511719 C 36.605469 42.148438 39.484375 45.023438 40.121094 48.652344 L 41.214844 48.652344 C 42.050781 48.652344 42.726562 49.328125 42.726562 50.160156 C 42.726562 50.992188 42.050781 51.667969 41.214844 51.667969 L 40.121094 51.667969 C 39.484375 55.296875 36.605469 58.171875 32.96875 58.808594 L 32.96875 59.898438 C 32.96875 60.730469 32.292969 61.40625 31.457031 61.40625 C 30.621094 61.40625 29.945312 60.730469 29.945312 59.898438 L 29.945312 58.808594 C 26.308594 58.171875 23.425781 55.296875 22.792969 51.667969 L 21.699219 51.667969 C 20.863281 51.667969 20.1875 50.992188 20.1875 50.160156 Z M 20.1875 50.160156 " fill-opacity="1" fill-rule="nonzero"/><path fill="#ff6633" d="M 26.03125 51.667969 L 25.871094 51.667969 C 26.410156 53.628906 27.957031 55.175781 29.925781 55.714844 L 29.925781 55.554688 C 29.925781 54.722656 30.601562 54.046875 31.4375 54.046875 C 32.269531 54.046875 32.945312 54.722656 32.945312 55.554688 L 32.945312 55.714844 C 34.914062 55.175781 36.464844 53.628906 37 51.667969 L 36.84375 51.667969 C 36.007812 51.667969 35.332031 50.992188 35.332031 50.160156 C 35.332031 49.328125 36.007812 48.652344 36.84375 48.652344 L 37 48.652344 C 36.464844 46.6875 34.914062 45.140625 32.945312 44.605469 L 32.945312 44.765625 C 32.945312 45.597656 32.269531 46.273438 31.4375 46.273438 C 30.601562 46.273438 29.925781 45.597656 29.925781 44.765625 L 29.925781 44.605469 C 27.957031 45.140625 26.410156 46.6875 25.871094 48.652344 L 26.03125 48.652344 C 26.867188 48.652344 27.542969 49.328125 27.542969 50.160156 C 27.542969 50.992188 26.867188 51.667969 26.03125 51.667969 Z M 26.03125 51.667969 " fill-opacity="1" fill-rule="nonzero"/><path fill="#003366" d="M 13.648438 76.695312 C 13.929688 76.695312 14.167969 76.773438 14.386719 76.894531 L 14.664062 76.21875 C 15.082031 75.1875 15.996094 74.496094 17.027344 74.335938 L 18.796875 69.4375 C 14.425781 66.5625 11.066406 62.257812 9.457031 57.179688 L 9.457031 72.53125 C 9.457031 74.832031 11.324219 76.695312 13.648438 76.695312 Z M 13.648438 76.695312 " fill-opacity="1" fill-rule="nonzero"/><g clip-path="url(#ffda2aef85)"><path fill="#003366" d="M 24.402344 80.046875 L 17.566406 77.289062 C 17.546875 77.289062 17.546875 77.289062 17.523438 77.289062 C 17.484375 77.289062 17.464844 77.3125 17.445312 77.332031 L 8.878906 98.550781 C 8.105469 100.476562 9.039062 102.675781 10.96875 103.449219 C 11.902344 103.828125 12.933594 103.808594 13.847656 103.429688 C 14.78125 103.035156 15.496094 102.300781 15.875 101.367188 L 24.441406 80.148438 C 24.460938 80.105469 24.441406 80.066406 24.402344 80.046875 Z M 24.402344 80.046875 " fill-opacity="1" fill-rule="nonzero"/></g><path fill="#ff6633" d="M 19.988281 75.03125 L 24.441406 76.816406 L 25.851562 72.53125 C 24.320312 72.152344 22.851562 71.617188 21.460938 70.945312 Z M 19.988281 75.03125 " fill-opacity="1" fill-rule="nonzero"/><path fill="#003366" d="M 64.070312 77.289062 L 70.527344 77.289062 L 70.527344 94.605469 L 64.070312 94.605469 Z M 64.070312 77.289062 " fill-opacity="1" fill-rule="nonzero"/><path fill="#003366" d="M 85.136719 72.410156 L 78.953125 72.410156 L 78.953125 94.625 L 85.414062 94.625 L 85.414062 72.710938 C 85.3125 72.628906 85.214844 72.53125 85.136719 72.410156 Z M 85.136719 72.410156 " fill-opacity="1" fill-rule="nonzero"/><path fill="#003366" d="M 93.839844 62.953125 L 100.296875 62.953125 L 100.296875 94.605469 L 93.839844 94.605469 Z M 93.839844 62.953125 " fill-opacity="1" fill-rule="nonzero"/><path fill="#ff6633" d="M 90.820312 96.132812 L 90.820312 94.605469 L 88.433594 94.605469 L 88.433594 96.113281 C 88.433594 96.945312 87.757812 97.617188 86.921875 97.617188 L 92.347656 97.617188 C 91.496094 97.640625 90.820312 96.945312 90.820312 96.132812 Z M 90.820312 96.132812 " fill-opacity="1" fill-rule="nonzero"/><path fill="#ff6633" d="M 75.933594 96.132812 L 75.933594 94.605469 L 73.546875 94.605469 L 73.546875 96.113281 C 73.546875 96.945312 72.875 97.617188 72.039062 97.617188 L 77.445312 97.617188 C 76.609375 97.640625 75.933594 96.964844 75.933594 96.132812 Z M 75.933594 96.132812 " fill-opacity="1" fill-rule="nonzero"/><path fill="#003366" d="M 80.902344 50.320312 L 78.199219 52.996094 C 77.601562 53.589844 76.648438 53.589844 76.054688 52.996094 C 75.457031 52.402344 75.457031 51.449219 76.054688 50.855469 L 81.320312 45.597656 C 81.796875 45.121094 82.511719 45.023438 83.066406 45.320312 C 83.089844 45.339844 83.109375 45.339844 83.128906 45.359375 C 83.167969 45.378906 83.207031 45.421875 83.246094 45.441406 C 83.308594 45.480469 83.386719 45.539062 83.445312 45.597656 L 84.855469 47.007812 L 84.855469 21.761719 L 9.457031 21.761719 L 9.457031 43.160156 C 12.4375 33.859375 21.183594 27.113281 31.457031 27.113281 C 44.195312 27.113281 54.550781 37.449219 54.550781 50.160156 C 54.550781 62.871094 44.195312 73.207031 31.457031 73.207031 C 30.582031 73.207031 29.726562 73.164062 28.871094 73.066406 L 27.78125 76.359375 L 61.027344 76.558594 L 61.027344 75.785156 C 61.027344 74.949219 61.703125 74.277344 62.539062 74.277344 L 68.0625 74.277344 L 68.0625 61.066406 L 65.378906 63.765625 C 64.785156 64.359375 63.832031 64.359375 63.234375 63.765625 C 62.636719 63.171875 62.636719 62.21875 63.234375 61.625 L 68.5 56.367188 C 68.558594 56.308594 68.621094 56.25 68.699219 56.207031 C 68.71875 56.1875 68.738281 56.167969 68.757812 56.167969 C 68.777344 56.148438 68.820312 56.128906 68.839844 56.128906 C 68.878906 56.109375 68.9375 56.070312 68.976562 56.050781 C 69.019531 56.03125 69.078125 56.011719 69.117188 55.992188 C 69.15625 55.972656 69.214844 55.972656 69.257812 55.949219 C 69.453125 55.910156 69.652344 55.910156 69.851562 55.949219 C 69.890625 55.972656 69.953125 55.972656 69.992188 55.992188 C 70.089844 56.011719 70.191406 56.050781 70.269531 56.109375 C 70.308594 56.128906 70.347656 56.148438 70.390625 56.167969 C 70.429688 56.207031 70.488281 56.230469 70.527344 56.269531 C 70.566406 56.308594 70.609375 56.328125 70.628906 56.367188 L 70.6875 56.425781 L 75.914062 61.644531 C 76.511719 62.238281 76.511719 63.191406 75.914062 63.785156 C 75.316406 64.378906 74.363281 64.378906 73.765625 63.785156 L 71.085938 61.085938 L 71.085938 74.296875 L 72.019531 74.296875 C 72.851562 74.296875 73.527344 74.96875 73.527344 75.804688 L 73.527344 76.636719 L 75.914062 76.65625 L 75.914062 70.925781 C 75.914062 70.089844 76.589844 69.417969 77.425781 69.417969 L 80.882812 69.417969 Z M 51.765625 29.21875 C 50.933594 29.21875 50.257812 28.542969 50.257812 27.710938 C 50.257812 26.875 50.933594 26.203125 51.765625 26.203125 L 75.636719 26.203125 C 76.46875 26.203125 77.144531 26.875 77.144531 27.710938 C 77.144531 28.542969 76.46875 29.21875 75.636719 29.21875 Z M 59.597656 36.832031 C 58.761719 36.832031 58.085938 36.15625 58.085938 35.324219 C 58.085938 34.492188 58.761719 33.816406 59.597656 33.816406 L 77.425781 33.816406 C 78.257812 33.816406 78.933594 34.492188 78.933594 35.324219 C 78.933594 36.15625 78.257812 36.832031 77.425781 36.832031 Z M 59.597656 36.832031 " fill-opacity="1" fill-rule="nonzero"/><path fill="#003366" d="M 84.898438 69.398438 L 84.898438 51.289062 L 83.921875 50.320312 L 83.921875 69.398438 Z M 84.898438 69.398438 " fill-opacity="1" fill-rule="nonzero"/><path fill="#ff6633" d="M 88.753906 50.875 L 87.917969 50.039062 L 87.917969 53.433594 C 88.214844 53.394531 88.511719 53.253906 88.753906 53.015625 C 89.347656 52.421875 89.347656 51.46875 88.753906 50.875 Z M 88.753906 50.875 " fill-opacity="1" fill-rule="nonzero"/><g clip-path="url(#7b9d4a2d1b)"><path fill="#ff6633" d="M 103.417969 39.53125 L 98.191406 34.3125 L 98.132812 34.253906 C 98.054688 34.175781 97.992188 34.117188 97.894531 34.074219 C 97.855469 34.054688 97.816406 34.015625 97.773438 33.996094 C 97.695312 33.957031 97.597656 33.917969 97.496094 33.878906 C 97.21875 33.796875 96.921875 33.796875 96.621094 33.878906 C 96.523438 33.917969 96.441406 33.9375 96.34375 33.996094 C 96.304688 34.015625 96.265625 34.035156 96.222656 34.074219 C 96.144531 34.136719 96.066406 34.195312 95.984375 34.273438 C 95.964844 34.292969 95.945312 34.3125 95.925781 34.332031 L 90.699219 39.550781 C 90.101562 40.144531 90.101562 41.097656 90.699219 41.691406 C 91.296875 42.285156 92.25 42.285156 92.847656 41.691406 L 95.550781 38.996094 L 95.550781 59.957031 L 98.570312 59.957031 L 98.570312 38.972656 L 101.253906 41.671875 C 101.847656 42.265625 102.804688 42.265625 103.398438 41.671875 C 104.015625 41.078125 104.015625 40.105469 103.417969 39.53125 Z M 103.417969 39.53125 " fill-opacity="1" fill-rule="nonzero"/></g></g></g></g></svg>