<svg xmlns="http://www.w3.org/2000/svg" xmlns:xlink="http://www.w3.org/1999/xlink" width="151" zoomAndPan="magnify" viewBox="0 0 113.25 113.249998" height="151" preserveAspectRatio="xMidYMid meet" version="1.0"><defs><clipPath id="98eea5f9cd"><path d="M 0 0 L 112.503906 0 L 112.503906 112.503906 L 0 112.503906 Z M 0 0 " clip-rule="nonzero"/></clipPath><clipPath id="da874cc820"><path d="M 0 0 L 112.371094 0 L 112.371094 112.371094 L 0 112.371094 Z M 0 0 " clip-rule="nonzero"/></clipPath><clipPath id="44854e13cf"><path d="M 22 1.785156 L 90.402344 1.785156 L 90.402344 107.457031 L 22 107.457031 Z M 22 1.785156 " clip-rule="nonzero"/></clipPath><clipPath id="abe8073713"><rect x="0" width="113" y="0" height="113"/></clipPath></defs><g clip-path="url(#98eea5f9cd)"><path fill="#ffffff" d="M 0 0 L 112.503906 0 L 112.503906 112.503906 L 0 112.503906 Z M 0 0 " fill-opacity="1" fill-rule="nonzero"/><g transform="matrix(1, 0, 0, 1, 0, -0.000000000000001404)"><g clip-path="url(#abe8073713)"><g clip-path="url(#da874cc820)"><path fill="#ffffff" d="M 0 0 L 112.371094 0 L 112.371094 112.371094 L 0 112.371094 Z M 0 0 " fill-opacity="1" fill-rule="nonzero"/></g><g clip-path="url(#44854e13cf)"><path fill="#000000" d="M 89.199219 71.757812 L 86.273438 70.476562 L 87.324219 69.871094 C 87.953125 69.507812 88.167969 68.703125 87.804688 68.074219 C 87.441406 67.445312 86.636719 67.230469 86.007812 67.59375 L 84.957031 68.199219 L 85.308594 65.023438 C 85.390625 64.300781 85.0625 63.601562 84.449219 63.207031 C 83.839844 62.804688 83.070312 62.785156 82.4375 63.148438 L 75 67.441406 C 74.214844 67.894531 73.707031 68.671875 73.605469 69.574219 L 73.039062 74.660156 C 73.023438 74.800781 73.019531 74.941406 73.023438 75.082031 L 71.628906 75.886719 C 70.53125 74.242188 69.195312 72.769531 67.679688 71.515625 L 67.679688 62.019531 L 87.269531 29.640625 C 87.511719 29.234375 87.523438 28.726562 87.289062 28.3125 C 87.050781 27.902344 86.617188 27.644531 86.140625 27.644531 L 82.707031 27.644531 C 82.589844 23.242188 79.867188 19.472656 76.023438 17.835938 C 77.6875 16.550781 78.757812 14.535156 78.757812 12.28125 C 78.757812 8.410156 75.605469 5.257812 71.730469 5.257812 C 67.855469 5.257812 64.703125 8.40625 64.703125 12.28125 C 64.703125 14.535156 65.773438 16.546875 67.433594 17.835938 C 66.1875 18.363281 65.046875 19.132812 64.058594 20.101562 C 62.785156 18.882812 61.28125 17.914062 59.621094 17.265625 C 61.8125 15.722656 63.25 13.175781 63.25 10.300781 C 63.25 5.605469 59.429688 1.785156 54.734375 1.785156 C 50.035156 1.785156 46.214844 5.605469 46.214844 10.300781 C 46.214844 13.175781 47.652344 15.722656 49.84375 17.265625 C 48.183594 17.914062 46.679688 18.882812 45.40625 20.101562 C 44.421875 19.132812 43.28125 18.363281 42.03125 17.835938 C 43.691406 16.550781 44.765625 14.539062 44.765625 12.28125 C 44.765625 8.410156 41.613281 5.257812 37.738281 5.257812 C 33.859375 5.257812 30.707031 8.40625 30.707031 12.28125 C 30.707031 14.539062 31.78125 16.550781 33.441406 17.835938 C 29.597656 19.472656 26.875 23.242188 26.757812 27.648438 L 23.328125 27.648438 C 22.851562 27.648438 22.414062 27.902344 22.179688 28.316406 C 21.945312 28.726562 21.953125 29.238281 22.199219 29.640625 L 41.785156 62.023438 L 41.785156 71.503906 C 41.539062 71.710938 41.296875 71.921875 41.058594 72.136719 C 37.621094 75.261719 35.378906 79.433594 34.664062 83.976562 C 31.984375 84.199219 29.363281 85.328125 27.316406 87.375 C 25.09375 89.597656 23.867188 92.550781 23.867188 95.695312 C 23.867188 98.839844 25.09375 101.792969 27.316406 104.015625 C 29.609375 106.308594 32.625 107.453125 35.640625 107.453125 C 38.65625 107.453125 41.472656 106.378906 43.738281 104.230469 C 47.015625 106.34375 50.792969 107.457031 54.730469 107.457031 C 65.933594 107.457031 75.046875 98.351562 75.046875 87.15625 C 75.046875 83.929688 74.289062 80.875 72.941406 78.167969 L 74.335938 77.363281 C 74.453125 77.4375 74.578125 77.503906 74.707031 77.5625 L 79.398438 79.613281 C 79.761719 79.773438 80.148438 79.855469 80.53125 79.855469 C 81.019531 79.855469 81.503906 79.726562 81.945312 79.472656 L 89.382812 75.179688 C 90.015625 74.816406 90.378906 74.140625 90.339844 73.414062 C 90.300781 72.683594 89.859375 72.054688 89.191406 71.761719 Z M 80.074219 27.644531 L 68.058594 27.644531 C 67.722656 25.605469 66.925781 23.722656 65.78125 22.097656 C 67.347656 20.496094 69.46875 19.59375 71.730469 19.59375 C 76.238281 19.59375 79.917969 23.179688 80.074219 27.648438 Z M 71.730469 7.886719 C 74.15625 7.886719 76.128906 9.859375 76.128906 12.28125 C 76.128906 14.703125 74.15625 16.675781 71.730469 16.675781 C 69.308594 16.675781 67.335938 14.703125 67.335938 12.28125 C 67.335938 9.859375 69.308594 7.886719 71.730469 7.886719 Z M 54.734375 4.417969 C 57.980469 4.417969 60.621094 7.054688 60.621094 10.300781 C 60.621094 13.542969 57.980469 16.179688 54.734375 16.179688 C 51.492188 16.179688 48.851562 13.542969 48.851562 10.300781 C 48.851562 7.054688 51.492188 4.417969 54.734375 4.417969 Z M 54.734375 18.96875 C 59.929688 18.96875 64.355469 22.679688 65.382812 27.648438 L 44.089844 27.648438 C 45.113281 22.679688 49.542969 18.96875 54.734375 18.96875 Z M 37.738281 7.886719 C 40.164062 7.886719 42.136719 9.859375 42.136719 12.28125 C 42.136719 14.703125 40.164062 16.675781 37.738281 16.675781 C 35.316406 16.675781 33.34375 14.703125 33.34375 12.28125 C 33.34375 9.859375 35.316406 7.886719 37.738281 7.886719 Z M 37.738281 19.59375 C 40 19.59375 42.121094 20.496094 43.691406 22.097656 C 42.546875 23.722656 41.75 25.605469 41.410156 27.644531 L 29.394531 27.644531 C 29.550781 23.179688 33.230469 19.589844 37.738281 19.589844 Z M 25.664062 30.277344 L 83.804688 30.277344 L 65.621094 60.335938 L 43.851562 60.335938 Z M 44.425781 62.96875 L 65.046875 62.96875 L 65.046875 69.667969 C 62.019531 67.878906 58.496094 66.851562 54.734375 66.851562 C 50.976562 66.851562 47.523438 67.835938 44.425781 69.664062 Z M 54.734375 69.480469 C 60.796875 69.480469 66.15625 72.546875 69.34375 77.207031 L 65.703125 79.3125 C 63.25 75.898438 59.25 73.667969 54.738281 73.667969 C 47.890625 73.667969 42.21875 78.796875 41.359375 85.40625 C 40.09375 84.707031 38.726562 84.253906 37.328125 84.054688 C 38.804688 75.65625 46.0625 69.480469 54.738281 69.480469 Z M 53.59375 87.8125 C 53.839844 88.234375 54.28125 88.46875 54.734375 88.46875 C 54.960938 88.46875 55.183594 88.414062 55.390625 88.296875 L 58.695312 86.386719 C 58.746094 86.636719 58.773438 86.894531 58.773438 87.15625 C 58.773438 89.378906 56.960938 91.191406 54.734375 91.191406 C 52.507812 91.191406 50.695312 89.378906 50.695312 87.15625 C 50.695312 84.929688 52.507812 83.117188 54.734375 83.117188 C 55.746094 83.117188 56.667969 83.496094 57.375 84.113281 L 54.074219 86.015625 C 53.445312 86.382812 53.230469 87.1875 53.59375 87.816406 Z M 54.734375 80.488281 C 51.054688 80.488281 48.0625 83.476562 48.0625 87.15625 C 48.0625 90.832031 51.054688 93.820312 54.734375 93.820312 C 58.414062 93.820312 61.40625 90.832031 61.40625 87.15625 C 61.40625 86.410156 61.28125 85.695312 61.054688 85.027344 L 64.730469 82.90625 C 65.285156 84.210938 65.597656 85.648438 65.597656 87.15625 C 65.597656 93.140625 60.722656 98.007812 54.734375 98.007812 C 51.996094 98.007812 49.414062 97.003906 47.40625 95.164062 C 47.277344 92.222656 46.070312 89.472656 43.972656 87.375 C 43.941406 87.34375 43.90625 87.316406 43.875 87.285156 C 43.875 87.242188 43.871094 87.195312 43.871094 87.15625 C 43.871094 81.167969 48.746094 76.300781 54.734375 76.300781 C 58.273438 76.300781 61.425781 78.003906 63.40625 80.628906 L 59.734375 82.75 C 58.511719 81.363281 56.722656 80.488281 54.734375 80.488281 Z M 29.183594 102.152344 C 27.457031 100.425781 26.507812 98.132812 26.507812 95.695312 C 26.507812 93.253906 27.457031 90.960938 29.183594 89.234375 C 30.964844 87.457031 33.304688 86.566406 35.644531 86.566406 C 37.988281 86.566406 40.328125 87.457031 42.109375 89.234375 C 43.835938 90.960938 44.785156 93.253906 44.785156 95.695312 C 44.785156 98.132812 43.835938 100.425781 42.109375 102.152344 C 38.542969 105.714844 32.746094 105.714844 29.183594 102.152344 Z M 72.417969 87.15625 C 72.417969 96.898438 64.484375 104.828125 54.734375 104.828125 C 51.421875 104.828125 48.242188 103.925781 45.457031 102.203125 C 46.253906 101.011719 46.816406 99.691406 47.128906 98.296875 C 49.355469 99.820312 51.980469 100.640625 54.738281 100.640625 C 62.179688 100.640625 68.230469 94.59375 68.230469 87.15625 C 68.230469 85.171875 67.796875 83.289062 67.023438 81.589844 L 70.664062 79.484375 C 71.789062 81.808594 72.421875 84.410156 72.421875 87.15625 Z M 82.691406 64.734375 Z M 76.222656 69.867188 C 76.230469 69.792969 76.25 69.761719 76.320312 69.722656 L 82.539062 66.132812 L 82.125 69.832031 L 75.824219 73.46875 L 76.226562 69.867188 Z M 80.632812 77.191406 C 80.566406 77.230469 80.527344 77.230469 80.457031 77.203125 L 77.136719 75.75 L 83.441406 72.109375 L 86.851562 73.605469 Z M 33.820312 93.636719 C 33.820312 94.039062 34.160156 94.378906 34.5625 94.378906 L 36.730469 94.378906 C 38.59375 94.378906 40.105469 95.890625 40.105469 97.75 C 40.105469 99.609375 38.714844 100.992188 36.964844 101.109375 L 36.964844 102.300781 C 36.964844 103.027344 36.375 103.617188 35.648438 103.617188 C 34.921875 103.617188 34.332031 103.027344 34.332031 102.300781 L 34.332031 101.121094 L 32.507812 101.121094 C 31.78125 101.121094 31.191406 100.53125 31.191406 99.808594 C 31.191406 99.082031 31.78125 98.492188 32.507812 98.492188 L 36.734375 98.492188 C 37.136719 98.492188 37.476562 98.152344 37.476562 97.75 C 37.476562 97.347656 37.136719 97.007812 36.734375 97.007812 L 34.566406 97.007812 C 32.703125 97.007812 31.191406 95.496094 31.191406 93.636719 C 31.191406 91.777344 32.582031 90.398438 34.332031 90.277344 L 34.332031 89.089844 C 34.332031 88.363281 34.921875 87.773438 35.648438 87.773438 C 36.375 87.773438 36.964844 88.363281 36.964844 89.089844 L 36.964844 90.265625 L 38.789062 90.265625 C 39.515625 90.265625 40.105469 90.855469 40.105469 91.582031 C 40.105469 92.308594 39.515625 92.898438 38.789062 92.898438 L 34.5625 92.898438 C 34.160156 92.898438 33.820312 93.238281 33.820312 93.636719 Z M 33.820312 93.636719 " fill-opacity="1" fill-rule="nonzero"/></g></g></g></g></svg>