<svg xmlns="http://www.w3.org/2000/svg" xmlns:xlink="http://www.w3.org/1999/xlink" width="151" zoomAndPan="magnify" viewBox="0 0 113.25 113.249998" height="151" preserveAspectRatio="xMidYMid meet" version="1.0"><defs><clipPath id="1fcacfd5f7"><path d="M 0 0 L 112.503906 0 L 112.503906 112.503906 L 0 112.503906 Z M 0 0 " clip-rule="nonzero"/></clipPath><clipPath id="95951ff247"><path d="M 0 0 L 112.371094 0 L 112.371094 112.371094 L 0 112.371094 Z M 0 0 " clip-rule="nonzero"/></clipPath><clipPath id="b584d1bbfc"><path d="M 7.136719 6 L 108.347656 6 L 108.347656 106.445312 L 7.136719 106.445312 Z M 7.136719 6 " clip-rule="nonzero"/></clipPath><clipPath id="ca02ba1c91"><rect x="0" width="113" y="0" height="113"/></clipPath></defs><g clip-path="url(#1fcacfd5f7)"><path fill="#ffffff" d="M 0 0 L 112.503906 0 L 112.503906 112.503906 L 0 112.503906 Z M 0 0 " fill-opacity="1" fill-rule="nonzero"/><g transform="matrix(1, 0, 0, 1, 0, -0.000000000000001404)"><g clip-path="url(#ca02ba1c91)"><g clip-path="url(#95951ff247)"><path fill="#ffffff" d="M 0 0 L 112.371094 0 L 112.371094 112.371094 L 0 112.371094 Z M 0 0 " fill-opacity="1" fill-rule="nonzero"/></g><g clip-path="url(#b584d1bbfc)"><path fill="#12100b" d="M 57.707031 83.25 C 57.277344 83.972656 56.546875 84.332031 55.710938 84.242188 C 55.03125 84.164062 54.34375 84.105469 53.652344 84.054688 L 32.910156 54.257812 C 33.105469 53.59375 33.289062 52.933594 33.457031 52.269531 C 33.667969 51.457031 34.257812 50.90625 35.089844 50.757812 C 35.914062 50.605469 36.667969 50.914062 37.144531 51.605469 L 57.628906 81.035156 C 58.109375 81.722656 58.136719 82.53125 57.707031 83.25 Z M 31.851562 87.113281 C 36.511719 84.96875 43.457031 83.804688 50.488281 83.917969 L 31.933594 57.257812 C 29.574219 63.859375 26.042969 69.933594 22.398438 73.53125 Z M 39.554688 102.585938 L 38.589844 103.25 C 37.832031 103.777344 36.90625 103.976562 35.988281 103.808594 C 35.070312 103.644531 34.277344 103.136719 33.75 102.378906 L 27.292969 93.105469 L 31.117188 90.464844 Z M 22.402344 93.429688 C 18.726562 95.96875 13.660156 95.054688 11.105469 91.390625 C 9.875 89.625 9.414062 87.476562 9.800781 85.34375 C 10.1875 83.210938 11.378906 81.359375 13.148438 80.132812 L 20.429688 75.105469 L 29.679688 88.398438 Z M 52.234375 62.96875 C 51.0625 61.285156 48.890625 60.699219 47.0625 61.445312 L 51.855469 68.332031 C 53.195312 66.886719 53.402344 64.652344 52.234375 62.96875 Z M 53.3125 70.425781 C 55.785156 68.164062 56.269531 64.363281 54.304688 61.539062 C 52.335938 58.714844 48.597656 57.835938 45.605469 59.347656 L 39.214844 50.175781 C 38.179688 48.6875 36.429688 47.964844 34.640625 48.285156 C 32.851562 48.609375 31.460938 49.898438 31.015625 51.652344 C 28.871094 60.09375 24.433594 68.40625 19.960938 72.375 L 11.714844 78.070312 C 9.390625 79.675781 7.828125 82.101562 7.320312 84.894531 C 6.8125 87.6875 7.425781 90.503906 9.035156 92.820312 C 11.101562 95.785156 14.421875 97.378906 17.792969 97.378906 C 19.882812 97.378906 21.996094 96.765625 23.839844 95.492188 L 25.222656 94.535156 L 31.679688 103.808594 C 32.589844 105.121094 33.960938 105.996094 35.539062 106.28125 C 35.902344 106.34375 36.265625 106.378906 36.625 106.378906 C 37.835938 106.378906 39.015625 106.015625 40.027344 105.3125 L 42.027344 103.933594 C 42.300781 103.742188 42.488281 103.453125 42.546875 103.125 C 42.605469 102.796875 42.535156 102.460938 42.34375 102.1875 L 33.3125 89.210938 C 38.746094 86.839844 47.382812 85.851562 55.433594 86.734375 C 57.242188 86.933594 58.941406 86.09375 59.871094 84.535156 C 60.800781 82.980469 60.734375 81.089844 59.699219 79.601562 Z M 82.355469 43.121094 L 82.355469 38.164062 C 84.238281 37.363281 85.859375 35.429688 86.984375 32.589844 C 87.121094 32.25 87.515625 32.074219 87.859375 32.203125 L 87.996094 32.253906 C 88.332031 32.382812 88.515625 32.753906 88.402344 33.09375 C 88.113281 34.007812 87.765625 34.8125 87.363281 35.492188 C 87.136719 35.882812 87.132812 36.363281 87.359375 36.753906 C 87.582031 37.140625 88 37.382812 88.449219 37.382812 L 90.730469 37.382812 C 91.238281 37.382812 91.644531 37.570312 91.976562 37.949219 C 92.308594 38.332031 92.4375 38.757812 92.367188 39.257812 L 91.773438 43.476562 C 91.707031 43.976562 91.285156 44.335938 90.78125 44.335938 L 84.628906 44.335938 C 83.664062 44.335938 82.796875 43.867188 82.355469 43.121094 Z M 79.832031 44.335938 L 77.984375 44.335938 L 77.984375 37.382812 L 79.832031 37.382812 Z M 94.269531 43.824219 L 94.859375 39.609375 C 95.035156 38.378906 94.691406 37.238281 93.875 36.304688 C 93.058594 35.367188 91.96875 34.875 90.726562 34.875 L 90.445312 34.875 C 90.570312 34.546875 90.691406 34.207031 90.800781 33.855469 C 91.316406 32.238281 90.476562 30.503906 88.882812 29.90625 L 88.75 29.855469 C 87.125 29.242188 85.28125 30.054688 84.640625 31.667969 C 83.964844 33.367188 83.074219 34.671875 82.121094 35.402344 C 81.890625 35.082031 81.519531 34.875 81.09375 34.875 L 76.726562 34.875 C 76.03125 34.875 75.464844 35.433594 75.464844 36.128906 L 75.464844 45.59375 C 75.464844 46.289062 76.03125 46.847656 76.726562 46.847656 L 81.09375 46.847656 C 81.546875 46.847656 81.941406 46.609375 82.164062 46.25 C 82.902344 46.632812 83.746094 46.847656 84.625 46.847656 L 90.777344 46.847656 C 92.554688 46.847656 94.023438 45.574219 94.269531 43.824219 Z M 99.621094 72.121094 C 98.652344 73.800781 96.15625 75.953125 94.148438 77.679688 C 93.882812 77.910156 93.621094 78.136719 93.371094 78.351562 C 93.121094 78.136719 92.859375 77.910156 92.589844 77.679688 C 90.585938 75.953125 88.089844 73.800781 87.117188 72.121094 C 86.414062 70.90625 86.832031 69.34375 88.054688 68.640625 C 88.457031 68.410156 88.894531 68.300781 89.328125 68.300781 C 90.210938 68.300781 91.074219 68.757812 91.546875 69.574219 L 92.277344 70.835938 C 92.503906 71.226562 92.917969 71.464844 93.371094 71.464844 C 93.820312 71.464844 94.234375 71.226562 94.460938 70.835938 L 95.191406 69.574219 C 95.53125 68.988281 96.082031 68.566406 96.746094 68.390625 C 97.410156 68.214844 98.097656 68.300781 98.6875 68.640625 C 99.90625 69.34375 100.328125 70.90625 99.621094 72.121094 Z M 99.945312 66.46875 C 98.777344 65.792969 97.410156 65.617188 96.09375 65.964844 C 94.992188 66.261719 94.046875 66.894531 93.371094 67.777344 C 91.847656 65.785156 89.027344 65.179688 86.792969 66.46875 C 84.367188 67.859375 83.535156 70.960938 84.9375 73.378906 C 86.121094 75.421875 88.792969 77.726562 90.945312 79.578125 C 91.519531 80.078125 92.066406 80.546875 92.523438 80.960938 C 92.765625 81.175781 93.066406 81.285156 93.371094 81.285156 C 93.675781 81.285156 93.976562 81.175781 94.21875 80.960938 C 94.671875 80.546875 95.21875 80.078125 95.796875 79.578125 C 97.945312 77.726562 100.621094 75.421875 101.804688 73.378906 C 103.203125 70.960938 102.371094 67.859375 99.945312 66.46875 Z M 57.03125 19.792969 L 59.289062 19.792969 L 58.929688 22.011719 L 56.671875 22.011719 Z M 50.75 22.011719 C 50.054688 22.011719 49.492188 22.574219 49.492188 23.265625 C 49.492188 23.957031 50.054688 24.519531 50.75 24.519531 L 53.710938 24.519531 L 53.132812 28.09375 C 53.019531 28.777344 53.488281 29.421875 54.175781 29.53125 C 54.242188 29.542969 54.308594 29.550781 54.375 29.550781 C 54.984375 29.550781 55.519531 29.109375 55.621094 28.492188 L 56.265625 24.519531 L 58.519531 24.519531 L 57.941406 28.09375 C 57.828125 28.777344 58.292969 29.421875 58.980469 29.53125 C 59.050781 29.542969 59.117188 29.550781 59.183594 29.550781 C 59.792969 29.550781 60.328125 29.109375 60.429688 28.492188 L 61.070312 24.519531 L 65.207031 24.519531 C 65.902344 24.519531 66.46875 23.957031 66.46875 23.265625 C 66.46875 22.574219 65.902344 22.011719 65.207031 22.011719 L 61.480469 22.011719 L 61.839844 19.792969 L 65.207031 19.792969 C 65.902344 19.792969 66.46875 19.230469 66.46875 18.539062 C 66.46875 17.84375 65.902344 17.28125 65.207031 17.28125 L 62.246094 17.28125 L 62.804688 13.84375 C 62.917969 13.160156 62.449219 12.515625 61.761719 12.40625 C 61.074219 12.292969 60.429688 12.757812 60.316406 13.441406 L 59.695312 17.28125 L 57.4375 17.28125 L 57.996094 13.84375 C 58.109375 13.160156 57.640625 12.515625 56.953125 12.40625 C 56.265625 12.292969 55.621094 12.757812 55.507812 13.441406 L 54.886719 17.28125 L 50.75 17.28125 C 50.054688 17.28125 49.492188 17.84375 49.492188 18.539062 C 49.492188 19.230469 50.054688 19.792969 50.75 19.792969 L 54.480469 19.792969 L 54.117188 22.011719 Z M 51.121094 38.539062 C 50.453125 38.339844 49.753906 38.714844 49.554688 39.378906 L 45.988281 51.203125 C 45.785156 51.863281 46.164062 52.566406 46.832031 52.765625 C 46.953125 52.800781 47.074219 52.820312 47.195312 52.820312 C 47.738281 52.820312 48.238281 52.46875 48.402344 51.921875 L 51.964844 40.101562 C 52.164062 39.4375 51.789062 38.738281 51.121094 38.539062 Z M 74.453125 72.058594 C 74.410156 72.722656 73.855469 73.230469 73.199219 73.230469 C 73.171875 73.230469 73.140625 73.230469 73.113281 73.226562 L 61.335938 72.449219 C 60.640625 72.40625 60.113281 71.804688 60.160156 71.117188 C 60.207031 70.421875 60.804688 69.902344 61.5 69.945312 L 73.28125 70.722656 C 73.976562 70.769531 74.5 71.367188 74.453125 72.058594 Z M 68.664062 51.238281 C 69.0625 51.804688 68.917969 52.589844 68.347656 52.984375 L 60.722656 58.25 C 60.503906 58.402344 60.253906 58.476562 60.007812 58.476562 C 59.609375 58.476562 59.214844 58.285156 58.96875 57.933594 C 58.574219 57.367188 58.714844 56.582031 59.289062 56.1875 L 66.910156 50.917969 C 67.484375 50.527344 68.269531 50.667969 68.664062 51.238281 Z M 72.71875 39.820312 C 72.71875 46.667969 78.3125 52.242188 85.1875 52.242188 C 92.058594 52.242188 97.652344 46.667969 97.652344 39.820312 C 97.652344 32.972656 92.058594 27.394531 85.1875 27.394531 C 78.3125 27.394531 72.71875 32.96875 72.71875 39.820312 Z M 100.171875 39.820312 C 100.171875 31.585938 93.449219 24.886719 85.1875 24.886719 C 76.921875 24.886719 70.199219 31.585938 70.199219 39.820312 C 70.199219 48.054688 76.921875 54.753906 85.1875 54.753906 C 93.449219 54.753906 100.171875 48.054688 100.171875 39.820312 Z M 93.371094 84.238281 C 100.246094 84.238281 105.835938 78.664062 105.835938 71.816406 C 105.835938 64.96875 100.246094 59.394531 93.371094 59.394531 C 86.496094 59.394531 80.90625 64.96875 80.90625 71.816406 C 80.90625 78.667969 86.496094 84.238281 93.371094 84.238281 Z M 93.371094 56.882812 C 85.105469 56.882812 78.386719 63.582031 78.386719 71.816406 C 78.386719 80.050781 85.105469 86.75 93.371094 86.75 C 101.636719 86.75 108.355469 80.050781 108.355469 71.816406 C 108.355469 63.582031 101.632812 56.882812 93.371094 56.882812 Z M 57.980469 8.546875 C 51.105469 8.546875 45.511719 14.117188 45.511719 20.96875 C 45.511719 27.820312 51.105469 33.390625 57.980469 33.390625 C 64.855469 33.390625 70.449219 27.820312 70.449219 20.96875 C 70.449219 14.117188 64.855469 8.546875 57.980469 8.546875 Z M 57.980469 35.902344 C 66.242188 35.902344 72.96875 29.203125 72.96875 20.96875 C 72.96875 12.734375 66.242188 6.035156 57.980469 6.035156 C 49.71875 6.035156 42.992188 12.734375 42.992188 20.96875 C 42.992188 29.203125 49.71875 35.902344 57.980469 35.902344 Z M 57.980469 35.902344 " fill-opacity="1" fill-rule="evenodd"/></g></g></g></g></svg>