<svg xmlns="http://www.w3.org/2000/svg" xmlns:xlink="http://www.w3.org/1999/xlink" width="151" zoomAndPan="magnify" viewBox="0 0 113.25 113.249998" height="151" preserveAspectRatio="xMidYMid meet" version="1.0"><defs><clipPath id="268ceb648a"><path d="M 0 0 L 112.503906 0 L 112.503906 112.503906 L 0 112.503906 Z M 0 0 " clip-rule="nonzero"/></clipPath><clipPath id="42376b4884"><path d="M 0 0 L 112.371094 0 L 112.371094 112.371094 L 0 112.371094 Z M 0 0 " clip-rule="nonzero"/></clipPath><clipPath id="cf202554ac"><path d="M 4.773438 12.109375 L 108.957031 12.109375 L 108.957031 101.410156 L 4.773438 101.410156 Z M 4.773438 12.109375 " clip-rule="nonzero"/></clipPath><clipPath id="84e0fa3f07"><rect x="0" width="113" y="0" height="113"/></clipPath></defs><g clip-path="url(#268ceb648a)"><path fill="#ffffff" d="M 0 0 L 112.503906 0 L 112.503906 112.503906 L 0 112.503906 Z M 0 0 " fill-opacity="1" fill-rule="nonzero"/><g transform="matrix(1, 0, 0, 1, 0, -0.000000000000001404)"><g clip-path="url(#84e0fa3f07)"><g clip-path="url(#42376b4884)"><path fill="#ffffff" d="M 0 0 L 112.371094 0 L 112.371094 112.371094 L 0 112.371094 Z M 0 0 " fill-opacity="1" fill-rule="nonzero"/></g><g clip-path="url(#cf202554ac)"><path fill="#000000" d="M 5.03125 47.617188 C 4.933594 47.453125 4.875 47.277344 4.847656 47.089844 C 4.824219 46.902344 4.835938 46.71875 4.882812 46.535156 C 4.929688 46.351562 5.011719 46.183594 5.125 46.03125 C 5.242188 45.882812 5.378906 45.757812 5.542969 45.664062 L 58.085938 14.976562 L 50.546875 14.976562 C 50.359375 14.976562 50.175781 14.941406 50 14.867188 C 49.824219 14.796875 49.671875 14.691406 49.539062 14.558594 C 49.402344 14.425781 49.300781 14.269531 49.226562 14.09375 C 49.15625 13.917969 49.117188 13.738281 49.117188 13.546875 C 49.117188 13.359375 49.15625 13.175781 49.226562 13 C 49.300781 12.824219 49.402344 12.671875 49.539062 12.539062 C 49.671875 12.402344 49.824219 12.300781 50 12.226562 C 50.175781 12.15625 50.359375 12.117188 50.546875 12.117188 L 63.355469 12.117188 C 63.480469 12.117188 63.605469 12.136719 63.726562 12.167969 C 63.847656 12.199219 63.960938 12.246094 64.070312 12.308594 C 64.179688 12.371094 64.277344 12.449219 64.367188 12.539062 C 64.453125 12.625 64.53125 12.722656 64.59375 12.832031 C 64.65625 12.941406 64.703125 13.054688 64.734375 13.175781 C 64.769531 13.296875 64.785156 13.421875 64.785156 13.546875 C 64.785156 13.671875 64.769531 13.796875 64.734375 13.917969 C 64.703125 14.039062 64.65625 14.152344 64.59375 14.261719 L 58.191406 25.351562 C 58.101562 25.519531 57.980469 25.664062 57.828125 25.78125 C 57.675781 25.902344 57.511719 25.988281 57.324219 26.039062 C 57.140625 26.09375 56.953125 26.105469 56.761719 26.082031 C 56.570312 26.058594 56.390625 25.996094 56.226562 25.902344 C 56.058594 25.804688 55.917969 25.679688 55.800781 25.527344 C 55.683594 25.375 55.601562 25.207031 55.554688 25.019531 C 55.507812 24.832031 55.496094 24.644531 55.523438 24.453125 C 55.554688 24.265625 55.617188 24.085938 55.71875 23.921875 L 59.417969 17.507812 L 6.984375 48.128906 C 6.824219 48.226562 6.648438 48.285156 6.457031 48.3125 C 6.269531 48.339844 6.085938 48.328125 5.902344 48.28125 C 5.71875 48.230469 5.550781 48.148438 5.398438 48.035156 C 5.25 47.921875 5.125 47.78125 5.03125 47.617188 Z M 84.773438 51.789062 C 84.773438 52.664062 84.6875 53.527344 84.519531 54.382812 C 84.347656 55.242188 84.097656 56.074219 83.761719 56.878906 C 83.429688 57.6875 83.019531 58.453125 82.535156 59.179688 C 82.050781 59.902344 81.5 60.574219 80.882812 61.195312 C 80.265625 61.8125 79.59375 62.363281 78.867188 62.847656 C 78.140625 63.332031 77.375 63.742188 76.566406 64.078125 C 75.761719 64.410156 74.929688 64.664062 74.074219 64.835938 C 73.214844 65.003906 72.351562 65.089844 71.476562 65.089844 C 70.605469 65.089844 69.738281 65.003906 68.882812 64.835938 C 68.027344 64.664062 67.195312 64.414062 66.386719 64.078125 C 65.582031 63.746094 64.816406 63.335938 64.089844 62.851562 C 63.363281 62.367188 62.691406 61.816406 62.074219 61.199219 C 61.453125 60.582031 60.902344 59.910156 60.417969 59.183594 C 59.933594 58.457031 59.523438 57.691406 59.1875 56.886719 C 58.855469 56.078125 58.601562 55.25 58.429688 54.390625 C 58.261719 53.535156 58.175781 52.671875 58.175781 51.796875 C 58.175781 50.925781 58.261719 50.0625 58.429688 49.203125 C 58.601562 48.347656 58.851562 47.515625 59.1875 46.710938 C 59.519531 45.902344 59.929688 45.136719 60.417969 44.414062 C 60.902344 43.6875 61.453125 43.015625 62.070312 42.398438 C 62.6875 41.78125 63.359375 41.230469 64.085938 40.742188 C 64.8125 40.257812 65.578125 39.847656 66.386719 39.515625 C 67.191406 39.179688 68.023438 38.929688 68.878906 38.757812 C 69.738281 38.589844 70.601562 38.503906 71.476562 38.503906 C 72.347656 38.503906 73.210938 38.589844 74.066406 38.761719 C 74.921875 38.933594 75.753906 39.183594 76.558594 39.519531 C 77.367188 39.851562 78.132812 40.261719 78.859375 40.746094 C 79.582031 41.230469 80.253906 41.78125 80.871094 42.398438 C 81.488281 43.015625 82.039062 43.6875 82.527344 44.410156 C 83.011719 45.136719 83.421875 45.902344 83.753906 46.707031 C 84.089844 47.511719 84.34375 48.34375 84.515625 49.199219 C 84.6875 50.054688 84.773438 50.917969 84.773438 51.789062 Z M 81.914062 51.789062 C 81.914062 51.105469 81.847656 50.425781 81.714844 49.753906 C 81.582031 49.082031 81.382812 48.429688 81.121094 47.796875 C 80.859375 47.164062 80.535156 46.5625 80.15625 45.992188 C 79.773438 45.421875 79.339844 44.894531 78.855469 44.410156 C 78.371094 43.925781 77.84375 43.496094 77.273438 43.113281 C 76.703125 42.734375 76.101562 42.410156 75.46875 42.148438 C 74.835938 41.886719 74.183594 41.6875 73.511719 41.554688 C 72.839844 41.421875 72.160156 41.355469 71.472656 41.355469 C 70.789062 41.355469 70.109375 41.421875 69.4375 41.554688 C 68.765625 41.6875 68.113281 41.886719 67.480469 42.148438 C 66.847656 42.410156 66.246094 42.734375 65.675781 43.113281 C 65.105469 43.496094 64.578125 43.925781 64.09375 44.410156 C 63.609375 44.894531 63.175781 45.421875 62.792969 45.992188 C 62.414062 46.5625 62.089844 47.164062 61.828125 47.796875 C 61.566406 48.429688 61.367188 49.082031 61.234375 49.753906 C 61.101562 50.425781 61.035156 51.105469 61.035156 51.789062 C 61.035156 52.476562 61.101562 53.15625 61.234375 53.828125 C 61.367188 54.5 61.566406 55.152344 61.828125 55.785156 C 62.089844 56.417969 62.414062 57.019531 62.792969 57.589844 C 63.175781 58.160156 63.609375 58.6875 64.09375 59.171875 C 64.578125 59.65625 65.105469 60.085938 65.675781 60.46875 C 66.246094 60.847656 66.847656 61.171875 67.480469 61.433594 C 68.113281 61.695312 68.765625 61.894531 69.4375 62.027344 C 70.109375 62.160156 70.789062 62.226562 71.476562 62.226562 C 72.160156 62.226562 72.839844 62.160156 73.511719 62.023438 C 74.183594 61.890625 74.835938 61.691406 75.46875 61.429688 C 76.101562 61.167969 76.703125 60.847656 77.273438 60.464844 C 77.84375 60.085938 78.371094 59.652344 78.855469 59.167969 C 79.339844 58.683594 79.773438 58.15625 80.152344 57.585938 C 80.535156 57.015625 80.855469 56.414062 81.117188 55.78125 C 81.378906 55.148438 81.578125 54.5 81.710938 53.828125 C 81.847656 53.15625 81.914062 52.476562 81.914062 51.789062 Z M 75.546875 47.125 L 69.242188 53.429688 L 67.398438 51.589844 C 67.265625 51.457031 67.109375 51.351562 66.933594 51.277344 C 66.761719 51.207031 66.578125 51.171875 66.386719 51.167969 C 66.199219 51.167969 66.015625 51.207031 65.839844 51.277344 C 65.664062 51.351562 65.507812 51.453125 65.375 51.589844 C 65.242188 51.722656 65.136719 51.878906 65.066406 52.050781 C 64.992188 52.226562 64.957031 52.410156 64.957031 52.601562 C 64.957031 52.789062 64.992188 52.972656 65.066406 53.148438 C 65.140625 53.324219 65.242188 53.476562 65.378906 53.609375 L 68.230469 56.460938 C 68.511719 56.742188 68.847656 56.882812 69.242188 56.882812 C 69.636719 56.882812 69.972656 56.742188 70.253906 56.460938 L 77.566406 49.144531 C 77.707031 49.011719 77.8125 48.855469 77.890625 48.679688 C 77.964844 48.503906 78.003906 48.320312 78.007812 48.128906 C 78.007812 47.9375 77.972656 47.75 77.898438 47.574219 C 77.828125 47.394531 77.722656 47.238281 77.585938 47.101562 C 77.453125 46.96875 77.292969 46.863281 77.117188 46.789062 C 76.9375 46.71875 76.753906 46.683594 76.5625 46.683594 C 76.371094 46.6875 76.1875 46.726562 76.007812 46.800781 C 75.832031 46.878906 75.679688 46.984375 75.546875 47.125 Z M 108.957031 51.789062 C 108.957031 52.066406 108.929688 52.339844 108.875 52.609375 C 108.824219 52.878906 108.742188 53.144531 108.636719 53.398438 C 108.53125 53.652344 108.402344 53.894531 108.25 54.125 C 108.09375 54.351562 107.921875 54.5625 107.726562 54.757812 C 107.53125 54.953125 107.320312 55.128906 107.089844 55.28125 C 106.859375 55.433594 106.617188 55.5625 106.363281 55.667969 C 106.109375 55.777344 105.847656 55.855469 105.578125 55.910156 C 105.304688 55.964844 105.03125 55.992188 104.757812 55.992188 L 89.566406 55.992188 C 89.210938 57.5 88.679688 58.941406 87.964844 60.320312 C 87.25 61.695312 86.378906 62.964844 85.347656 64.121094 C 84.316406 65.28125 83.160156 66.296875 81.878906 67.164062 C 80.59375 68.035156 79.222656 68.734375 77.765625 69.261719 L 77.765625 98.542969 L 82.921875 98.542969 C 83.113281 98.542969 83.292969 98.578125 83.46875 98.652344 C 83.644531 98.726562 83.796875 98.828125 83.933594 98.960938 C 84.066406 99.097656 84.171875 99.25 84.242188 99.425781 C 84.316406 99.601562 84.351562 99.785156 84.351562 99.972656 C 84.351562 100.164062 84.316406 100.34375 84.242188 100.519531 C 84.171875 100.695312 84.066406 100.847656 83.933594 100.984375 C 83.796875 101.117188 83.644531 101.21875 83.46875 101.292969 C 83.292969 101.367188 83.113281 101.402344 82.921875 101.402344 L 6.265625 101.402344 C 6.074219 101.402344 5.894531 101.367188 5.71875 101.292969 C 5.542969 101.21875 5.386719 101.117188 5.253906 100.984375 C 5.121094 100.847656 5.015625 100.695312 4.945312 100.519531 C 4.871094 100.34375 4.835938 100.164062 4.835938 99.972656 C 4.835938 99.785156 4.871094 99.601562 4.945312 99.425781 C 5.015625 99.25 5.121094 99.097656 5.253906 98.960938 C 5.386719 98.828125 5.542969 98.726562 5.71875 98.652344 C 5.894531 98.578125 6.074219 98.542969 6.265625 98.542969 L 11.414062 98.542969 L 11.414062 58.257812 C 11.414062 58.070312 11.453125 57.886719 11.523438 57.710938 C 11.597656 57.535156 11.699219 57.382812 11.835938 57.246094 C 11.96875 57.113281 12.121094 57.011719 12.296875 56.9375 C 12.472656 56.867188 12.65625 56.828125 12.84375 56.828125 L 22.574219 56.828125 C 22.761719 56.828125 22.945312 56.867188 23.121094 56.9375 C 23.296875 57.011719 23.449219 57.113281 23.582031 57.246094 C 23.71875 57.382812 23.820312 57.535156 23.894531 57.710938 C 23.964844 57.886719 24.003906 58.070312 24.003906 58.257812 L 24.003906 98.542969 L 29.339844 98.542969 L 29.339844 44.269531 C 29.339844 44.082031 29.375 43.898438 29.445312 43.722656 C 29.519531 43.550781 29.621094 43.394531 29.757812 43.261719 C 29.890625 43.125 30.046875 43.023438 30.21875 42.949219 C 30.394531 42.878906 30.578125 42.84375 30.769531 42.84375 L 40.488281 42.84375 C 40.679688 42.84375 40.863281 42.878906 41.039062 42.949219 C 41.210938 43.023438 41.367188 43.125 41.5 43.261719 C 41.636719 43.394531 41.738281 43.546875 41.8125 43.722656 C 41.882812 43.898438 41.917969 44.082031 41.917969 44.269531 L 41.917969 98.542969 L 47.261719 98.542969 L 47.261719 30.289062 C 47.261719 30.097656 47.296875 29.917969 47.371094 29.742188 C 47.441406 29.566406 47.546875 29.414062 47.679688 29.277344 C 47.8125 29.144531 47.96875 29.042969 48.144531 28.96875 C 48.320312 28.894531 48.5 28.859375 48.691406 28.859375 L 58.414062 28.859375 C 58.601562 28.859375 58.785156 28.894531 58.960938 28.96875 C 59.136719 29.042969 59.289062 29.144531 59.421875 29.277344 C 59.558594 29.414062 59.660156 29.566406 59.734375 29.742188 C 59.804688 29.917969 59.84375 30.097656 59.84375 30.289062 L 59.84375 37.328125 C 60.148438 37.085938 60.457031 36.847656 60.777344 36.625 C 61.097656 36.398438 61.421875 36.183594 61.757812 35.980469 C 62.089844 35.773438 62.429688 35.578125 62.773438 35.398438 C 63.117188 35.214844 63.46875 35.039062 63.824219 34.878906 C 64.183594 34.71875 64.542969 34.570312 64.90625 34.429688 C 65.273438 34.292969 65.644531 34.164062 66.015625 34.050781 C 66.390625 33.933594 66.765625 33.832031 67.148438 33.742188 C 67.527344 33.648438 67.910156 33.570312 68.292969 33.503906 C 68.679688 33.4375 69.066406 33.382812 69.457031 33.339844 C 69.84375 33.296875 70.234375 33.265625 70.625 33.246094 C 71.015625 33.230469 71.40625 33.222656 71.796875 33.230469 C 72.1875 33.238281 72.578125 33.253906 72.964844 33.285156 C 73.355469 33.316406 73.746094 33.363281 74.132812 33.417969 C 74.519531 33.472656 74.902344 33.542969 75.285156 33.621094 C 75.667969 33.703125 76.046875 33.792969 76.425781 33.898438 C 76.800781 34 77.175781 34.117188 77.542969 34.246094 C 77.914062 34.371094 78.277344 34.511719 78.640625 34.660156 C 79 34.8125 79.355469 34.972656 79.707031 35.148438 C 80.054688 35.320312 80.402344 35.503906 80.738281 35.699219 C 81.078125 35.894531 81.410156 36.097656 81.734375 36.316406 C 82.0625 36.53125 82.378906 36.757812 82.691406 36.992188 C 83.003906 37.230469 83.308594 37.472656 83.605469 37.730469 C 83.898438 37.984375 84.1875 38.25 84.46875 38.523438 C 84.746094 38.796875 85.015625 39.078125 85.277344 39.367188 C 85.539062 39.65625 85.792969 39.957031 86.035156 40.261719 C 86.277344 40.570312 86.511719 40.882812 86.734375 41.203125 C 86.957031 41.523438 87.167969 41.851562 87.371094 42.1875 C 87.574219 42.519531 87.765625 42.859375 87.945312 43.207031 C 88.125 43.554688 88.292969 43.90625 88.453125 44.261719 C 88.613281 44.621094 88.757812 44.980469 88.894531 45.347656 C 89.03125 45.714844 89.152344 46.085938 89.265625 46.460938 C 89.378906 46.835938 89.476562 47.210938 89.566406 47.59375 L 104.757812 47.59375 C 105.03125 47.59375 105.304688 47.621094 105.574219 47.671875 C 105.847656 47.726562 106.109375 47.808594 106.363281 47.914062 C 106.617188 48.019531 106.859375 48.148438 107.089844 48.300781 C 107.320312 48.453125 107.53125 48.628906 107.726562 48.824219 C 107.921875 49.019531 108.09375 49.230469 108.25 49.460938 C 108.402344 49.6875 108.53125 49.929688 108.636719 50.183594 C 108.742188 50.4375 108.824219 50.703125 108.875 50.972656 C 108.929688 51.242188 108.957031 51.515625 108.957031 51.789062 Z M 21.144531 59.6875 L 14.273438 59.6875 L 14.273438 98.542969 L 21.144531 98.542969 Z M 39.058594 45.699219 L 32.195312 45.699219 L 32.195312 98.542969 L 39.0625 98.542969 Z M 56.984375 98.542969 L 56.984375 63.394531 C 56.328125 62.578125 55.742188 61.714844 55.234375 60.796875 C 54.726562 59.882812 54.296875 58.929688 53.949219 57.941406 C 53.601562 56.953125 53.339844 55.945312 53.160156 54.914062 C 52.984375 53.878906 52.898438 52.839844 52.898438 51.792969 C 52.898438 50.746094 52.984375 49.707031 53.160156 48.671875 C 53.339844 47.640625 53.601562 46.628906 53.949219 45.644531 C 54.296875 44.65625 54.726562 43.703125 55.234375 42.789062 C 55.742188 41.871094 56.328125 41.007812 56.984375 40.191406 L 56.984375 31.71875 L 50.121094 31.71875 L 50.121094 98.542969 Z M 65.183594 98.542969 L 65.183594 69.261719 C 63.234375 68.558594 61.453125 67.558594 59.84375 66.257812 L 59.84375 98.542969 Z M 74.90625 70.039062 C 72.617188 70.46875 70.332031 70.472656 68.042969 70.042969 L 68.042969 98.542969 L 74.90625 98.542969 Z M 87.1875 51.789062 C 87.1875 50.757812 87.085938 49.738281 86.882812 48.726562 C 86.683594 47.714844 86.382812 46.734375 85.988281 45.78125 C 85.59375 44.828125 85.109375 43.921875 84.535156 43.0625 C 83.964844 42.207031 83.3125 41.414062 82.582031 40.683594 C 81.851562 39.953125 81.058594 39.304688 80.199219 38.730469 C 79.339844 38.15625 78.4375 37.675781 77.484375 37.28125 C 76.527344 36.886719 75.546875 36.585938 74.535156 36.386719 C 73.523438 36.183594 72.5 36.085938 71.46875 36.085938 C 70.4375 36.085938 69.414062 36.1875 68.402344 36.386719 C 67.390625 36.589844 66.40625 36.886719 65.453125 37.28125 C 64.5 37.675781 63.597656 38.160156 62.738281 38.734375 C 61.878906 39.308594 61.085938 39.957031 60.355469 40.6875 C 59.628906 41.417969 58.976562 42.210938 58.402344 43.070312 C 57.828125 43.925781 57.347656 44.832031 56.953125 45.785156 C 56.558594 46.738281 56.257812 47.71875 56.058594 48.730469 C 55.855469 49.742188 55.757812 50.765625 55.757812 51.796875 C 55.757812 52.828125 55.855469 53.847656 56.058594 54.859375 C 56.261719 55.871094 56.558594 56.855469 56.953125 57.808594 C 57.347656 58.761719 57.832031 59.664062 58.40625 60.523438 C 58.980469 61.382812 59.632812 62.175781 60.359375 62.902344 C 61.089844 63.632812 61.886719 64.285156 62.742188 64.855469 C 63.601562 65.429688 64.507812 65.914062 65.460938 66.308594 C 66.414062 66.703125 67.394531 67 68.410156 67.199219 C 69.421875 67.402344 70.441406 67.503906 71.472656 67.503906 C 72.503906 67.5 73.527344 67.398438 74.539062 67.199219 C 75.550781 66.996094 76.53125 66.695312 77.484375 66.300781 C 78.4375 65.90625 79.34375 65.421875 80.203125 64.847656 C 81.058594 64.277344 81.851562 63.625 82.582031 62.894531 C 83.3125 62.167969 83.960938 61.371094 84.535156 60.515625 C 85.109375 59.65625 85.59375 58.753906 85.988281 57.800781 C 86.382812 56.847656 86.679688 55.867188 86.882812 54.855469 C 87.085938 53.84375 87.1875 52.820312 87.1875 51.789062 Z M 106.097656 51.789062 C 106.097656 51.613281 106.0625 51.445312 105.992188 51.28125 C 105.921875 51.117188 105.828125 50.972656 105.699219 50.847656 C 105.574219 50.722656 105.429688 50.625 105.269531 50.554688 C 105.105469 50.488281 104.933594 50.453125 104.757812 50.449219 L 89.996094 50.449219 C 90.027344 50.894531 90.046875 51.339844 90.046875 51.789062 C 90.046875 52.242188 90.027344 52.691406 89.996094 53.132812 L 104.757812 53.132812 C 104.933594 53.132812 105.105469 53.097656 105.269531 53.03125 C 105.433594 52.960938 105.578125 52.863281 105.707031 52.738281 C 105.832031 52.613281 105.929688 52.46875 105.996094 52.304688 C 106.066406 52.140625 106.097656 51.96875 106.097656 51.789062 Z M 106.097656 51.789062 " fill-opacity="1" fill-rule="nonzero"/></g></g></g></g></svg>