<?xml version="1.0" encoding="utf-8"?>
<!-- Generator: Adobe Illustrator 24.0.2, SVG Export Plug-In . SVG Version: 6.00 Build 0)  -->
<svg version="1.1" id="Capa_1" xmlns="http://www.w3.org/2000/svg" xmlns:xlink="http://www.w3.org/1999/xlink" x="0px" y="0px"
	 viewBox="0 0 100 100" style="enable-background:new 0 0 100 100;" xml:space="preserve">
<style type="text/css">
	.st0{fill:#262626;}
</style>
<g>
	<g>
		<polygon class="st0" points="17.8,70.7 67.2,70.7 67.2,68.5 17.8,68.5 17.8,29.9 41.4,29.9 43.6,29.9 43.6,27.8 41.4,27.8 
			17.8,27.8 17.8,23.5 46.8,23.5 46.8,21.4 15.7,21.4 15.7,27.8 15.7,28.9 15.7,68.5 15.7,70.7 15.7,75 68.2,75 68.2,72.8 
			17.8,72.8 		"/>
		<rect x="20" y="24.6" class="st0" width="2.1" height="2.1"/>
		<rect x="24.3" y="24.6" class="st0" width="2.1" height="2.1"/>
		<rect x="28.6" y="24.6" class="st0" width="2.1" height="2.1"/>
		<rect x="35" y="24.6" class="st0" width="9.6" height="2.1"/>
		<rect x="78.9" y="42.8" class="st0" width="2.1" height="18.2"/>
		<polygon class="st0" points="75.7,21.4 75.7,23.5 82.2,23.5 82.2,27.8 80,27.8 80,29.9 82.2,29.9 82.2,69.6 84.3,69.6 84.3,21.4 
					"/>
	</g>
	<g>
		<path class="st0" d="M75.3,30.1c-1.5-3.7-4.4-6.6-8.1-8.2c-3.7-1.6-7.8-1.6-11.5-0.1c-3.7,1.5-6.6,4.4-8.2,8.1
			c-1.6,3.7-1.6,7.8-0.1,11.5c2.4,5.8,8,9.3,13.9,9.3c1.9,0,3.8-0.4,5.6-1.1C74.7,46.5,78.4,37.8,75.3,30.1z M66.3,47.7
			c-6.6,2.7-14.1-0.5-16.8-7.1c-1.3-3.2-1.3-6.7,0.1-9.8c1.3-3.2,3.8-5.6,7-6.9c1.6-0.6,3.2-1,4.9-1c1.7,0,3.4,0.3,5,1
			c3.2,1.3,5.6,3.8,6.9,7c1.3,3.2,1.3,6.7-0.1,9.8C71.9,43.9,69.5,46.4,66.3,47.7z"/>
		<path class="st0" d="M84,75.6L76,56c-0.6-1.4-1.9-2.3-3.3-2.4l-1.1-2.7c2.9-2,5.2-4.7,6.6-8c1.9-4.5,1.9-9.4,0.1-13.9
			c-3.8-9.3-14.4-13.8-23.8-10c-4.5,1.8-8,5.3-9.9,9.8c-1.9,4.5-1.9,9.4-0.1,13.9c1.8,4.5,5.3,8,9.8,9.9c2.3,1,4.7,1.4,7.1,1.4
			c1.1,0,2.2-0.1,3.3-0.3l1.1,2.7c-0.3,0.3-0.5,0.6-0.7,1c-0.4,1-0.4,2,0,3l8,19.6c0.4,1,1.1,1.7,2.1,2.1c0.5,0.2,1,0.3,1.5,0.3
			c0.5,0,1-0.1,1.5-0.3l3.7-1.5C83.9,79.9,84.8,77.6,84,75.6z M55.2,50.6c-4-1.7-7-4.8-8.7-8.8c-3.3-8.2,0.6-17.6,8.8-21
			c2-0.8,4-1.2,6-1.2c6.3,0,12.4,3.8,14.9,10c1.6,4,1.6,8.3-0.1,12.3c-1.7,4-4.8,7-8.8,8.7C63.5,52.3,59.1,52.2,55.2,50.6z
			 M68.3,52.6L68.3,52.6l1.5-0.6l0.8,2l-3,1.2l-0.8-2L68.3,52.6L68.3,52.6z M81.1,78.7l-3.7,1.5c-0.4,0.2-0.9,0.2-1.3,0
			c-0.4-0.2-0.8-0.5-0.9-0.9l-8-19.6c-0.2-0.4-0.2-0.9,0-1.3s0.5-0.8,0.9-0.9l3.7-1.5c0.2-0.1,0.4-0.1,0.7-0.1
			c0.7,0,1.3,0.4,1.6,1.1l8,19.6C82.4,77.3,82,78.3,81.1,78.7z"/>
		<path class="st0" d="M72.8,56.6l-5,2l2.4,6l5-2L72.8,56.6z M71.4,61.8l-0.8-2l1-0.4l0.8,2L71.4,61.8z"/>
		<path class="st0" d="M75.6,63.5l-5,2l2.4,6l5-2L75.6,63.5z M74.3,68.7l-0.8-2l1-0.4l0.8,2L74.3,68.7z"/>
		<path class="st0" d="M73.5,72.5l2.4,6l5-2l-2.4-6L73.5,72.5z M77.1,75.7l-0.8-2l1-0.4l0.8,2L77.1,75.7z"/>
	</g>
	<g>
		<g>
			<rect x="50" y="36.4" class="st0" width="2.1" height="2.1"/>
		</g>
		<g>
			<g>
				<path class="st0" d="M57.2,36.5C57,36.9,56.6,37,56.1,37c-0.9,0-1.4-0.7-1.4-1.7c0-1,0.6-1.7,1.4-1.7c0.4,0,0.8,0.2,1.1,0.5
					l0.4,0.5l0.8-1.2L58.2,33c-0.5-0.6-1.3-0.9-2.1-0.9c-1.7,0-2.9,1.4-2.9,3.2c0,1.9,1.2,3.2,2.9,3.2c0.9,0,1.7-0.4,2.2-1.1
					l0.3-0.3L57.7,36L57.2,36.5z"/>
			</g>
			<g>
				<path class="st0" d="M61.4,32.1c-1.7,0-2.9,1.3-2.9,3.2c0,1.9,1.2,3.2,2.9,3.2c1.7,0,2.9-1.4,2.9-3.2
					C64.3,33.4,63.1,32.1,61.4,32.1z M61.4,37c-0.9,0-1.5-0.7-1.5-1.7s0.6-1.7,1.5-1.7c0.9,0,1.5,0.7,1.5,1.7
					C62.9,36.3,62.3,37,61.4,37z"/>
			</g>
			<g>
				<path class="st0" d="M71.2,32.1c-0.8,0-1.4,0.3-1.9,0.8c-0.4-0.5-1-0.8-1.8-0.8c-0.5,0-1,0.1-1.4,0.4v-0.4h-1.4v6.4h1.4v-3.1
					c0-0.6,0.2-1.7,1.3-1.8c0.7,0,1,0.4,1,1.2v3.7h1.4v-3.1c0-0.6,0.2-1.7,1.3-1.8c0.7,0,1,0.4,1,1.2v3.7h1.4v-3.8
					C73.6,33.1,72.7,32.1,71.2,32.1z"/>
			</g>
		</g>
		<g>
			<rect x="50" y="26.7" class="st0" width="23.6" height="2.1"/>
		</g>
		<g>
			<rect x="48.9" y="41.7" class="st0" width="24.7" height="2.1"/>
		</g>
	</g>
	<g>
		<polygon class="st0" points="44.6,39.6 44.6,37.4 21.1,37.4 21.1,33.2 44.6,33.2 44.6,31 18.9,31 18.9,31.2 18.9,39.6 18.9,67.3 
			21.1,67.3 21.1,39.6 		"/>
		<rect x="22.1" y="34.2" class="st0" width="2.1" height="2.1"/>
		<rect x="26.4" y="34.2" class="st0" width="2.1" height="2.1"/>
		<rect x="30.7" y="34.2" class="st0" width="2.1" height="2.1"/>
		<rect x="35" y="34.2" class="st0" width="2.1" height="2.1"/>
		<rect x="39.3" y="34.2" class="st0" width="2.1" height="2.1"/>
		<rect x="22.1" y="41.7" class="st0" width="20.4" height="2.1"/>
		<rect x="22.1" y="46" class="st0" width="22.5" height="2.1"/>
		<rect x="22.1" y="50.3" class="st0" width="25.7" height="2.1"/>
		<rect x="48.9" y="54.6" class="st0" width="15" height="2.1"/>
		<rect x="48.9" y="58.9" class="st0" width="15" height="2.1"/>
		<rect x="48.9" y="63.2" class="st0" width="15" height="2.1"/>
		<path class="st0" d="M22.1,67.5h25.7V54.6H22.1V67.5z M28.1,65.3l6.8-3.1l6.8,3.1H28.1z M45.7,64.7L37.6,61l8.1-3.7V64.7z
			 M41.8,56.7L35,59.9l-6.8-3.1H41.8z M24.3,57.3l8.1,3.7l-8.1,3.7V57.3z"/>
	</g>
</g>
</svg>
