<?xml version="1.0" encoding="utf-8"?>
<!-- Generator: Adobe Illustrator 24.0.2, SVG Export Plug-In . SVG Version: 6.00 Build 0)  -->
<svg version="1.1" id="Capa_1" xmlns="http://www.w3.org/2000/svg" xmlns:xlink="http://www.w3.org/1999/xlink" x="0px" y="0px"
	 viewBox="0 0 1000 200" style="enable-background:new 0 0 1000 200;" xml:space="preserve">
<style type="text/css">
	.st0{fill:#FFFFFF;}
</style>
<g>
	<polygon class="st0" points="248.5,28.3 248,29 248,29 163.3,168.8 203.2,168.8 293.7,168.8 318.1,168.8 333.7,168.8 	"/>
	<polygon class="st0" points="643.2,30.8 643.2,45.2 643.2,47.8 643.2,168.8 677.3,168.8 677.3,82 677.3,79.4 677.3,30.8 	"/>
	<polygon class="st0" points="427.4,60.3 426.6,61.1 426.6,118.4 339.8,31.6 339,30.8 333.7,30.8 333.7,68 333.7,73.9 333.7,168.8 
		356.6,168.8 367.8,168.8 428.6,168.8 445.1,168.8 460.8,168.8 460.8,26.9 	"/>
	<path class="st0" d="M113.1,116.9c0.6,0,1.2,0,1.8,0l0.5,0h0c11-0.3,21.4-4.7,29.2-12.5c7.7-7.7,12.2-18.1,12.7-29.1
		c0.1-1.4,0.2-2.8,0.2-4.2c0-3.2-0.4-6.4-1.1-9.5c-1.7-7.1-5.4-13.7-10.7-19c-5.6-5.6-12.7-9.5-20.5-11c-2.6-0.5-5.3-0.8-8-0.8H25.1
		v47.7v2.6v87.6h17.1h17.1H113h17.7h35.2L113.1,116.9z"/>
	<polygon class="st0" points="791.1,60.3 790.3,61.1 790.3,118.4 703.5,31.6 702.7,30.8 697.4,30.8 697.4,71.2 697.4,73.9 
		697.4,168.8 716.7,168.8 731.5,168.8 792.3,168.8 805.2,168.8 824.5,168.8 824.5,26.9 	"/>
	<polygon class="st0" points="591.9,70.4 626.3,28.7 582.2,28.7 537,82.7 515.8,108 514.9,107.3 514.9,59.5 480.8,26.9 480.8,168.8 
		499.9,168.8 514.9,168.8 574.7,168.8 588.4,168.8 623,168.8 561.7,107.4 	"/>
	<line class="st0" x1="262.8" y1="210.3" x2="251.2" y2="210.3"/>
	<path class="st0" d="M916.8,111.8c-6.4,0-11.6-5.2-11.6-11.6v-0.9c0-6.4,5.2-11.6,11.6-11.6h59.8l-0.7-3.1
		c-3.8-17-13.8-31.8-28.2-41.7c-11.5-8-25.1-12.2-39.1-12.2c-20.3,0-39.6,8.9-52.7,24.5c0,0-7.4,8-10.6,17c0,0,0,0.1,0,0.1
		c-3.8,8.6-5.7,17.8-5.7,27.4c0,18.4,7.2,35.7,20.2,48.8c13,13,30.3,20.2,48.8,20.2c12.3,0,24.3-3.2,34.8-9.4v9.2h34.2v-56.7H916.8z
		"/>
</g>
</svg>
