<?xml version="1.0" encoding="utf-8"?>
<!-- Generator: Adobe Illustrator 24.0.2, SVG Export Plug-In . SVG Version: 6.00 Build 0)  -->
<svg version="1.1" id="Capa_1" xmlns="http://www.w3.org/2000/svg" xmlns:xlink="http://www.w3.org/1999/xlink" x="0px" y="0px"
	 viewBox="0 0 1000 200" style="enable-background:new 0 0 1000 200;" xml:space="preserve">
<style type="text/css">
	.st0{fill:#FFFFFF;}
	.st1{fill:none;}
</style>
<g>
	<polygon class="st0" points="236.3,2.4 235.8,3.1 235.8,3.1 147.8,142.9 189.3,142.9 283.3,142.9 308.6,142.9 324.8,142.9 	"/>
	<polygon class="st0" points="646.4,4.9 646.4,19.3 646.4,21.9 646.4,142.9 681.8,142.9 681.8,56.1 681.8,53.5 681.8,4.9 	"/>
	<polygon class="st0" points="422.2,34.4 421.3,35.2 421.3,92.5 331.2,5.7 330.3,4.9 324.8,4.9 324.8,42.1 324.8,48 324.8,142.9 
		348.6,142.9 360.3,142.9 423.4,142.9 440.6,142.9 456.9,142.9 456.9,1 	"/>
	<path class="st0" d="M95.7,91c0.6,0,1.2,0,1.9,0h0.5l0,0c11.4-0.3,22.2-4.7,30.3-12.5c8-7.7,12.7-18.1,13.2-29.1
		c0.1-1.4,0.2-2.8,0.2-4.2c0-3.2-0.4-6.4-1.1-9.5c-1.8-7.1-5.6-13.7-11.1-19c-5.8-5.6-13.2-9.5-21.3-11c-2.7-0.5-5.5-0.8-8.3-0.8
		H4.2v47.7v2.6v87.6H22h17.8h55.8H114h36.6L95.7,91z"/>
	<polygon class="st0" points="800,34.4 799.2,35.2 799.2,92.5 709,5.7 708.2,4.9 702.7,4.9 702.7,45.3 702.7,48 702.7,142.9 
		722.7,142.9 738.1,142.9 801.3,142.9 814.7,142.9 834.7,142.9 834.7,1 	"/>
	<polygon class="st0" points="593.1,44.5 628.8,2.8 583,2.8 536,56.8 514,82.1 513.1,81.4 513.1,33.6 477.7,1 477.7,142.9 
		497.5,142.9 513.1,142.9 575.2,142.9 589.4,142.9 625.4,142.9 561.7,81.5 	"/>
	<line class="st1" x1="251.2" y1="184.4" x2="239.1" y2="184.4"/>
	<path class="st0" d="M930.6,85.9c-6.6,0-12.1-5.2-12.1-11.6v-0.9c0-6.4,5.4-11.6,12.1-11.6h62.1l-0.7-3.1
		c-3.9-17-14.3-31.8-29.3-41.7c-11.9-8-26.1-12.2-40.6-12.2c-21.1,0-41.1,8.9-54.7,24.5c0,0-7.7,8-11,17v0.1
		c-3.9,8.6-5.9,17.8-5.9,27.4c0,18.4,7.5,35.7,21,48.8c13.5,13,31.5,20.2,50.7,20.2c12.8,0,25.2-3.2,36.2-9.4v9.2h35.5V85.9H930.6z"
		/>
</g>
<g>
	<path class="st0" d="M425.3,178.2h-17l-3.9,10.4H403l13-34.7h1.6l13,34.7h-1.4L425.3,178.2z M408.8,176.9h16l-8-21.5L408.8,176.9z"
		/>
	<path class="st0" d="M434.3,175.4c0-4.1,0.9-7.3,2.6-9.6s4.1-3.5,7.1-3.5c1.9,0,3.6,0.4,5.1,1.3c1.5,0.9,2.7,2.2,3.6,3.9v-4.7h1.3
		v25.3c0,3.4-0.9,6.1-2.6,8s-4.1,2.9-7.1,2.9c-1.7,0-3.3-0.4-4.7-1.1c-1.4-0.7-2.7-1.8-3.7-3.2l0.9-0.9c1,1.3,2.1,2.2,3.3,2.9
		c1.2,0.7,2.6,1,4.2,1c2.7,0,4.7-0.8,6.2-2.4c1.5-1.6,2.2-3.9,2.3-6.8v-3.9c-0.9,1.5-2.1,2.6-3.6,3.4c-1.5,0.8-3.2,1.2-5.2,1.2
		c-3,0-5.3-1.2-7.1-3.5c-1.7-2.4-2.6-5.6-2.6-9.7L434.3,175.4L434.3,175.4z M435.6,175.9c0,3.7,0.7,6.6,2.2,8.7
		c1.5,2.1,3.5,3.2,6.1,3.2c2.2,0,4-0.5,5.5-1.5s2.6-2.4,3.2-4.2v-11.7c-1.4-4.5-4.3-6.7-8.7-6.7c-2.7,0-4.7,1-6.2,3.1
		C436.4,168.8,435.6,171.9,435.6,175.9z"/>
	<path class="st0" d="M471.5,189c-2.1,0-4-0.6-5.7-1.7s-3.1-2.7-4.1-4.6s-1.5-4.1-1.5-6.5v-1.1c0-2.4,0.5-4.6,1.4-6.5
		c1-2,2.3-3.5,3.9-4.6c1.7-1.1,3.5-1.7,5.5-1.7c2.9,0,5.2,1,7,3.1c1.8,2,2.7,4.7,2.7,8.1v1.4h-19.3v1.4c0,2.1,0.4,4,1.3,5.8
		s2.1,3.2,3.6,4.2s3.2,1.5,5,1.5c1.7,0,3.2-0.3,4.4-0.9c1.2-0.6,2.3-1.5,3.2-2.7l0.9,0.6C478.2,187.6,475.3,189,471.5,189z
		 M471,163.6c-2.5,0-4.6,0.9-6.4,2.8c-1.7,1.9-2.8,4.2-3.1,7.1h17.9v-0.3c0-1.7-0.4-3.4-1.1-4.9s-1.8-2.7-3-3.5
		C474.1,164,472.7,163.6,471,163.6z"/>
	<path class="st0" d="M488.1,168.8c0.8-2,2.1-3.6,3.7-4.7c1.6-1.2,3.4-1.7,5.4-1.7c2.8,0,4.8,0.8,6.2,2.3c1.3,1.6,2,3.9,2,7.1v16.8
		h-1.3v-16.8c0-2.8-0.6-4.8-1.7-6.1s-2.9-2-5.3-2c-2.2,0-4.1,0.8-5.8,2.4c-1.6,1.6-2.7,3.6-3.3,6.1v16.5h-1.3v-25.8h1.3L488.1,168.8
		L488.1,168.8z"/>
	<path class="st0" d="M522.3,187.7c2.3,0,4.3-0.6,5.8-1.9c1.5-1.2,2.3-3,2.5-5.1h1.3c-0.1,2.5-1.1,4.5-2.9,6c-1.8,1.5-4,2.3-6.7,2.3
		c-3.2,0-5.8-1.2-7.7-3.5s-2.8-5.5-2.8-9.5v-0.9c0-3.9,0.9-7,2.8-9.4c1.9-2.3,4.4-3.5,7.6-3.5c2.7,0,5,0.8,6.8,2.5
		c1.8,1.6,2.7,3.8,2.8,6.5h-1.3c-0.1-2.3-0.9-4.2-2.4-5.6c-1.5-1.4-3.5-2.1-5.9-2.1c-2.9,0-5.1,1-6.7,3.1c-1.6,2.1-2.4,4.9-2.4,8.6
		v0.8c0,3.6,0.8,6.4,2.5,8.5S519.4,187.7,522.3,187.7z"/>
	<path class="st0" d="M537.9,154.7c0-0.4,0.1-0.7,0.4-0.9c0.3-0.3,0.6-0.4,0.9-0.4s0.7,0.1,0.9,0.4c0.3,0.3,0.4,0.6,0.4,0.9
		s-0.1,0.7-0.4,0.9c-0.3,0.3-0.6,0.4-0.9,0.4s-0.7-0.1-0.9-0.4S537.9,155.1,537.9,154.7z M539.8,188.5h-1.3v-25.8h1.3V188.5z"/>
	<path class="st0" d="M564.9,188.5c-0.3-1.1-0.5-2.7-0.5-4.7c-1,1.7-2.4,2.9-4.2,3.8c-1.8,0.9-3.8,1.4-6,1.4c-2.4,0-4.3-0.6-5.7-1.9
		c-1.5-1.3-2.2-3-2.2-5.1c0-2.4,1.1-4.3,3.2-5.7c2.1-1.4,5-2.1,8.5-2.2h6.4v-3.8c0-2.2-0.7-3.8-2-5c-1.4-1.2-3.3-1.8-5.8-1.8
		c-2.3,0-4.3,0.6-5.9,1.8s-2.4,2.7-2.4,4.5H547c0-2.1,0.9-3.9,2.8-5.3c1.8-1.5,4.1-2.2,6.8-2.2c2.8,0,5,0.7,6.6,2.1
		c1.6,1.4,2.5,3.3,2.5,5.9v12.3c0,2.8,0.2,4.7,0.7,5.8v0.2h-1.5V188.5z M554.3,187.7c2.4,0,4.5-0.5,6.2-1.6s3-2.6,3.9-4.5v-6.1h-6
		c-3.7,0-6.5,0.7-8.5,2.2c-1.6,1.2-2.4,2.7-2.4,4.5c0,1.6,0.6,2.9,1.9,4C550.8,187.2,552.4,187.7,554.3,187.7z"/>
	<path class="st0" d="M584.5,175.4c0-4.1,0.9-7.3,2.6-9.6s4.1-3.5,7.1-3.5c1.9,0,3.6,0.4,5.1,1.3c1.5,0.9,2.7,2.2,3.6,3.9V152h1.3
		v36.6h-1.3v-4.1c-0.9,1.5-2.1,2.6-3.6,3.4c-1.5,0.8-3.3,1.2-5.2,1.2c-3,0-5.3-1.2-7.1-3.5c-1.7-2.4-2.6-5.6-2.6-9.7v-0.5H584.5z
		 M585.8,175.9c0,3.6,0.7,6.5,2.2,8.7c1.4,2.1,3.5,3.2,6.1,3.2c2.1,0,3.9-0.5,5.5-1.4c1.5-0.9,2.6-2.3,3.4-4.2v-12.1
		c-1.5-4.3-4.4-6.5-8.8-6.5c-2.6,0-4.7,1-6.2,3.1C586.6,168.8,585.8,171.9,585.8,175.9z"/>
	<path class="st0" d="M621.6,189c-2.1,0-4-0.6-5.7-1.7c-1.7-1.1-3.1-2.7-4.1-4.6c-1-2-1.5-4.1-1.5-6.5v-1.1c0-2.4,0.5-4.6,1.4-6.5
		c1-2,2.3-3.5,3.9-4.6c1.7-1.1,3.5-1.7,5.5-1.7c2.9,0,5.2,1,7,3.1c1.8,2,2.7,4.7,2.7,8.1v1.4h-19.3v1.4c0,2.1,0.4,4,1.3,5.8
		c0.9,1.8,2.1,3.2,3.6,4.2s3.2,1.5,5,1.5c1.7,0,3.2-0.3,4.4-0.9c1.2-0.6,2.3-1.5,3.2-2.7l0.9,0.6C628.3,187.6,625.4,189,621.6,189z
		 M621.2,163.6c-2.5,0-4.6,0.9-6.4,2.8c-1.7,1.9-2.8,4.2-3.1,7.1h17.9v-0.3c0-1.7-0.4-3.4-1.1-4.9c-0.7-1.5-1.8-2.7-3-3.5
		C624.2,164,622.8,163.6,621.2,163.6z"/>
	<path class="st0" d="M651.1,153.9l14.3,32.8l14.3-32.8h1.9v34.7h-1.3v-32.8l-14.4,32.8h-1L650.6,156v32.6h-1.3v-34.7H651.1z"/>
	<path class="st0" d="M707,188.5c-0.3-1.1-0.5-2.7-0.5-4.7c-1,1.7-2.4,2.9-4.2,3.8c-1.8,0.9-3.8,1.4-6,1.4c-2.4,0-4.3-0.6-5.7-1.9
		s-2.2-3-2.2-5.1c0-2.4,1.1-4.3,3.2-5.7c2.1-1.4,5-2.1,8.5-2.2h6.4v-3.8c0-2.2-0.7-3.8-2-5c-1.4-1.2-3.3-1.8-5.8-1.8
		c-2.3,0-4.3,0.6-5.9,1.8c-1.6,1.2-2.4,2.7-2.4,4.5h-1.3c0-2.1,0.9-3.9,2.8-5.3c1.8-1.5,4.1-2.2,6.8-2.2c2.8,0,5,0.7,6.6,2.1
		c1.6,1.4,2.5,3.3,2.5,5.9v12.3c0,2.8,0.2,4.7,0.7,5.8v0.2H707V188.5z M696.4,187.7c2.4,0,4.5-0.5,6.2-1.6s3-2.6,3.9-4.5v-6.1h-6
		c-3.7,0-6.5,0.7-8.5,2.2c-1.6,1.2-2.4,2.7-2.4,4.5c0,1.6,0.6,2.9,1.9,4C692.9,187.2,694.5,187.7,696.4,187.7z"/>
	<path class="st0" d="M727.5,163.7l-1.7-0.1c-2.2,0-4,0.7-5.5,2.1c-1.5,1.4-2.4,3.4-2.9,6v16.9h-1.3v-25.8h1.3v5.4
		c0.7-1.8,1.7-3.2,3.1-4.3c1.4-1,3.2-1.6,5.3-1.6c0.7,0,1.3,0.1,1.8,0.3L727.5,163.7z"/>
	<path class="st0" d="M737.5,174.6L737.5,174.6l-3.8,3.3v10.7h-1.3V152h1.3v24.5l3-2.9l11.7-10.8h1.8l-11.8,11l12.6,14.8h-1.7
		L737.5,174.6z"/>
	<path class="st0" d="M764.3,189c-2.1,0-4-0.6-5.7-1.7c-1.7-1.1-3.1-2.7-4.1-4.6c-1-2-1.5-4.1-1.5-6.5v-1.1c0-2.4,0.5-4.6,1.4-6.5
		c1-2,2.3-3.5,3.9-4.6c1.7-1.1,3.5-1.7,5.5-1.7c2.9,0,5.2,1,7,3.1c1.8,2,2.7,4.7,2.7,8.1v1.4h-19.3v1.4c0,2.1,0.4,4,1.3,5.8
		c0.9,1.8,2.1,3.2,3.6,4.2s3.2,1.5,5,1.5c1.7,0,3.2-0.3,4.4-0.9c1.2-0.6,2.3-1.5,3.2-2.7l0.9,0.6C770.9,187.6,768.1,189,764.3,189z
		 M763.8,163.6c-2.5,0-4.6,0.9-6.4,2.8c-1.7,1.9-2.8,4.2-3.1,7.1h17.9v-0.3c0-1.7-0.4-3.4-1.1-4.9c-0.7-1.5-1.8-2.7-3-3.5
		C766.9,164,765.4,163.6,763.8,163.6z"/>
	<path class="st0" d="M782.5,155.8v7h5.9v1.3h-5.9v18.3c0,1.8,0.3,3.2,0.9,4.1c0.6,0.9,1.6,1.3,3,1.3c0.7,0,1.5-0.1,2.5-0.2l0.2,1.2
		c-0.5,0.2-1.4,0.3-2.7,0.3c-1.9,0-3.2-0.5-4-1.6c-0.8-1-1.2-2.7-1.2-4.9v-18.5h-4.8v-1.3h4.8v-7H782.5z"/>
	<path class="st0" d="M794.7,154.7c0-0.4,0.1-0.7,0.4-0.9c0.3-0.3,0.6-0.4,0.9-0.4s0.7,0.1,0.9,0.4c0.3,0.3,0.4,0.6,0.4,0.9
		s-0.1,0.7-0.4,0.9s-0.6,0.4-0.9,0.4s-0.7-0.1-0.9-0.4S794.7,155.1,794.7,154.7z M796.6,188.5h-1.3v-25.8h1.3V188.5z"/>
	<path class="st0" d="M806.4,168.8c0.8-2,2.1-3.6,3.7-4.7c1.6-1.2,3.4-1.7,5.4-1.7c2.8,0,4.8,0.8,6.2,2.3c1.3,1.6,2,3.9,2,7.1v16.8
		h-1.3v-16.8c0-2.8-0.6-4.8-1.7-6.1c-1.1-1.3-2.9-2-5.3-2c-2.2,0-4.1,0.8-5.8,2.4c-1.6,1.6-2.7,3.6-3.3,6.1v16.5H805v-25.8h1.3
		L806.4,168.8L806.4,168.8z"/>
	<path class="st0" d="M830.5,175.4c0-4.1,0.9-7.3,2.6-9.6s4.1-3.5,7.1-3.5c1.9,0,3.6,0.4,5.1,1.3c1.5,0.9,2.7,2.2,3.6,3.9v-4.7h1.3
		v25.3c0,3.4-0.9,6.1-2.6,8c-1.7,1.9-4.1,2.9-7.1,2.9c-1.7,0-3.3-0.4-4.7-1.1c-1.4-0.7-2.7-1.8-3.7-3.2l0.9-0.9
		c1,1.3,2.1,2.2,3.3,2.9s2.6,1,4.2,1c2.7,0,4.7-0.8,6.2-2.4c1.5-1.6,2.2-3.9,2.3-6.8v-3.9c-0.9,1.5-2.1,2.6-3.6,3.4
		c-1.5,0.8-3.2,1.2-5.2,1.2c-3,0-5.3-1.2-7.1-3.5c-1.7-2.4-2.6-5.6-2.6-9.7V175.4z M831.8,175.9c0,3.7,0.7,6.6,2.2,8.7
		s3.5,3.2,6.1,3.2c2.2,0,4-0.5,5.5-1.5s2.6-2.4,3.2-4.2v-11.7c-1.4-4.5-4.3-6.7-8.7-6.7c-2.7,0-4.7,1-6.2,3.1
		S831.8,171.9,831.8,175.9z"/>
	<path class="st0" d="M870.8,188.5v-34.7h9.6c2.7,0,5.1,0.6,7.3,1.9c2.2,1.3,3.9,3.1,5.1,5.3c1.2,2.3,1.9,4.9,1.9,7.7v4.5
		c0,2.9-0.6,5.5-1.8,7.8s-2.9,4.1-5.1,5.4c-2.2,1.3-4.6,2-7.3,2h-9.7V188.5z M872.1,155.2v32.1h8.3c2.4,0,4.6-0.6,6.6-1.8
		s3.6-2.8,4.7-5s1.7-4.5,1.7-7.1v-4.5c0-2.6-0.6-4.9-1.7-7s-2.6-3.8-4.6-5s-4.2-1.8-6.6-1.8h-8.4V155.2z"/>
	<path class="st0" d="M901.7,154.7c0-0.4,0.1-0.7,0.4-0.9c0.3-0.3,0.6-0.4,0.9-0.4c0.4,0,0.7,0.1,0.9,0.4c0.3,0.3,0.4,0.6,0.4,0.9
		s-0.1,0.7-0.4,0.9s-0.6,0.4-0.9,0.4c-0.4,0-0.7-0.1-0.9-0.4S901.7,155.1,901.7,154.7z M903.6,188.5h-1.3v-25.8h1.3V188.5z"/>
	<path class="st0" d="M910.9,175.4c0-4.1,0.9-7.3,2.6-9.6s4.1-3.5,7.1-3.5c1.9,0,3.6,0.4,5.1,1.3c1.5,0.9,2.7,2.2,3.6,3.9v-4.7h1.3
		v25.3c0,3.4-0.9,6.1-2.6,8c-1.7,1.9-4.1,2.9-7.1,2.9c-1.7,0-3.3-0.4-4.7-1.1c-1.4-0.7-2.7-1.8-3.7-3.2l0.9-0.9
		c1,1.3,2.1,2.2,3.3,2.9s2.6,1,4.2,1c2.7,0,4.7-0.8,6.2-2.4c1.5-1.6,2.2-3.9,2.3-6.8v-3.9c-0.9,1.5-2.1,2.6-3.6,3.4
		c-1.5,0.8-3.2,1.2-5.2,1.2c-3,0-5.3-1.2-7.1-3.5c-1.7-2.4-2.6-5.6-2.6-9.7V175.4z M912.2,175.9c0,3.7,0.7,6.6,2.2,8.7
		s3.5,3.2,6.1,3.2c2.2,0,4-0.5,5.5-1.5s2.6-2.4,3.2-4.2v-11.7c-1.4-4.5-4.3-6.7-8.7-6.7c-2.7,0-4.7,1-6.2,3.1
		S912.2,171.9,912.2,175.9z"/>
	<path class="st0" d="M938.5,154.7c0-0.4,0.1-0.7,0.4-0.9c0.3-0.3,0.6-0.4,0.9-0.4s0.7,0.1,0.9,0.4c0.3,0.3,0.4,0.6,0.4,0.9
		s-0.1,0.7-0.4,0.9s-0.6,0.4-0.9,0.4s-0.7-0.1-0.9-0.4S938.5,155.1,938.5,154.7z M940.4,188.5h-1.3v-25.8h1.3V188.5z"/>
	<path class="st0" d="M951.7,155.8v7h5.9v1.3h-5.9v18.3c0,1.8,0.3,3.2,0.9,4.1c0.6,0.9,1.6,1.3,3,1.3c0.7,0,1.5-0.1,2.5-0.2l0.2,1.2
		c-0.5,0.2-1.4,0.3-2.7,0.3c-1.9,0-3.2-0.5-4-1.6c-0.8-1-1.2-2.7-1.2-4.9v-18.5h-4.8v-1.3h4.8v-7H951.7z"/>
	<path class="st0" d="M980.9,188.5c-0.3-1.1-0.5-2.7-0.5-4.7c-1,1.7-2.4,2.9-4.2,3.8c-1.8,0.9-3.8,1.4-6,1.4c-2.4,0-4.3-0.6-5.7-1.9
		c-1.5-1.3-2.2-3-2.2-5.1c0-2.4,1.1-4.3,3.2-5.7c2.1-1.4,5-2.1,8.5-2.2h6.4v-3.8c0-2.2-0.7-3.8-2-5c-1.4-1.2-3.3-1.8-5.8-1.8
		c-2.3,0-4.3,0.6-5.9,1.8c-1.6,1.2-2.4,2.7-2.4,4.5H963c0-2.1,0.9-3.9,2.8-5.3c1.8-1.5,4.1-2.2,6.8-2.2c2.8,0,5,0.7,6.6,2.1
		c1.6,1.4,2.5,3.3,2.5,5.9v12.3c0,2.8,0.2,4.7,0.7,5.8v0.2h-1.5V188.5z M970.3,187.7c2.4,0,4.5-0.5,6.2-1.6s3-2.6,3.9-4.5v-6.1h-6
		c-3.7,0-6.5,0.7-8.5,2.2c-1.6,1.2-2.4,2.7-2.4,4.5c0,1.6,0.6,2.9,1.9,4C966.8,187.2,968.4,187.7,970.3,187.7z"/>
	<path class="st0" d="M991.6,188.5h-1.3v-36.6h1.3V188.5z"/>
</g>
</svg>
