<?xml version="1.0" encoding="utf-8"?>
<!-- Generator: Adobe Illustrator 24.0.2, SVG Export Plug-In . SVG Version: 6.00 Build 0)  -->
<svg version="1.1" id="Capa_1" xmlns="http://www.w3.org/2000/svg" xmlns:xlink="http://www.w3.org/1999/xlink" x="0px" y="0px"
	 viewBox="0 0 1000 200" style="enable-background:new 0 0 1000 200;" xml:space="preserve">
<style type="text/css">
	.st0{display:none;}
	.st1{display:inline;fill:url(#SVGID_1_);}
	.st2{display:inline;fill:url(#SVGID_2_);}
	.st3{display:inline;fill:url(#SVGID_3_);}
	.st4{display:inline;fill:url(#SVGID_4_);}
	.st5{display:inline;fill:url(#SVGID_5_);}
	.st6{display:inline;fill:url(#SVGID_6_);}
	.st7{display:inline;fill:url(#SVGID_7_);}
	.st8{display:inline;fill:url(#SVGID_8_);}
	.st9{clip-path:url(#SVGID_10_);fill:#FFFFFF;}
	.st10{clip-path:url(#SVGID_12_);fill:#FFFFFF;}
	.st11{clip-path:url(#SVGID_14_);fill:#FFFFFF;}
	.st12{clip-path:url(#SVGID_16_);fill:#FFFFFF;}
	.st13{clip-path:url(#SVGID_18_);fill:#FFFFFF;}
	.st14{clip-path:url(#SVGID_20_);fill:#FFFFFF;}
	.st15{clip-path:url(#SVGID_22_);}
	.st16{fill:#FFFFFF;}
</style>
<g class="st0">
	<linearGradient id="SVGID_1_" gradientUnits="userSpaceOnUse" x1="246.9758" y1="141.9072" x2="251.1247" y2="4.9952">
		<stop  offset="1.117318e-02" style="stop-color:#3C2E55"/>
		<stop  offset="1" style="stop-color:#00A6E7"/>
	</linearGradient>
	<polygon class="st1" points="246.3,23.7 245.9,24.4 245.8,24.4 161.1,164.2 201,164.2 291.6,164.2 316,164.2 331.5,164.2 	"/>
	<linearGradient id="SVGID_2_" gradientUnits="userSpaceOnUse" x1="656.2787" y1="154.3103" x2="660.4276" y2="17.3983">
		<stop  offset="1.117318e-02" style="stop-color:#3C2E55"/>
		<stop  offset="1" style="stop-color:#00A6E7"/>
	</linearGradient>
	<polygon class="st2" points="641,26.3 641,40.7 641,43.3 641,164.2 675.1,164.2 675.1,77.4 675.1,74.8 675.1,26.3 	"/>
	<linearGradient id="SVGID_3_" gradientUnits="userSpaceOnUse" x1="393.4891" y1="146.347" x2="397.6379" y2="9.4349">
		<stop  offset="1.117318e-02" style="stop-color:#3C2E55"/>
		<stop  offset="1" style="stop-color:#00A6E7"/>
	</linearGradient>
	<polygon class="st3" points="425.2,55.7 424.4,56.5 424.4,113.8 337.7,27.1 336.9,26.3 331.5,26.3 331.5,63.5 331.5,69.3 
		331.5,164.2 354.5,164.2 365.6,164.2 426.4,164.2 443,164.2 458.6,164.2 458.6,22.4 	"/>
	<linearGradient id="SVGID_4_" gradientUnits="userSpaceOnUse" x1="92.0478" y1="137.2124" x2="96.1966" y2="0.3004">
		<stop  offset="1.117318e-02" style="stop-color:#3C2E55"/>
		<stop  offset="1" style="stop-color:#00A6E7"/>
	</linearGradient>
	<path class="st4" d="M110.9,112.3c0.6,0,1.2,0,1.8,0l0.5,0h0c11-0.3,21.4-4.7,29.2-12.5c7.7-7.7,12.2-18.1,12.7-29.1
		c0.1-1.4,0.2-2.8,0.2-4.2c0-3.2-0.4-6.4-1.1-9.5c-1.7-7.1-5.4-13.7-10.7-19c-5.6-5.6-12.7-9.5-20.5-11c-2.6-0.5-5.3-0.8-8-0.8H22.9
		V74v2.6v87.6H40h17.1h53.7h17.7h35.2L110.9,112.3z"/>
	<linearGradient id="SVGID_5_" gradientUnits="userSpaceOnUse" x1="756.8519" y1="157.358" x2="761.0007" y2="20.4459">
		<stop  offset="1.117318e-02" style="stop-color:#3C2E55"/>
		<stop  offset="1" style="stop-color:#00A6E7"/>
	</linearGradient>
	<polygon class="st5" points="788.9,55.7 788.1,56.5 788.1,113.8 701.4,27.1 700.5,26.3 695.2,26.3 695.2,66.7 695.2,69.3 
		695.2,164.2 714.5,164.2 729.3,164.2 790.1,164.2 803,164.2 822.3,164.2 822.3,22.4 	"/>
	<linearGradient id="SVGID_6_" gradientUnits="userSpaceOnUse" x1="547.9911" y1="151.0289" x2="552.14" y2="14.1168">
		<stop  offset="1.117318e-02" style="stop-color:#3C2E55"/>
		<stop  offset="1" style="stop-color:#00A6E7"/>
	</linearGradient>
	<polygon class="st6" points="589.8,65.9 624.1,24.1 580.1,24.1 534.8,78.2 513.6,103.4 512.8,102.7 512.8,54.9 478.6,22.4 
		478.6,164.2 497.7,164.2 512.8,164.2 572.6,164.2 586.2,164.2 620.9,164.2 559.5,102.8 	"/>
	<linearGradient id="SVGID_7_" gradientUnits="userSpaceOnUse" x1="256.7393" y1="142.2031" x2="260.8882" y2="5.291">
		<stop  offset="1.117318e-02" style="stop-color:#3C2E55"/>
		<stop  offset="1" style="stop-color:#00A6E7"/>
	</linearGradient>
	<line class="st7" x1="260.6" y1="205.7" x2="249" y2="205.7"/>
	<linearGradient id="SVGID_8_" gradientUnits="userSpaceOnUse" x1="905.4883" y1="161.8621" x2="909.6371" y2="24.9501">
		<stop  offset="1.117318e-02" style="stop-color:#3C2E55"/>
		<stop  offset="1" style="stop-color:#00A6E7"/>
	</linearGradient>
	<path class="st8" d="M914.7,107.2c-6.4,0-11.6-5.2-11.6-11.6v-0.9c0-6.4,5.2-11.6,11.6-11.6h59.8l-0.7-3.1
		c-3.8-17-13.8-31.8-28.2-41.7c-11.5-8-25.1-12.2-39.1-12.2c-20.3,0-39.6,8.9-52.7,24.5c0,0-7.4,8-10.6,17c0,0,0,0.1,0,0.1
		c-3.8,8.6-5.7,17.8-5.7,27.4c0,18.4,7.2,35.7,20.2,48.8c13,13,30.3,20.2,48.8,20.2c12.3,0,24.3-3.2,34.8-9.4v9.2h34.2v-56.7H914.7z
		"/>
</g>
<g>
	<defs>
		<polygon id="SVGID_9_" points="246.5,23.9 246.1,24.6 246.1,24.6 161.5,164 201.4,164 291.7,164 316,164 331.5,164 		"/>
	</defs>
	<clipPath id="SVGID_10_">
		<use xlink:href="#SVGID_9_"  style="overflow:visible;"/>
	</clipPath>
	<rect x="159.8" y="-64.7" class="st9" width="3.7" height="322.7"/>
	<rect x="200.7" y="-64.7" class="st9" width="3.7" height="322.7"/>
	<rect x="225.2" y="-64.7" class="st9" width="3.7" height="322.7"/>
	<rect x="217" y="-64.7" class="st9" width="3.7" height="322.7"/>
	<rect x="184.3" y="-64.7" class="st9" width="3.7" height="322.7"/>
	<rect x="192.5" y="-64.7" class="st9" width="3.7" height="322.7"/>
	<rect x="176.2" y="-64.7" class="st9" width="3.7" height="322.7"/>
	<rect x="168" y="-64.7" class="st9" width="3.7" height="322.7"/>
	<rect x="208.9" y="-64.7" class="st9" width="3.7" height="322.7"/>
	<rect x="233.4" y="-64.7" class="st9" width="3.7" height="322.7"/>
	<rect x="274.3" y="-64.7" class="st9" width="3.7" height="322.7"/>
	<rect x="298.8" y="-64.7" class="st9" width="3.7" height="322.7"/>
	<rect x="290.6" y="-64.7" class="st9" width="3.7" height="322.7"/>
	<rect x="257.9" y="-64.7" class="st9" width="3.7" height="322.7"/>
	<rect x="266.1" y="-64.7" class="st9" width="3.7" height="322.7"/>
	<rect x="249.7" y="-64.7" class="st9" width="3.7" height="322.7"/>
	<rect x="241.6" y="-64.7" class="st9" width="3.7" height="322.7"/>
	<rect x="282.4" y="-64.7" class="st9" width="3.7" height="322.7"/>
	<rect x="307" y="-64.7" class="st9" width="3.7" height="322.7"/>
	<rect x="331.5" y="-64.7" class="st9" width="3.7" height="322.7"/>
	<rect x="323.3" y="-64.7" class="st9" width="3.7" height="322.7"/>
	<rect x="315.1" y="-64.7" class="st9" width="3.7" height="322.7"/>
</g>
<g>
	<defs>
		<polygon id="SVGID_11_" points="640.1,26.5 640.1,40.8 640.1,43.4 640.1,164 674.1,164 674.1,77.5 674.1,74.9 674.1,26.5 		"/>
	</defs>
	<clipPath id="SVGID_12_">
		<use xlink:href="#SVGID_11_"  style="overflow:visible;"/>
	</clipPath>
	<rect x="650.3" y="-70.2" class="st10" width="3.7" height="322.7"/>
	<rect x="642.1" y="-70.2" class="st10" width="3.7" height="322.7"/>
	<rect x="633.9" y="-70.2" class="st10" width="3.7" height="322.7"/>
	<rect x="658.4" y="-70.2" class="st10" width="3.7" height="322.7"/>
	<rect x="683" y="-70.2" class="st10" width="3.7" height="322.7"/>
	<rect x="674.8" y="-70.2" class="st10" width="3.7" height="322.7"/>
	<rect x="666.6" y="-70.2" class="st10" width="3.7" height="322.7"/>
</g>
<g>
	<defs>
		<polygon id="SVGID_13_" points="424.9,55.8 424.1,56.6 424.1,113.8 337.6,27.3 336.8,26.5 331.5,26.5 331.5,63.5 331.5,69.4 
			331.5,164 354.4,164 365.5,164 426.1,164 442.6,164 458.2,164 458.2,22.6 		"/>
	</defs>
	<clipPath id="SVGID_14_">
		<use xlink:href="#SVGID_13_"  style="overflow:visible;"/>
	</clipPath>
	<rect x="331.5" y="-70.2" class="st11" width="3.7" height="322.7"/>
	<rect x="356" y="-70.2" class="st11" width="3.7" height="322.7"/>
	<rect x="347.8" y="-70.2" class="st11" width="3.7" height="322.7"/>
	<rect x="323.3" y="-70.2" class="st11" width="3.7" height="322.7"/>
	<rect x="339.6" y="-70.2" class="st11" width="3.7" height="322.7"/>
	<rect x="364.2" y="-70.2" class="st11" width="3.7" height="322.7"/>
	<rect x="405" y="-70.2" class="st11" width="3.7" height="322.7"/>
	<rect x="429.6" y="-70.2" class="st11" width="3.7" height="322.7"/>
	<rect x="421.4" y="-70.2" class="st11" width="3.7" height="322.7"/>
	<rect x="388.7" y="-70.2" class="st11" width="3.7" height="322.7"/>
	<rect x="396.9" y="-70.2" class="st11" width="3.7" height="322.7"/>
	<rect x="380.5" y="-70.2" class="st11" width="3.7" height="322.7"/>
	<rect x="372.3" y="-70.2" class="st11" width="3.7" height="322.7"/>
	<rect x="413.2" y="-70.2" class="st11" width="3.7" height="322.7"/>
	<rect x="437.7" y="-70.2" class="st11" width="3.7" height="322.7"/>
	<rect x="462.3" y="-70.2" class="st11" width="3.7" height="322.7"/>
	<rect x="454.1" y="-70.2" class="st11" width="3.7" height="322.7"/>
	<rect x="445.9" y="-70.2" class="st11" width="3.7" height="322.7"/>
</g>
<g>
	<defs>
		<path id="SVGID_15_" d="M111.5,112.3c0.6,0,1.2,0,1.8,0l0.5,0h0c11-0.3,21.4-4.7,29.1-12.4c7.7-7.7,12.2-18,12.6-29
			c0.1-1.4,0.2-2.8,0.2-4.2c0-3.2-0.4-6.4-1.1-9.5c-1.7-7.1-5.4-13.7-10.6-18.9c-5.6-5.6-12.7-9.4-20.4-11c-2.6-0.5-5.3-0.8-8-0.8
			H23.8V74v2.6V164h17h17h53.6h17.7h35.1L111.5,112.3z"/>
	</defs>
	<clipPath id="SVGID_16_">
		<use xlink:href="#SVGID_15_"  style="overflow:visible;"/>
	</clipPath>
	<rect x="21.8" y="-64.7" class="st12" width="3.7" height="322.7"/>
	<rect x="87.2" y="-64.7" class="st12" width="3.7" height="322.7"/>
	<rect x="54.5" y="-64.7" class="st12" width="3.7" height="322.7"/>
	<rect x="46.3" y="-64.7" class="st12" width="3.7" height="322.7"/>
	<rect x="70.8" y="-64.7" class="st12" width="3.7" height="322.7"/>
	<rect x="79" y="-64.7" class="st12" width="3.7" height="322.7"/>
	<rect x="62.6" y="-64.7" class="st12" width="3.7" height="322.7"/>
	<rect x="30" y="-64.7" class="st12" width="3.7" height="322.7"/>
	<rect x="38.1" y="-64.7" class="st12" width="3.7" height="322.7"/>
	<rect x="95.3" y="-64.7" class="st12" width="3.7" height="322.7"/>
	<rect x="136.2" y="-64.7" class="st12" width="3.7" height="322.7"/>
	<rect x="160.7" y="-64.7" class="st12" width="3.7" height="322.7"/>
	<rect x="152.6" y="-64.7" class="st12" width="3.7" height="322.7"/>
	<rect x="119.9" y="-64.7" class="st12" width="3.7" height="322.7"/>
	<rect x="128" y="-64.7" class="st12" width="3.7" height="322.7"/>
	<rect x="111.7" y="-64.7" class="st12" width="3.7" height="322.7"/>
	<rect x="103.5" y="-64.7" class="st12" width="3.7" height="322.7"/>
	<rect x="144.4" y="-64.7" class="st12" width="3.7" height="322.7"/>
</g>
<g>
	<defs>
		<polygon id="SVGID_17_" points="787.6,55.8 786.8,56.6 786.8,113.8 700.2,27.3 699.4,26.5 694.1,26.5 694.1,66.7 694.1,69.4 
			694.1,164 713.3,164 728.1,164 788.7,164 801.6,164 820.8,164 820.8,22.6 		"/>
	</defs>
	<clipPath id="SVGID_18_">
		<use xlink:href="#SVGID_17_"  style="overflow:visible;"/>
	</clipPath>
	<rect x="699.3" y="-70.2" class="st13" width="3.7" height="322.7"/>
	<rect x="723.8" y="-70.2" class="st13" width="3.7" height="322.7"/>
	<rect x="715.7" y="-70.2" class="st13" width="3.7" height="322.7"/>
	<rect x="691.1" y="-70.2" class="st13" width="3.7" height="322.7"/>
	<rect x="707.5" y="-70.2" class="st13" width="3.7" height="322.7"/>
	<rect x="732" y="-70.2" class="st13" width="3.7" height="322.7"/>
	<rect x="772.9" y="-70.2" class="st13" width="3.7" height="322.7"/>
	<rect x="797.4" y="-70.2" class="st13" width="3.7" height="322.7"/>
	<rect x="789.2" y="-70.2" class="st13" width="3.7" height="322.7"/>
	<rect x="756.5" y="-70.2" class="st13" width="3.7" height="322.7"/>
	<rect x="764.7" y="-70.2" class="st13" width="3.7" height="322.7"/>
	<rect x="748.4" y="-70.2" class="st13" width="3.7" height="322.7"/>
	<rect x="740.2" y="-70.2" class="st13" width="3.7" height="322.7"/>
	<rect x="781.1" y="-70.2" class="st13" width="3.7" height="322.7"/>
	<rect x="805.6" y="-70.2" class="st13" width="3.7" height="322.7"/>
	<rect x="821.9" y="-70.2" class="st13" width="3.7" height="322.7"/>
	<rect x="813.8" y="-70.2" class="st13" width="3.7" height="322.7"/>
</g>
<g>
	<defs>
		<polygon id="SVGID_19_" points="589,66 623.2,24.3 579.3,24.3 534.2,78.2 513,103.4 512.2,102.7 512.2,55 478.1,22.6 478.1,164 
			497.2,164 512.2,164 571.8,164 585.5,164 620,164 558.8,102.8 		"/>
	</defs>
	<clipPath id="SVGID_20_">
		<use xlink:href="#SVGID_19_"  style="overflow:visible;"/>
	</clipPath>
	<rect x="478.6" y="-70.2" class="st14" width="3.7" height="322.7"/>
	<rect x="503.1" y="-70.2" class="st14" width="3.7" height="322.7"/>
	<rect x="494.9" y="-70.2" class="st14" width="3.7" height="322.7"/>
	<rect x="470.4" y="-70.2" class="st14" width="3.7" height="322.7"/>
	<rect x="486.8" y="-70.2" class="st14" width="3.7" height="322.7"/>
	<rect x="511.3" y="-70.2" class="st14" width="3.7" height="322.7"/>
	<rect x="552.2" y="-70.2" class="st14" width="3.7" height="322.7"/>
	<rect x="576.7" y="-70.2" class="st14" width="3.7" height="322.7"/>
	<rect x="568.5" y="-70.2" class="st14" width="3.7" height="322.7"/>
	<rect x="535.8" y="-70.2" class="st14" width="3.7" height="322.7"/>
	<rect x="544" y="-70.2" class="st14" width="3.7" height="322.7"/>
	<rect x="527.6" y="-70.2" class="st14" width="3.7" height="322.7"/>
	<rect x="519.5" y="-70.2" class="st14" width="3.7" height="322.7"/>
	<rect x="560.3" y="-70.2" class="st14" width="3.7" height="322.7"/>
	<rect x="584.9" y="-70.2" class="st14" width="3.7" height="322.7"/>
	<rect x="625.7" y="-70.2" class="st14" width="3.7" height="322.7"/>
	<rect x="609.4" y="-70.2" class="st14" width="3.7" height="322.7"/>
	<rect x="617.6" y="-70.2" class="st14" width="3.7" height="322.7"/>
	<rect x="601.2" y="-70.2" class="st14" width="3.7" height="322.7"/>
	<rect x="593" y="-70.2" class="st14" width="3.7" height="322.7"/>
</g>
<g>
	<defs>
		<path id="SVGID_21_" d="M915.5,107.1c-6.3,0-11.5-5.2-11.5-11.5v-0.9c0-6.3,5.2-11.5,11.5-11.5h59.7l-0.7-3.1
			c-3.8-16.9-13.7-31.7-28.1-41.6c-11.5-7.9-25-12.1-39-12.1c-20.3,0-39.4,8.9-52.5,24.4c0,0-7.4,8-10.5,17c0,0,0,0.1,0,0.1
			c-3.7,8.6-5.7,17.8-5.7,27.3c0,18.4,7.2,35.6,20.1,48.6c13,13,30.3,20.1,48.6,20.1c12.3,0,24.2-3.2,34.7-9.4v9.1h34.1v-56.6H915.5
			z"/>
	</defs>
	<clipPath id="SVGID_22_">
		<use xlink:href="#SVGID_21_"  style="overflow:visible;"/>
	</clipPath>
	<g class="st15">
		<rect x="830.2" y="-68.3" class="st16" width="3.7" height="322.7"/>
		<rect x="854.7" y="-68.3" class="st16" width="3.7" height="322.7"/>
		<rect x="846.5" y="-68.3" class="st16" width="3.7" height="322.7"/>
		<rect x="822" y="-68.3" class="st16" width="3.7" height="322.7"/>
		<rect x="838.4" y="-68.3" class="st16" width="3.7" height="322.7"/>
		<rect x="862.9" y="-68.3" class="st16" width="3.7" height="322.7"/>
		<rect x="911.9" y="-68.3" class="st16" width="3.7" height="322.7"/>
		<rect x="936.5" y="-68.3" class="st16" width="3.7" height="322.7"/>
		<rect x="928.3" y="-68.3" class="st16" width="3.7" height="322.7"/>
		<rect x="895.6" y="-68.3" class="st16" width="3.7" height="322.7"/>
		<rect x="903.8" y="-68.3" class="st16" width="3.7" height="322.7"/>
		<rect x="879.2" y="-68.3" class="st16" width="3.7" height="322.7"/>
		<rect x="871.1" y="-68.3" class="st16" width="3.7" height="322.7"/>
		<rect x="920.1" y="-68.3" class="st16" width="3.7" height="322.7"/>
		<rect x="887.4" y="-68.3" class="st16" width="3.7" height="322.7"/>
		<rect x="977.3" y="-68.3" class="st16" width="3.7" height="322.7"/>
		<rect x="985.5" y="-68.3" class="st16" width="3.7" height="322.7"/>
		<rect x="1001.9" y="-68.3" class="st16" width="3.7" height="322.7"/>
		<rect x="961" y="-68.3" class="st16" width="3.7" height="322.7"/>
		<rect x="969.2" y="-68.3" class="st16" width="3.7" height="322.7"/>
		<rect x="952.8" y="-68.3" class="st16" width="3.7" height="322.7"/>
		<rect x="944.6" y="-68.3" class="st16" width="3.7" height="322.7"/>
		<rect x="993.7" y="-68.3" class="st16" width="3.7" height="322.7"/>
	</g>
</g>
</svg>
