<?xml version="1.0" encoding="utf-8"?>
<!-- Generator: Adobe Illustrator 24.0.2, SVG Export Plug-In . SVG Version: 6.00 Build 0)  -->
<svg version="1.1" id="Capa_1" xmlns="http://www.w3.org/2000/svg" xmlns:xlink="http://www.w3.org/1999/xlink" x="0px" y="0px"
	 viewBox="0 0 100 100" style="enable-background:new 0 0 100 100;" xml:space="preserve">
<style type="text/css">
	.st0{fill:#262626;}
</style>
<g>
	<g>
		<path class="st0" d="M67.4,52.4v25.7c0,0.3-0.2,0.5-0.5,0.5H35.8c-0.3,0-0.5-0.2-0.5-0.5v-6.5H33v6.5c0,1.5,1.3,2.8,2.8,2.8
			l31.1,0c1.5,0,2.8-1.3,2.8-2.8V52.4H67.4z"/>
		<path class="st0" d="M66.9,16.2H35.8c-1.5,0-2.8,1.3-2.8,2.8v15h2.3V19c0-0.3,0.2-0.5,0.5-0.5l31.1,0c0.3,0,0.5,0.2,0.5,0.5v9.2
			h2.3V19C69.7,17.4,68.4,16.2,66.9,16.2z"/>
		<g>
			<rect x="45.1" y="24.1" class="st0" width="2.5" height="2.3"/>
			<rect x="42.2" y="24.1" class="st0" width="2.5" height="2.3"/>
			<rect x="39.3" y="24.1" class="st0" width="2.5" height="2.3"/>
			<rect x="33.6" y="24.1" class="st0" width="2.5" height="2.3"/>
			<rect x="36.4" y="24.1" class="st0" width="2.5" height="2.3"/>
			<rect x="47.9" y="24.1" class="st0" width="2.5" height="2.3"/>
			<rect x="53.7" y="24.1" class="st0" width="2.5" height="2.3"/>
			<rect x="65.2" y="24.1" class="st0" width="2.5" height="2.3"/>
			<rect x="50.8" y="24.1" class="st0" width="2.5" height="2.3"/>
			<rect x="62.3" y="24.1" class="st0" width="2.5" height="2.3"/>
			<rect x="59.5" y="24.1" class="st0" width="2.5" height="2.3"/>
			<rect x="56.6" y="24.1" class="st0" width="2.5" height="2.3"/>
		</g>
		<path class="st0" d="M68.5,70.9H34.1c-0.6,0-1.1,0.5-1.1,1.1c0,0.6,0.5,1.1,1.1,1.1h34.5c0.6,0,1.1-0.5,1.1-1.1
			C69.7,71.4,69.2,70.9,68.5,70.9z"/>
		<rect x="44.4" y="20.5" class="st0" width="13.9" height="2.3"/>
		<path class="st0" d="M53.5,36.5h-36c-1.5,0-2.8,1.3-2.8,2.8v27.1c0,1.5,1.3,2.8,2.8,2.8h36c1.5,0,2.8-1.3,2.8-2.8V39.3
			C56.3,37.7,55.1,36.5,53.5,36.5z M54.1,39.3v27.1c0,0.3-0.2,0.5-0.5,0.5h-36c-0.3,0-0.5-0.2-0.5-0.5V39.3c0-0.3,0.2-0.5,0.5-0.5
			h36C53.8,38.7,54.1,39,54.1,39.3z"/>
		<g>
			<path class="st0" d="M38,41.8c-5.2,0-9.4,4.2-9.4,9.4c0,5.2,4.2,9.4,9.4,9.4c5.2,0,9.4-4.2,9.4-9.4C47.3,46,43.1,41.8,38,41.8z
				 M45.1,51.2c0,3.9-3.2,7.1-7.1,7.1c-3.9,0-7.1-3.2-7.1-7.1c0-3.9,3.2-7.1,7.1-7.1C41.9,44.1,45.1,47.3,45.1,51.2z"/>
			<path class="st0" d="M34.4,45.5v11.4l9.8-5.7L34.4,45.5z M39.7,51.1l-3,1.8v-3.5L39.7,51.1z"/>
		</g>
		<g>
			<rect x="24" y="63.3" class="st0" width="2.5" height="2.3"/>
			<rect x="29.8" y="63.3" class="st0" width="2.5" height="2.3"/>
			<rect x="26.9" y="63.3" class="st0" width="2.5" height="2.3"/>
			<rect x="15.4" y="63.3" class="st0" width="2.5" height="2.3"/>
			<rect x="21.1" y="63.3" class="st0" width="2.5" height="2.3"/>
			<rect x="18.3" y="63.3" class="st0" width="2.5" height="2.3"/>
			<rect x="32.7" y="63.3" class="st0" width="2.5" height="2.3"/>
			<rect x="47.1" y="63.3" class="st0" width="2.5" height="2.3"/>
			<rect x="49.9" y="63.3" class="st0" width="2.5" height="2.3"/>
			<rect x="52.8" y="63.3" class="st0" width="2.5" height="2.3"/>
			<rect x="38.4" y="63.3" class="st0" width="2.5" height="2.3"/>
			<rect x="35.5" y="63.3" class="st0" width="2.5" height="2.3"/>
			<rect x="44.2" y="63.3" class="st0" width="2.5" height="2.3"/>
			<rect x="41.3" y="63.3" class="st0" width="2.5" height="2.3"/>
		</g>
		<path class="st0" d="M74.7,34.3L74.7,34.3l-0.5,0l-0.5,0v0c-1,0.1-1.8,0.6-2.4,1.1c-0.7-0.6-1.6-1.1-2.9-1.1
			c-1.8,0-3.7,1.5-3.7,3.9c0,1.2,0.6,2.5,1.7,3.6l4.9,4.9l4.9-4.9c1.1-1.1,1.7-2.4,1.7-3.6C77.8,36,76.3,34.5,74.7,34.3z M74.6,40.1
			l-3.3,3.3l-3.3-3.3c-0.7-0.7-1-1.4-1-2c0-0.6,0.3-0.9,0.5-1.2c0.3-0.3,0.7-0.5,1-0.5c0,0,0,0,0,0c0.5,0,1,0.2,1.4,0.6
			c0.2,0.2,0.3,0.3,0.4,0.4l1.1,1.6l1-1.5c0,0,0-0.1,0.1-0.1c0.1-0.2,0.8-0.9,1.7-1l0.1,0l0,0c0.2,0,0.6,0.2,0.9,0.5
			c0.2,0.2,0.5,0.6,0.5,1.2C75.6,38.7,75.3,39.4,74.6,40.1z"/>
		<g>
			<path class="st0" d="M76.9,50.8v-2.1H79l0,1.9l0,0.2L76.9,50.8z M75.8,50.8h-2.1v-2.1h2.1V50.8z M72.7,50.8h-2.1v-2.1h2.1V50.8z
				 M69.5,50.8h-2.1v-2.1h2.1V50.8z M66.4,50.8h-2.1v-2.1h2.1V50.8z M63.2,50.8c-0.9-0.1-1.8-0.4-2.5-1.1l1.4-1.6
				c0.4,0.3,0.8,0.5,1.3,0.5L63.2,50.8z M80.4,50.5l-0.7-2c0.4-0.2,0.8-0.5,1.1-0.9l1.8,1.2C82,49.6,81.3,50.2,80.4,50.5z
				 M59.8,48.6c-0.4-0.6-0.6-1.4-0.6-2.1v-0.4h2.1v0.4c0,0.4,0.1,0.7,0.3,1L59.8,48.6z M83.1,47.6L81,47.1c0-0.2,0.1-0.3,0.1-0.5
				v-1.3h2.1v1.3C83.2,46.9,83.2,47.2,83.1,47.6z M61.3,45h-2.1v-2.1h2.1V45z M83.2,44.2h-2.1v-2.1h2.1V44.2z M61.3,41.9h-2.1v-2.1
				h2.1V41.9z M83.2,41h-2.1v-2.1h2.1V41z M61.3,38.8h-2.1v-2.1h2.1V38.8z M83.2,37.9h-2.1v-2.1h2.1V37.9z M61.3,35.6h-2.1v-1.3
				c0-0.4,0-0.7,0.1-1.1l2.1,0.5c0,0.2-0.1,0.3-0.1,0.5V35.6z M83.2,34.8h-2.1v-0.4c0-0.4-0.1-0.7-0.3-1.1l1.8-1.1
				c0.4,0.6,0.6,1.4,0.6,2.1V34.8z M61.7,33.2L59.9,32c0.5-0.8,1.3-1.4,2.2-1.7l0.7,2C62.3,32.5,62,32.8,61.7,33.2z M80.4,32.7
				c-0.4-0.3-0.8-0.5-1.3-0.5l0.1-2.1c0.9,0.1,1.8,0.4,2.5,1.1L80.4,32.7z M78.1,32.2H76v-2.1h2.1V32.2z M75,32.2h-2.1v-2.1H75V32.2
				z M71.8,32.2h-2.1v-2.1h2.1V32.2z M68.7,32.2h-2.1v-2.1h2.1V32.2z M65.6,32.2l-2.2,0l0.1-0.9l0-1.2l0,0h2.1V32.2z"/>
		</g>
		<path class="st0" d="M79,22.7c0-1.8-1.4-3.2-3.2-3.2s-3.2,1.4-3.2,3.2c0,1.8,1.4,3.2,3.2,3.2S79,24.5,79,22.7z M75.8,23.8
			c-0.6,0-1.1-0.5-1.1-1.1c0-0.6,0.5-1.1,1.1-1.1s1.1,0.5,1.1,1.1C76.9,23.3,76.4,23.8,75.8,23.8z"/>
		
			<rect x="73.5" y="56.9" transform="matrix(0.3089 -0.9511 0.9511 0.3089 -4.0687 111.3939)" class="st0" width="2.1" height="3.2"/>
		<rect x="74.2" y="61" transform="matrix(0.5878 -0.809 0.809 0.5878 -18.9895 86.894)" class="st0" width="3.2" height="2.1"/>
		
			<rect x="78.5" y="60.5" transform="matrix(0.8091 -0.5876 0.5876 0.8091 -21.2979 58.5979)" class="st0" width="2.1" height="3.2"/>
		<rect x="79.1" y="57.4" transform="matrix(0.951 -0.3091 0.3091 0.951 -14.1275 27.8101)" class="st0" width="3.2" height="2.1"/>
		<rect x="76.6" y="54.7" class="st0" width="2.1" height="3.2"/>
		<rect x="15" y="26.8" class="st0" width="3.2" height="2.1"/>
		<rect x="22.5" y="26.8" class="st0" width="6.4" height="2.1"/>
		<rect x="19.3" y="22.6" class="st0" width="2.1" height="3.2"/>
		<rect x="19.3" y="30" class="st0" width="2.1" height="3.2"/>
		<rect x="22.3" y="72.1" class="st0" width="2.1" height="2.1"/>
		<rect x="26.6" y="72.1" class="st0" width="2.1" height="2.1"/>
		<rect x="24.5" y="74.3" class="st0" width="2.1" height="2.1"/>
		<rect x="71.1" y="72.5" class="st0" width="3.2" height="2.1"/>
		<rect x="78.6" y="72.5" class="st0" width="3.2" height="2.1"/>
		<rect x="75.4" y="68.3" class="st0" width="2.1" height="3.2"/>
		<rect x="75.4" y="75.8" class="st0" width="2.1" height="3.2"/>
	</g>
	<rect x="18.6" y="41.5" class="st0" width="7.1" height="2.3"/>
	<rect x="18.6" y="45.3" class="st0" width="7.1" height="2.3"/>
	<rect x="18.6" y="49.2" class="st0" width="7.1" height="2.3"/>
	<rect x="18.6" y="53" class="st0" width="7.1" height="2.3"/>
	<rect x="37.8" y="27.9" class="st0" width="16.4" height="2.3"/>
	<rect x="37.8" y="32.2" class="st0" width="16.4" height="2.3"/>
</g>
</svg>
