<?xml version="1.0" encoding="utf-8"?>
<!-- Generator: Adobe Illustrator 24.0.2, SVG Export Plug-In . SVG Version: 6.00 Build 0)  -->
<svg version="1.1" id="Capa_1" xmlns="http://www.w3.org/2000/svg" xmlns:xlink="http://www.w3.org/1999/xlink" x="0px" y="0px"
	 viewBox="0 0 100 100" style="enable-background:new 0 0 100 100;" xml:space="preserve">
<style type="text/css">
	.st0{fill:#262626;}
</style>
<g>
	<g>
		<g>
			<path class="st0" d="M51,24c0.6,0,1,0.4,1,1h2c0-1.3-0.8-2.4-2-2.8v-0.7h-2v0.7c-1.2,0.4-2,1.5-2,2.8c0,1.6,1.3,2.3,2.3,2.8
				l0.5,0.2c1,0.5,1.2,0.7,1.2,1c0,0.6-0.4,1-1,1c-0.6,0-1-0.4-1-1h-2c0,1.3,0.8,2.4,2,2.8v0.7h2v-0.7c1.2-0.4,2-1.5,2-2.8
				c0-1.6-1.3-2.3-2.3-2.8L51.2,26c-1-0.5-1.2-0.7-1.2-1C50,24.4,50.4,24,51,24z"/>
			<path class="st0" d="M51,18c-5,0-9,4-9,9s4,9,9,9s9-4,9-9S56,18,51,18z M51,34c-3.9,0-7-3.1-7-7s3.1-7,7-7s7,3.1,7,7
				S54.9,34,51,34z"/>
			<rect x="55" y="26" class="st0" width="2" height="2"/>
			<rect x="45" y="26" class="st0" width="2" height="2"/>
		</g>
		<g>
			<path class="st0" d="M29,30c0.6,0,1,0.4,1,1h2c0-1.3-0.8-2.4-2-2.8v-0.7h-2v0.7c-1.2,0.4-2,1.5-2,2.8c0,1.6,1.3,2.3,2.3,2.8
				l0.5,0.2c1,0.5,1.2,0.7,1.2,1c0,0.6-0.4,1-1,1c-0.6,0-1-0.4-1-1h-2c0,1.3,0.8,2.4,2,2.8v0.7h2v-0.7c1.2-0.4,2-1.5,2-2.8
				c0-1.6-1.3-2.3-2.3-2.8L29.2,32c-1-0.5-1.2-0.7-1.2-1C28,30.4,28.4,30,29,30z"/>
			<path class="st0" d="M29,25c-4.4,0-8,3.6-8,8s3.6,8,8,8s8-3.6,8-8S33.4,25,29,25z M29,39c-3.3,0-6-2.7-6-6s2.7-6,6-6s6,2.7,6,6
				S32.3,39,29,39z"/>
		</g>
		<g>
			<path class="st0" d="M71,24.6c0.4,0,0.7,0.3,0.7,0.7h2c0-1.1-0.7-2.1-1.7-2.5v-0.5h-2v0.5c-1,0.4-1.7,1.4-1.7,2.5
				c0,1.5,1.2,2.1,2.1,2.5l0.4,0.2c0.8,0.4,0.9,0.5,0.9,0.7c0,0.4-0.3,0.7-0.7,0.7c-0.4,0-0.7-0.3-0.7-0.7h-2c0,1.1,0.7,2.1,1.7,2.5
				v0.5h2v-0.5c1-0.4,1.7-1.4,1.7-2.5c0-1.5-1.2-2.1-2.1-2.5L71.2,26c-0.8-0.4-1-0.5-1-0.7C70.3,24.9,70.6,24.6,71,24.6z"/>
			<path class="st0" d="M71,20c-3.9,0-7,3.1-7,7s3.1,7,7,7s7-3.1,7-7S74.9,20,71,20z M71,32c-2.8,0-5-2.2-5-5c0-2.8,2.2-5,5-5
				s5,2.2,5,5C76,29.8,73.8,32,71,32z"/>
		</g>
	</g>
	<g>
		<g>
			<path class="st0" d="M36.5,25c-1.4,0-2.5-1.1-2.5-2.5s1.1-2.5,2.5-2.5s2.5,1.1,2.5,2.5S37.9,25,36.5,25z M36.5,22
				c-0.3,0-0.5,0.2-0.5,0.5s0.2,0.5,0.5,0.5c0.3,0,0.5-0.2,0.5-0.5S36.8,22,36.5,22z"/>
		</g>
		<g>
			<path class="st0" d="M79.5,23c-1.4,0-2.5-1.1-2.5-2.5s1.1-2.5,2.5-2.5s2.5,1.1,2.5,2.5S80.9,23,79.5,23z M79.5,20
				c-0.3,0-0.5,0.2-0.5,0.5s0.2,0.5,0.5,0.5s0.5-0.2,0.5-0.5S79.8,20,79.5,20z"/>
		</g>
		<g>
			<path class="st0" d="M41,41c-1.7,0-3-1.3-3-3s1.3-3,3-3c1.7,0,3,1.3,3,3S42.7,41,41,41z M41,37c-0.6,0-1,0.4-1,1s0.4,1,1,1
				c0.6,0,1-0.4,1-1S41.6,37,41,37z"/>
		</g>
		<g>
			<path class="st0" d="M21,24c-1.7,0-3-1.3-3-3s1.3-3,3-3c1.7,0,3,1.3,3,3S22.7,24,21,24z M21,20c-0.6,0-1,0.4-1,1s0.4,1,1,1
				c0.6,0,1-0.4,1-1S21.6,20,21,20z"/>
		</g>
		<g>
			<path class="st0" d="M62,38c-1.7,0-3-1.3-3-3s1.3-3,3-3c1.7,0,3,1.3,3,3S63.7,38,62,38z M62,34c-0.6,0-1,0.4-1,1s0.4,1,1,1
				c0.6,0,1-0.4,1-1S62.6,34,62,34z"/>
		</g>
		<g>
			<g>
				<rect x="69.9" y="71.1" transform="matrix(0.3089 -0.9511 0.9511 0.3089 -20.048 117.5551)" class="st0" width="2" height="3"/>
			</g>
			<g>
				<rect x="70.5" y="74.9" transform="matrix(0.5878 -0.809 0.809 0.5878 -31.7654 89.508)" class="st0" width="3" height="2"/>
			</g>
			<g>
				<rect x="74.5" y="74.4" transform="matrix(0.809 -0.5878 0.5878 0.809 -30.2131 58.8699)" class="st0" width="2" height="3"/>
			</g>
			<g>
				<rect x="75.1" y="71.6" transform="matrix(0.951 -0.3091 0.3091 0.951 -18.6807 27.2192)" class="st0" width="3" height="2"/>
			</g>
			<g>
				<rect x="72.7" y="69" class="st0" width="2" height="3"/>
			</g>
		</g>
		<g>
			<g>
				
					<rect x="24.2" y="59.3" transform="matrix(0.3094 -0.9509 0.9509 0.3094 -40.0311 65.6515)" class="st0" width="2" height="2.3"/>
			</g>
			<g>
				<rect x="24.9" y="61.9" transform="matrix(0.5878 -0.809 0.809 0.5878 -40.1798 46.9705)" class="st0" width="2.3" height="2"/>
			</g>
			<g>
				
					<rect x="27.7" y="61.8" transform="matrix(0.8091 -0.5877 0.5877 0.8091 -31.5039 28.8604)" class="st0" width="2" height="2.3"/>
			</g>
			<g>
				<rect x="28.4" y="59.4" transform="matrix(0.9511 -0.309 0.309 0.9511 -17.2174 12.0678)" class="st0" width="2.3" height="2"/>
			</g>
			<g>
				<rect x="26.3" y="57.7" class="st0" width="2" height="2.3"/>
			</g>
		</g>
		<g>
			<g>
				<rect x="18" y="76" class="st0" width="3" height="2"/>
			</g>
			<g>
				<rect x="25" y="76" class="st0" width="6" height="2"/>
			</g>
			<g>
				<rect x="22" y="72" class="st0" width="2" height="3"/>
			</g>
			<g>
				<rect x="22" y="79" class="st0" width="2" height="3"/>
			</g>
		</g>
		<g>
			<g>
				<rect x="74" y="55" class="st0" width="2" height="2"/>
			</g>
			<g>
				<rect x="78" y="55" class="st0" width="2" height="2"/>
			</g>
			<g>
				<rect x="76" y="53" class="st0" width="2" height="2"/>
			</g>
			<g>
				<rect x="76" y="57" class="st0" width="2" height="2"/>
			</g>
		</g>
		<g>
			<g>
				<rect x="62" y="79" class="st0" width="2" height="2"/>
			</g>
			<g>
				<rect x="66" y="79" class="st0" width="2" height="2"/>
			</g>
			<g>
				<rect x="70" y="79" class="st0" width="2" height="2"/>
			</g>
		</g>
		<g>
			<rect x="70" y="64" class="st0" width="5" height="2"/>
		</g>
		<g>
			<rect x="75" y="61" class="st0" width="6" height="2"/>
		</g>
		<g>
			<g>
				<rect x="31" y="68" class="st0" width="3" height="2"/>
			</g>
			<g>
				<rect x="34" y="71" class="st0" width="4" height="2"/>
			</g>
		</g>
	</g>
	<path class="st0" d="M52,58.1L52,58.1L51,58h-1v0.1c-3.9,0.5-7,3.9-7,7.9v2v4.1c0,5.5,3.6,9.9,8,9.9s8-4.4,8-9.9V68v-2
		C59,61.9,55.9,58.6,52,58.1z M57,66h-5v-5.9C54.8,60.6,57,63,57,66z M50,60.1V66h-5C45,63,47.2,60.6,50,60.1z M57,72.1
		c0,4.4-2.7,7.9-6,7.9s-6-3.5-6-7.9V68h5h2h5V72.1z"/>
	<path class="st0" d="M79,39H52v-2h-2v2v1v1h29c0.6,0,1,0.4,1,1s-0.4,1-1,1H21c-1.7,0-3,1.3-3,3s1.3,3,3,3h48c0.6,0,1,0.4,1,1
		s-0.4,1-1,1H34c-1.7,0-3,1.3-3,3s1.3,3,3,3h16v2h2v-2v-1v-1H34c-0.6,0-1-0.4-1-1s0.4-1,1-1h35c1.7,0,3-1.3,3-3s-1.3-3-3-3H21
		c-0.6,0-1-0.4-1-1s0.4-1,1-1h58c1.7,0,3-1.3,3-3S80.7,39,79,39z"/>
	<g>
		<g>
			<rect x="60.1" y="61.4" transform="matrix(0.954 -0.2998 0.2998 0.954 -15.8117 21.6377)" class="st0" width="5" height="2"/>
		</g>
		<g>
			<rect x="58.3" y="57.8" transform="matrix(0.7937 -0.6082 0.6082 0.7937 -23.235 49.094)" class="st0" width="5" height="2"/>
		</g>
		<g>
			<rect x="55.3" y="55.1" transform="matrix(0.5376 -0.8432 0.8432 0.5376 -20.5687 74.7088)" class="st0" width="5" height="2"/>
		</g>
	</g>
</g>
</svg>
