<?xml version="1.0" encoding="utf-8"?>
<!-- Generator: Adobe Illustrator 24.0.2, SVG Export Plug-In . SVG Version: 6.00 Build 0)  -->
<svg version="1.1" id="Capa_1" xmlns="http://www.w3.org/2000/svg" xmlns:xlink="http://www.w3.org/1999/xlink" x="0px" y="0px"
	 viewBox="0 0 300 100" style="enable-background:new 0 0 300 100;" xml:space="preserve">
<style type="text/css">
	.st0{fill:#FBFCFE;}
	.st1{fill:#EAF2FD;}
</style>
<g>
	<path class="st0" d="M51.8,65.4c0-1.9,0.1-3.9,0-5.8c-0.1-1.6,0.3-2.3,2-2.2c1.1,0.1,2.8,0.6,3.3-0.4c0.7-1.7,0.7-3.6,0.9-5.5
		c0.1-0.5-0.3-0.7-0.8-0.7c-0.5,0-0.9,0-1.4,0c-4-0.1-5.1-1.5-3.9-5.5c0.6-2.2,2.3-2.5,4.3-2.4c1.4,0.1,2.6-0.1,2.2-1.9
		c-0.3-1.5,1.3-4.1-2.1-4c-0.9,0-1.7-0.1-2.6-0.1c-5.7-0.1-8.9,3-9,8.7c0,0.2,0,0.5,0,0.7c-0.1,4.3-0.1,4.3-4.4,4.6
		c-1,0.1-1.7,0.3-1.5,1.5c0,0.3,0,0.6,0,0.9c0,4.2,0,4.2,4.1,4.2c1.4,0,1.9,0.3,1.9,1.8c-0.1,4.2-0.1,8.4,0,12.6
		c0,1.4-0.4,1.7-1.8,1.3C32.4,70.9,24.8,61,25.1,50.1C25.5,39,33.8,29.6,44.7,28c12.3-1.8,23.6,6.1,26.1,18.1
		c2.5,12-4.8,23.8-16.7,27c-2,0.5-2.5,0.1-2.3-1.8C51.9,69.3,51.8,67.4,51.8,65.4z"/>
	<g>
		<path class="st1" d="M146.4,50.4c0-2.5-0.1-5,0-7.5c0-1-0.7-2.7,1.3-2.7c2.3-0.1,1.2,1.8,1.5,2.8c0.1,0.3,0,0.6,0,0.9
			c-0.2,1.9,0.1,2.8,2.4,1.8c3.2-1.4,6.7-0.3,8.5,2.3c1.9,2.7,2,7.1,0.1,9.9c-1.8,2.6-5.2,3.7-8.5,2.7c-0.8-0.2-1.8-1-2.2-0.7
			c-3.8,2.3-3.1-0.7-3.1-2.6C146.4,55,146.4,52.7,146.4,50.4z M158.9,53.2c0-3.3-1.9-5.6-4.8-5.7c-2.9-0.1-5,2.2-5,5.5
			c0,3.2,2,5.7,4.8,5.8C156.7,58.8,158.8,56.4,158.9,53.2z"/>
		<path class="st1" d="M252.2,50.5c0,2.8,0,5.6,0,8.4c0,1.2-0.5,2.4-1.6,1.7c-1.8-1.3-3-0.1-4.5,0.2c-3.1,0.7-6.2-0.5-7.8-3
			c-1.7-2.7-1.6-7.1,0.2-9.6c1.6-2.3,5.2-3.7,8-2.6c2.6,1.1,3.3,0.4,3-2.2c-0.1-0.5,0-1,0-1.5c0-0.9,0.1-1.6,1.2-1.6
			c1.2,0,1.5,0.6,1.5,1.6C252.1,44.7,252.2,47.6,252.2,50.5z M249.5,53.1c0-3.3-2-5.6-4.9-5.6c-2.8,0-4.9,2.4-4.9,5.6
			c0,3.2,2.1,5.6,4.9,5.6C247.5,58.7,249.5,56.4,249.5,53.1z"/>
		<path class="st1" d="M234.4,53.3c0,1.9-0.1,3.8,0,5.7c0.1,1.5-0.9,2.3-1.9,1.6c-1.4-1.1-2.3-0.3-3.4,0.1c-3,1-6.4,0-8.3-2.5
			c-2-2.6-2-7.1-0.2-9.9c1.7-2.5,5.2-3.7,8.2-2.8c1.3,0.4,2.3,1,3.8,0.2c1-0.6,1.8,0.4,1.8,1.6C234.4,49.3,234.4,51.3,234.4,53.3z
			 M226.9,58.7c2.8,0,5-2.4,5-5.6c0-3.2-2.1-5.6-4.9-5.6c-2.8,0-5,2.4-5,5.6C221.9,56.2,224.1,58.7,226.9,58.7z"/>
		<path class="st1" d="M111,53.2c0,2,0,4,0,6c0,1.2-0.8,1.9-1.6,1.3c-1.5-1.2-2.7-0.3-4,0.1c-3,0.9-6.3-0.2-8-2.7
			c-1.9-2.7-1.9-7.2,0-9.9c1.7-2.4,5.3-3.5,8.3-2.6c0.6,0.2,1.2,0.8,1.6,0.6c5.4-2,3.3,2.3,3.7,4.4C111.1,51.4,111,52.3,111,53.2
			C111,53.2,111,53.2,111,53.2z M108.5,53.1c0-3.2-2.1-5.6-4.9-5.6c-2.8,0-4.9,2.4-4.9,5.6c0,3.2,2.1,5.6,4.9,5.6
			C106.4,58.7,108.5,56.3,108.5,53.1z"/>
		<path class="st1" d="M210.1,45.8c-0.2,0.4-0.3,0.6-0.4,0.7c-4.3,5-4.3,5-0.3,10.3c0.8,1.1,1.7,2.2,2.7,3.5
			c-1.9,0.8-3.1,0.4-4.1-1.1c-0.9-1.3-1.9-2.6-2.9-3.8c-0.5-0.7-0.9-1.9-1.9-1.6c-1.1,0.3-2,1.4-2.2,2.6c-0.2,1-0.1,2-0.1,3
			c0,1-0.5,1.4-1.5,1.4c-0.9,0-1.2-0.4-1.2-1.3c0-6,0-12,0-17.9c0-0.9,0.4-1.2,1.3-1.2c1,0,1.4,0.4,1.4,1.4c0,2.3,0,4.6,0,6.9
			c0,0.8-0.4,2,0.5,2.5c1,0.5,1.4-0.8,2-1.4c0.9-0.8,1.7-1.7,2.4-2.6C207,45.6,208.3,45.3,210.1,45.8z"/>
		<path class="st1" d="M136.7,61c-3.4,0-6-1.6-7.1-4.4c-1.3-3.3-0.4-7.4,2.1-9.6c2.3-2,5.9-2.4,8.7-0.9c1.4,0.7,2.4,1.8,2.9,3.2
			c1.4,3.4,0.8,4.2-2.8,4.3c-2.2,0-4.4,0.1-6.6,0c-2.5-0.1-2.4,1.1-1.5,2.8c1.5,2.6,4.6,3.2,7.2,1.4c1-0.7,2-1.9,2.9-0.3
			c0.8,1.3-0.8,1.8-1.6,2.4C139.7,60.7,138.2,60.9,136.7,61z M136.6,51.3c0.8,0,1.6,0,2.4,0c0.7,0,1.6,0.2,1.9-0.5
			c0.3-0.8-0.3-1.6-0.9-2.1c-1.8-1.6-3.8-1.6-5.8-0.6c-1.1,0.5-2.3,1.4-2,2.6c0.3,1.1,1.7,0.4,2.7,0.6
			C135.3,51.4,136,51.3,136.6,51.3z"/>
		<path class="st1" d="M82,50.3c0-2.8,0-5.6,0-8.4c0-1.2,0.4-1.8,1.7-1.8c3.5,0.1,7,0,10.5,0c0.6,0,1.5-0.2,1.6,0.8
			c0.1,1.1-0.7,1.3-1.6,1.3c-2.5,0-5,0-7.5,0c-2.9,0-1.9,2.2-2,3.7c-0.1,1.5-0.3,3.1,2.1,2.9c1.8-0.1,3.6,0,5.4,0
			c0.7,0,1.4,0.1,1.4,1.1c0,1-0.7,1.1-1.4,1.1c-0.5,0-1,0-1.5,0c-6,0-6,0-6,6.2c0,0.6,0,1.2,0,1.8c0,0.9-0.1,1.5-1.2,1.6
			C82.1,60.7,82,60,82,59C82,56.1,82,53.2,82,50.3z"/>
		<path class="st1" d="M171,61c-4.4,0.1-7.7-3.2-7.8-7.7c-0.1-4.6,3-7.9,7.4-8.1c4.5-0.2,7.9,3.2,7.9,7.9
			C178.6,57.7,175.5,60.9,171,61z M171,47.5c-2.9,0-5,2.3-5.1,5.5c0,3.2,2.1,5.7,4.9,5.7c2.8,0.1,5.1-2.4,5.1-5.5
			C176,50,173.8,47.5,171,47.5z"/>
		<path class="st1" d="M180.3,53c0-4.5,3.2-7.8,7.6-7.9c4.5-0.1,7.8,3.3,7.7,8c0,4.6-3.1,7.8-7.5,7.9C183.5,61,180.3,57.7,180.3,53z
			 M192.9,53.2c0-3.2-2-5.6-4.8-5.7c-2.9-0.1-5.2,2.4-5.2,5.6c0,3,2.3,5.6,5,5.6C190.7,58.7,192.9,56.3,192.9,53.2z"/>
		<path class="st1" d="M261,61c-2.1-0.1-3.9-0.5-5.3-1.9c-0.5-0.5-1.5-1.1-0.6-1.9c0.7-0.6,1.5-0.9,2.3,0c1.3,1.5,3,1.9,4.9,1.4
			c1.1-0.3,2.1-0.9,2-2.2c0-1.3-1.1-1.6-2-1.9c-1.4-0.4-2.9-0.6-4.3-1.1c-1.8-0.6-2.8-1.8-2.8-3.8c0-2,1.1-3.1,2.8-3.8
			c2.6-1,5.1-0.7,7.4,0.9c0.5,0.3,1.3,0.8,0.6,1.6c-0.5,0.5-1,1-1.8,0.4c-1.3-1-2.8-1.5-4.5-1c-0.9,0.2-1.7,0.7-1.8,1.7
			c-0.1,1.1,0.6,1.6,1.5,1.9c1.1,0.3,2.3,0.6,3.5,0.9c2.3,0.5,4.2,1.4,4.2,4.2c0,2.3-1.8,4.1-4.7,4.5C261.8,60.9,261.3,60.9,261,61z
			"/>
		<path class="st1" d="M113.7,53.4c0-3.6,1.3-6,4.1-7.4c2.7-1.3,5.4-1.3,7.9,0.6c0.8,0.6,2.2,1.3,1.2,2.6c-1,1.3-1.8,0.2-2.6-0.6
			c-2-1.7-4.6-1.5-6.4,0.3c-1.9,2-2.1,5.8-0.2,8c1.7,2,4.3,2.3,6.4,0.8c0.3-0.2,0.6-0.5,0.9-0.8c0.7-0.8,1.5-0.6,2.1,0.1
			c0.8,0.8-0.1,1.3-0.5,1.7c-1.9,2.2-4.4,2.6-7.1,2c-3-0.7-4.8-2.7-5.5-5.6C113.7,54.4,113.8,53.7,113.7,53.4z"/>
	</g>
</g>
</svg>
