<?xml version="1.0" encoding="utf-8"?>
<!-- Generator: Adobe Illustrator 24.0.2, SVG Export Plug-In . SVG Version: 6.00 Build 0)  -->
<svg version="1.1" id="Capa_1" xmlns="http://www.w3.org/2000/svg" xmlns:xlink="http://www.w3.org/1999/xlink" x="0px" y="0px"
	 viewBox="0 0 300 100" style="enable-background:new 0 0 300 100;" xml:space="preserve">
<style type="text/css">
	.st0{fill:#EDEDED;}
	.st1{fill:#FFFFFF;}
</style>
<g>
	<g>
		<path class="st0" d="M51.2,22c1.4-4.9,4.9-7.7,9.8-8.1c4.8-0.5,8.4,1.7,10.8,5.9C78,30.5,84.2,41.2,90.4,51.9
			c1.2,2.1,2.4,4.1,3.5,6.2c3,5.6,1.3,12.1-4,15.2c-5.3,3.2-12,1.6-15.3-3.9c-4.4-7.3-8.5-14.7-12.7-22.1c-2.8-4.8-5.4-9.6-8.3-14.3
			C51.5,29.5,50.5,26,51.2,22z"/>
		<path class="st1" d="M51.2,22c-0.6,4,0.3,7.5,2.4,11c2.9,4.7,5.5,9.5,8.3,14.3c-4.1,7.1-8.2,14.2-12.3,21.3c-2.4,4.2-6,6.5-11,6.1
			c-4.4-0.3-7.6-2.7-9.3-6.8c-1.4-3.3-1.3-6.6,0.5-9.7c6.9-11.9,13.8-23.8,20.7-35.6C50.7,22.4,51,22.2,51.2,22z"/>
		<path class="st1" d="M122.6,44.6c0.8,0,1.6,0,2.4,0c4,0,4.2,0.3,3.7,4.2c-0.7,5.1-3.5,8.5-8.5,10c-5.5,1.6-11.2-0.3-14.6-4.7
			c-3.4-4.4-3.9-9.3-1.4-14.2c3.5-7,12.7-9.5,19.1-5.3c0.7,0.5,2.8,0.7,1.4,2.5c-0.9,1.1-1.6,1.9-3.4,0.7c-4-2.6-8.5-1.9-11.7,1.2
			c-3,2.9-3.7,7.8-1.7,11.5c2.1,3.9,6.4,5.8,10.9,4.7c2.8-0.6,4.8-2.3,5.8-5c0.4-1.2,0.2-1.9-1.3-1.9c-1.8,0-3.6-0.1-5.3,0
			c-1.6,0.1-1.8-0.8-1.7-2c0-1.2,0.3-1.9,1.7-1.8C119.4,44.7,121,44.6,122.6,44.6z"/>
		<path class="st1" d="M181.2,58.1c-1.7,0.6-3.3,1.5-5.1,1.2c-3.4-0.6-5.8-2.5-6.9-5.8c-1.2-3.5-0.4-6.7,2.3-9.2
			c2.4-2.3,5.3-2.9,8.5-1.5c0.4,0.2,0.9,0.5,1.3,0.4c3.9-0.5,3.9-0.5,3.9,3.4c0,4.1,0.1,8.1,0,12.2c-0.1,3.5-1.4,6.4-5,7.7
			c-3.3,1.2-7,0.4-9.3-2.1c-0.6-0.7-2-1.6-1-2.6c0.9-0.9,2.3-1.9,3.7,0.1c1.3,1.8,3.3,2.1,5.3,1.3C180.9,62.3,181.4,61,181.2,58.1z
			 M172.5,50.6c-0.1,2.8,2,5.2,4.6,5.3c2.6,0.1,4.7-2.1,4.7-5c0.1-3-1.8-5.2-4.5-5.2C174.7,45.5,172.6,47.7,172.5,50.6z"/>
		<path class="st1" d="M252.9,43.6c0-2.1,0-4.4,0-6.7c0-1.2,0.2-1.9,1.6-1.9c1.4,0,1.6,0.8,1.6,1.9c0,6.6-0.1,13.3,0,19.9
			c0,2.3-1.8,2.5-2.6,1.6c-1-1.2-1.4-0.7-2.3-0.2c-3.6,1.9-7.1,1.2-9.6-1.9c-2.6-3.3-2.6-8.3,0.1-11.6c2.5-3,6-3.6,9.6-1.6
			C251.8,43.5,252.1,44,252.9,43.6z M242.9,50.6c-0.1,3.3,2,5.8,4.9,5.9c2.9,0.1,5.2-2.3,5.3-5.6c0.1-3.3-2-5.8-5-5.9
			C245.1,45,242.9,47.2,242.9,50.6z"/>
		<path class="st1" d="M218.3,58.5c2.7-7.3,5.5-14.6,8.2-21.9c0.5-1.3,1.3-1.4,2.5-1.5c1.5-0.1,1.8,0.8,2.2,1.9
			c2.5,6.6,4.9,13.1,7.4,19.7c0.2,0.6,1.1,1.6,0,2c-0.9,0.3-2.2,0.6-2.9-0.7c-0.1-0.2-0.1-0.4-0.2-0.5c-0.8-1.6-0.6-4.4-2.4-4.8
			c-2.6-0.6-5.5-0.4-8.3-0.1c-2,0.2-1.8,2.4-2.2,3.8C221.8,58.7,220.6,59.4,218.3,58.5z M228.7,38.9c-1.2,3.3-2.1,5.8-2.9,8.2
			c-0.1,0.2-0.2,0.4-0.2,0.5c-0.3,0.8-0.8,1.8,0.7,1.9c1.9,0,4.3,0.5,5.7-0.4c1-0.6-0.7-2.9-1.1-4.4C230.3,43,229.6,41.3,228.7,38.9
			z"/>
		<path class="st1" d="M203.1,59.3c-5.1-0.1-8.4-3.1-9.1-7.4c-0.6-4.2,1.7-8.2,5.5-9.4c3.8-1.2,7.6,0.5,9.5,4.1
			c0.7,1.4,0.7,2.2-1,2.8c-2.8,1-5.5,2.3-8.2,3.4c-1.5,0.6-1.3,1.2-0.3,2c2,1.5,4.2,1.7,5.9,0c1.5-1.5,2.6-0.7,3.4,0.3
			c1.3,1.5-0.6,2-1.3,2.6C206.1,58.9,204.3,59.3,203.1,59.3z M197.8,50.3c2.3-0.9,4.2-1.7,6.1-2.5c0.4-0.2,1.1-0.2,1.1-0.8
			c0-0.7-0.6-0.9-1.1-1.2C201.2,44.6,198.7,46.3,197.8,50.3z"/>
		<path class="st1" d="M139.2,42.1c4.9,0,8.6,3.8,8.5,8.7c-0.1,4.8-3.8,8.5-8.5,8.5c-4.7,0-8.4-3.7-8.5-8.5
			C130.7,45.8,134.3,42.1,139.2,42.1z M139.2,45.6c-2.6,0-4.7,2.2-4.7,5.1c0,2.8,2.1,5.1,4.7,5.2c2.7,0.1,4.8-2.2,4.8-5.3
			C143.9,47.6,141.9,45.6,139.2,45.6z"/>
		<path class="st1" d="M149.7,50.8c-0.1-4.9,3.5-8.6,8.2-8.7c4.9-0.1,8.7,3.6,8.8,8.5c0,4.9-3.7,8.8-8.6,8.8
			C153.5,59.3,149.8,55.6,149.7,50.8z M158.1,45.6c-2.6,0.1-4.7,2.3-4.7,5.1c0,2.8,2.2,5.1,4.7,5.1c2.7,0,4.8-2.3,4.7-5.3
			C162.8,47.6,160.8,45.5,158.1,45.6z"/>
		<path class="st1" d="M264.8,42.1c1.9,0,3.6,0.4,4.9,1.8c0.6,0.5,1.7,1.2,0.8,2.1c-0.6,0.6-1.7,1.4-2.8,0.1c-1.1-1.3-2.6-1.3-4.1-1
			c-1,0.2-2,0.6-2,1.8c0,1.1,0.9,1.5,1.7,1.7c1.4,0.4,2.9,0.7,4.3,1.1c2.2,0.7,3.5,2,3.5,4.5c0,2.5-1.4,3.8-3.5,4.6
			c-3.2,1.2-7,0.2-8.8-2.4c-0.4-0.5-1.5-1.2-0.4-1.9c0.8-0.6,1.8-1.4,2.7,0.1c1.2,1.8,3,2.2,5,1.8c1-0.2,1.8-0.8,1.9-2
			c0.1-1.1-0.7-1.6-1.6-1.9c-1-0.3-2.1-0.6-3.2-0.8c-3.7-1-5.2-2.7-4.9-5.3C258.8,43.9,261.4,42.1,264.8,42.1z"/>
		<path class="st1" d="M188,46c0-3.6,0.1-7.1,0-10.7c0-1.6,0.6-2,2.1-2c1.4,0,1.9,0.4,1.9,1.9c-0.1,7.2-0.1,14.4,0,21.6
			c0,1.6-0.6,2-2.1,2c-1.7,0-1.9-0.7-1.9-2.2C188,53.1,188,49.6,188,46z"/>
	</g>
	<circle class="st0" cx="39.2" cy="64.2" r="10.9"/>
</g>
</svg>
