<?xml version="1.0" encoding="utf-8"?>
<!-- Generator: Adobe Illustrator 24.0.2, SVG Export Plug-In . SVG Version: 6.00 Build 0)  -->
<svg version="1.1" id="Capa_1" xmlns="http://www.w3.org/2000/svg" xmlns:xlink="http://www.w3.org/1999/xlink" x="0px" y="0px"
	 viewBox="0 0 300 100" style="enable-background:new 0 0 300 100;" xml:space="preserve">
<style type="text/css">
	.st0{fill:#FFFFFF;}
</style>
<g>
	<path class="st0" d="M52.1,30.3c0.9,0.6,1.3,1.5,1.3,2.6c0,4.5,0,9,0,13.5c0,1-0.5,1.8-1.2,2.4c-2.9,2.9-5.8,5.8-8.7,8.8
		c-0.9-1-1.9-2-2.8-3c0.1-0.2,0.3-0.4,0.4-0.6c1-1.9,1.6-3.8,1.2-6c-0.1-0.4-0.2-0.5-0.5-0.5c-2.3,0-4.5,0-6.8,0
		c-0.4,0-0.5,0.1-0.5,0.5c0,0.8,0,1.6,0,2.4c0,0.4,0.1,0.4,0.5,0.4c1.1,0,2.3,0,3.4,0c0.3,0,0.6,0,0.5,0.4c-0.4,1-0.9,1.9-1.9,2.3
		c-2.7,1.3-5.5,0.3-6.9-2.4c-1-2-0.4-4.5,1.3-6c1.6-1.4,3.9-1.5,5.8-0.3c0.2,0.1,0.3,0.3,0.6,0.1c0.7-0.8,1.6-1.4,2.2-2.4
		c1.2-1.1,2.4-2.2,3.5-3.5c1.1,1.1,2.2,1.3,3.3,0.9c1.7-0.7,2.7-3.1,0.8-4.9c0.2-0.2,0.4-0.5,0.6-0.7C49.5,33,50.8,31.6,52.1,30.3z"
		/>
	<path class="st0" d="M87.8,48.1c1.6,0,3.2,0,4.8,0c0.4,0,0.6,0.1,0.7,0.6c0.6,5.1-1.8,9.9-6.8,11.6c-4.8,1.6-9.1,0.7-12.7-2.8
		c-4.3-4.3-5-10.4-1.1-15.5c3.9-5.1,10.3-6.3,16.1-2.9c1.8,1,1.8,1.1,0.3,2.5c-0.3,0.3-0.6,0.9-1,0.9c-0.3,0.1-0.7-0.5-1.1-0.7
		c-2.7-1.7-5.6-2-8.5-0.6c-3.2,1.5-4.8,4.2-4.9,7.7c-0.1,2.2,0.5,4.1,1.9,5.8c2.5,3,5.7,3.8,9.3,2.8c2.6-0.7,4.4-2.3,5-5.1
		c0.2-1.1,0.1-1.2-1-1.2c-1.9,0-3.9,0-5.8,0c-0.6,0-0.9-0.2-0.8-0.8c0-0.5,0-1.1,0-1.6c-0.1-0.6,0.2-0.7,0.8-0.7
		C84.6,48.1,86.2,48.1,87.8,48.1z"/>
	<path class="st0" d="M52.1,30.3c-1.3,1.4-2.7,2.7-4,4.1c-0.2,0.2-0.4,0.5-0.6,0.7c-1.5-1-2.8-0.9-3.9,0.2c-1,1-1.1,2.5-0.2,3.8
		c-1.1,1.2-2.2,2.4-3.5,3.5c-0.2-0.1-0.4-0.2-0.6-0.4c-1.9-1.5-4.1-2-6.5-1.5c-1.6,0.3-2.8,1.1-4.1,2.1c-1.1-1.1-2.3-2.3-3.4-3.4
		c0.6-0.6,1.2-1.3,1.9-1.9c2.2-2.2,4.4-4.4,6.6-6.6c0.9-0.9,1.9-1.3,3.1-1.3c4.2,0,8.5,0,12.7,0C50.6,29.4,51.5,29.6,52.1,30.3z"/>
	<path class="st0" d="M25.4,39.3c1.1,1.1,2.3,2.3,3.4,3.4c-0.1,0.1-0.2,0.3-0.3,0.4c-1.5,1.6-2.2,3.6-2.3,5.8
		c-0.1,2.1,0.6,3.9,1.7,5.6c-2.3,2.4-4.7,4.8-7.1,7.1c-2.2-2.2-4.4-4.3-6.5-6.5c-1.3-1.3-1.3-3.5,0-4.8C18,46.6,21.7,42.9,25.4,39.3
		z"/>
	<path class="st0" d="M142.8,54.3c-0.1,2.1,0.2,4.6-0.1,7.2c-0.3,2.5-1.4,4.5-3.7,5.8c-2.9,1.5-7,0.7-9-1.9
		c-1.4-1.8-1.4-1.7,0.7-2.6c0.7-0.3,1-0.2,1.4,0.5c1,1.7,2.9,2.3,5,1.6c1.6-0.5,2.6-2,2.6-3.8c0-0.5,0.2-1.1-0.1-1.4
		c-0.5-0.4-0.7,0.4-1,0.6c-3.4,2-7.9,0-9.6-3.5c-2.1-4.5,0.5-9.8,5.1-10.8c1.7-0.4,3.3-0.2,4.8,0.9c0.4,0.3,1,0.8,0.9-0.4
		c0-0.3,0.3-0.3,0.5-0.3c0.6,0,1.1,0.1,1.7,0c0.8-0.1,0.9,0.3,0.9,1C142.8,49.3,142.8,51.6,142.8,54.3z M131.5,53.4
		c0,0.1,0,0.3,0,0.4c0.1,3.3,3.6,5.3,6.4,3.5c1.7-1.1,2-2.8,1.8-4.7c-0.3-2.7-2.5-4.3-5-3.8C132.9,49.3,131.5,51.2,131.5,53.4z"/>
	<path class="st0" d="M20.8,61.5c2.4-2.3,4.8-4.7,7.1-7.1c0.4,0.4,0.7,0.8,1.1,1.1c3.3,3,8.6,2.9,11.7-1c0.9,1,1.9,2,2.8,3
		c-3.6,3.6-7.2,7.2-10.8,10.8c-1.4,1.4-3.6,1.6-5,0.2C25.4,66.3,23.2,63.9,20.8,61.5z"/>
	<path class="st0" d="M287.4,53.8c0,2.1,0,4.2,0,6.3c0,1.3-0.4,2.6-1.1,3.7c-1.7,2.5-4.1,3.3-7,3c-2.3-0.2-3.9-1.5-5-3.5
		c-0.2-0.4-0.2-0.5,0.2-0.6c0.2-0.1,0.4-0.1,0.6-0.2c0.8-0.5,1.3-0.3,1.9,0.5c0.9,1.5,2.9,1.9,5,1.4c1.5-0.4,2.7-1.9,2.8-3.5
		c0.1-0.6,0.1-1.2,0.1-1.8c0-0.2,0.1-0.4-0.1-0.4c-0.2-0.1-0.3,0.1-0.4,0.2c-1.1,1.4-2.6,2-4.2,2c-2.2,0-4.2-0.8-5.4-2.8
		c-1.7-2.8-2-5.7-0.3-8.6c2.1-3.7,6.6-4.8,9.7-1.7c0.2,0.2,0.3,0.4,0.5,0.3c0.3-0.1,0.2-0.4,0.2-0.7c-0.1-0.9,0.3-1,1.1-1
		c1.3,0.1,1.3,0,1.3,1.4C287.4,49.8,287.4,51.8,287.4,53.8z M284.8,53.4c0-0.2,0-0.3,0-0.5c-0.1-2-1.3-3.7-3-4.3
		c-1.7-0.6-3.5-0.1-4.6,1.3c-1.5,1.8-1.5,4.7-0.1,6.7c1.4,2,4.3,2.3,6.1,0.7C284.4,56.3,284.8,54.9,284.8,53.4z"/>
	<path class="st0" d="M126.7,53.2c0.2,4.1-3.1,7.9-7.8,7.9c-4.2-0.1-7.4-3.1-7.6-7.4c-0.2-4.5,3.1-8,7.7-8
		C122.9,45.6,126.6,48.3,126.7,53.2z M123.2,53.5c0-2.7-1.7-4.6-4.2-4.6c-2.5,0-4.5,1.9-4.3,4.7c0.1,2.6,1.5,4.3,4.2,4.4
		C121.4,58,123.1,56.2,123.2,53.5z"/>
	<path class="st0" d="M239.1,58.6c0,2.1,0,4.1,0,6.2c0,1.6,0,1.6-1.6,1.6c-1.1,0-1.1,0-1.1-1.1c0-5.7,0-11.4,0-17c0-0.5,0.2-1,0-1.5
		c0,0,0-0.1,0-0.1c0.6-0.6,1.3-0.2,2-0.3c0.4-0.1,0.5,0.1,0.5,0.5c0,0.4-0.2,1,0.1,1.2c0.4,0.2,0.6-0.5,0.9-0.7
		c2.3-2,5.8-1.9,8.2,0.4c3.3,3.1,3.2,8.5-0.2,11.5c-2.1,1.9-5.5,2-7.8,0.3C239.9,59.2,239.5,59,239.1,58.6z M247.8,53.4
		c0-0.4,0-0.7-0.1-1.1c-0.2-2-1.6-3.5-3.5-3.9c-1.7-0.4-3.6,0.4-4.4,2c-1.1,2-1,4,0.1,5.9c1.2,2,3.8,2.5,5.7,1.2
		C247.2,56.6,247.8,55.2,247.8,53.4z"/>
	<path class="st0" d="M149.9,53.5c-0.1-2.6,0.8-4.7,2.6-6.3c2.1-1.8,5.4-2.3,8.1-0.5c1.5,1,2.3,2.4,3,3.9c0.3,0.6,0.2,0.9-0.4,1.1
		c-2.3,0.9-4.5,1.9-6.8,2.8c-0.7,0.3-1.5,0.6-2.3,0.9c-0.5,0.2-0.4,0.3-0.2,0.7c1.3,2.4,5.4,2.3,6.8,0.4c0.4-0.6,0.7-0.7,1.2-0.1
		c0.4,0.4,1.1,0.5,1.5,1c0.3,0.3,0.3,0.5,0,0.7c-2,2.2-4.5,3.3-7.5,2.7c-2.4-0.5-4.2-1.7-5.3-4C150.2,55.8,149.8,54.7,149.9,53.5z
		 M153.3,52.3c0,0.3-0.1,0.8,0.5,0.5c1.9-0.8,3.8-1.6,5.7-2.4c0.4-0.2,0.4-0.4,0.1-0.7c-0.3-0.3-0.6-0.6-1-0.8
		C156.5,48,153.4,49.8,153.3,52.3z"/>
	<path class="st0" d="M220.6,56.4c0-3.1,0-6.2,0-9.3c0-0.6,0.2-0.8,0.7-0.7c0.1,0,0.3,0,0.4,0c1.2-0.1,1.2-0.1,1.3,1.1
		c0,0.2-0.1,0.4,0.2,0.5c0.3,0.1,0.4-0.2,0.5-0.3c3-2.9,7.3-2.1,9.6,1.4c1.9,2.9,1.5,7.4-1.1,9.8c-2.5,2.4-6.1,2.5-8.5,0.1
		c-0.2-0.2-0.3-0.4-0.5-0.3c-0.3,0.1-0.1,0.4-0.1,0.6c0,2.2,0,4.4,0,6.6c0,0.1,0,0.2,0,0.2c-0.6,0.6-1.4,0.2-2.1,0.3
		c-0.5,0.1-0.4-0.4-0.4-0.6c0-1.6,0-3.2,0-4.7C220.6,59.5,220.6,57.9,220.6,56.4C220.6,56.4,220.6,56.4,220.6,56.4z M231.8,53
		c0-0.4-0.1-1.1-0.4-1.8c-1.1-3-4.9-3.8-7.1-1.5c-1.5,1.6-1.7,4.6-0.4,6.7c1.2,2,3.9,2.5,5.8,1.2C231.2,56.6,231.8,55.1,231.8,53z"
		/>
	<path class="st0" d="M102.3,61c-4.4,0.1-7.6-3.4-7.7-7.5c-0.1-4.5,3.5-7.8,7.6-7.7c4.4,0,7.5,3.1,7.7,7.3
		C110.1,57.4,106.5,61.2,102.3,61z M106.5,53.3c0-2.6-1.9-4.6-4.3-4.6c-2.5,0.1-4.3,2.1-4.3,4.7c0,2.6,1.9,4.6,4.3,4.5
		C104.6,58,106.5,55.9,106.5,53.3z"/>
	<path class="st0" d="M180,39.5c2.7-0.1,4.5,1.2,5.9,3.3c0.4,0.5,0.4,0.9-0.4,1.1c-0.5,0.1-0.9,0.5-1.4,0.6c-0.6,0-0.5-0.8-0.8-1.1
		c-1.5-1.7-4.7-1.8-6.3-0.1c-0.9,0.9-0.6,3,0.4,3.7c1.3,0.9,2.8,1.3,4.3,1.8c1.1,0.4,2.1,0.9,3,1.6c1.8,1.3,2.5,3.3,2.2,5.4
		c-0.3,2.2-1.8,3.6-3.8,4.4c-4.1,1.7-8.5-0.8-9.8-4.2c-0.2-0.4-0.2-0.8,0.4-0.9c0.1,0,0.3-0.1,0.4-0.2c1.2-0.5,1.2-0.5,1.8,0.6
		c1.6,2.9,4.7,3.7,7.4,1.9c1.4-0.9,1.4-3.6,0.4-4.6c-1.2-1.2-2.8-1.6-4.3-2.2c-1.2-0.4-2.4-1-3.5-1.7c-2.6-1.7-2.5-5.8-0.2-7.7
		C176.9,40.1,178.3,39.4,180,39.5z"/>
	<path class="st0" d="M189.6,50.1c0-3.1,0-6.2,0-9.4c0-0.6,0.2-0.7,0.7-0.7c1.9,0,1.9,0,1.9,1.8c0,1.9,0.1,3.7-0.1,5.6
		c0,0.2-0.2,0.6,0.1,0.8c0.3,0.1,0.4-0.3,0.5-0.5c1.7-1.7,3.7-2.2,5.9-1.4c2.1,0.8,3,2.4,3.2,4.6c0.3,2.9,0,5.9,0.1,8.8
		c0,0.5-0.2,0.6-0.7,0.6c-1.9,0.1-1.9,0.1-1.9-1.8c0-2.4,0.1-4.7-0.1-7.1c-0.1-1.1-0.3-2.3-1.6-2.7c-3-1.1-5.2,0.5-5.4,3.6
		c-0.2,2.4-0.1,4.8,0,7.2c0,0.7-0.2,0.9-0.9,0.9c-1.9-0.1-1.7,0.3-1.7-1.6C189.5,55.8,189.6,52.9,189.6,50.1z"/>
	<path class="st0" d="M204.3,53.2c0-4.2,3-7.3,7.1-7.3c3.9,0,7.3,3.3,7.1,7.7c-0.2,3.9-3,7.1-7.2,7.1
		C207.1,60.7,204.1,57.3,204.3,53.2z M215.8,53.4c0-0.3,0-0.5,0-0.8c-0.2-2.7-2.7-4.6-5.3-4.1c-2.5,0.4-4,3.1-3.6,5.7
		c0.4,2.4,2.1,4,4,4.1C213.8,58.4,215.8,56.4,215.8,53.4z"/>
	<path class="st0" d="M261.5,48.3c0.8-1,1.7-1.7,2.7-2.1c3.1-1.1,6,0.5,6.8,3.8c0.2,0.7,0.2,1.4,0.2,2.1c0,2.5,0,5.1,0,7.6
		c0,0.5-0.2,0.7-0.7,0.7c-2.1,0.1-2.1,0.1-2.1-2c0-2.2,0-4.5,0-6.7c0-2-0.6-3-2.7-3.3c-1.8-0.3-3.5,0.6-4.1,2.4
		c-0.2,0.5-0.3,1.1-0.3,1.6c0,2.4,0,4.8,0,7.3c0,0.6-0.2,0.8-0.8,0.8c-2,0-2,0-2-2c0-3.8,0.1-7.5,0.1-11.3c0-0.5,0.2-0.7,0.7-0.7
		c0.6,0,1.2-0.4,1.7,0.1C261.8,46.9,261.3,47.6,261.5,48.3z"/>
	<path class="st0" d="M148.4,49.3c0,3.5,0,7,0,10.5c0,0.7-0.2,0.9-0.9,0.8c-0.8-0.1-1.8,0.3-2.3-0.2c-0.5-0.5-0.2-1.5-0.2-2.3
		c0-5.3,0-10.6,0-15.9c0-1.3,0-2.5-0.1-3.8c0-0.5,0.1-0.7,0.6-0.6c0.7,0,1.4,0.1,2.1,0c0.6-0.1,0.7,0.2,0.7,0.7
		C148.4,42.1,148.4,45.7,148.4,49.3z"/>
	<path class="st0" d="M255.7,53.4c0,2.1,0,4.2,0,6.2c0,0.6-0.1,0.7-0.7,0.7c-2,0-2,0-2-2c0-3.7,0-7.4,0-11.1c0-0.7,0.3-1,0.9-1
		c0.3,0,0.7,0.1,1,0.1c0.6,0,0.8,0.2,0.8,0.8C255.7,49.3,255.7,51.4,255.7,53.4C255.7,53.4,255.7,53.4,255.7,53.4z"/>
	<path class="st0" d="M252.5,41.5c0-1,0.9-1.8,1.9-1.8c0.9,0,1.8,1,1.8,1.9c0,0.9-1,1.8-1.9,1.8C253.4,43.4,252.5,42.5,252.5,41.5z"
		/>
</g>
</svg>
