<?xml version="1.0" encoding="utf-8"?>
<!-- Generator: Adobe Illustrator 24.0.2, SVG Export Plug-In . SVG Version: 6.00 Build 0)  -->
<svg version="1.1" id="Capa_1" xmlns="http://www.w3.org/2000/svg" xmlns:xlink="http://www.w3.org/1999/xlink" x="0px" y="0px"
	 viewBox="0 0 300 100" style="enable-background:new 0 0 300 100;" xml:space="preserve">
<style type="text/css">
	.st0{fill:#FFFFFF;}
	.st1{fill:#FEFDFD;}
</style>
<g>
	<path class="st0" d="M225.7,87.8c0-0.5-0.5-0.4-0.7-0.4c-7.3-2-14.6-4.1-21.9-6.1c-0.8-0.2-1-0.6-1-1.3c-0.7-8.5-1.5-17-2.3-25.5
		c-0.7-7.6-1.3-15.1-2-22.7c-0.3-3.2-0.6-6.4-0.9-9.7c-0.1-0.8,0.1-1.1,1-1.1c18.9,0,37.8,0,56.8,0c0.3,0,0.6,0,0.9-0.1
		c0,1,0,1.9,0,2.9c0,0-0.1-0.1-0.1-0.1c0,0-0.1,0-0.1,0.1c-0.3,1.1-0.3,2.2-0.4,3.2c-0.6,6.1-1.1,12.1-1.6,18.2
		c-0.6,6.2-1.1,12.4-1.7,18.6c-0.5,5.5-1,10.9-1.5,16.4c-0.1,0.6-0.3,0.8-0.8,0.9c-2.9,0.8-5.7,1.6-8.6,2.4c-4.5,1.2-9,2.5-13.4,3.7
		c-0.2,0.1-0.8-0.1-0.7,0.5C226.3,87.8,226,87.8,225.7,87.8z M227.4,44.4c0,3.3,0,6.7,0,10c0,0.8,0.1,1.2,1.1,1.1
		c2.5-0.2,5.1-0.3,7.6-0.5c0.5,0,0.7,0,0.7,0.7c-0.3,2.8-0.5,5.6-0.7,8.3c0,0.6-0.2,0.8-0.8,1c-2.3,0.5-4.7,1.2-7,1.7
		c-0.6,0.1-0.9,0.4-0.8,1c0,2,0,4,0,6.1c0,0.7,0.2,0.8,0.8,0.6c4-1.1,8.1-2.3,12.1-3.4c0.6-0.2,0.8-0.5,0.9-1.1
		c0.6-6.9,1.2-13.9,1.9-20.8c0.1-0.8-0.2-1-0.9-1c-2.6,0-5.1,0-7.7,0c-0.6,0-0.8-0.2-0.8-0.8c0.1-2,0.2-3.9,0.2-5.9c0-0.7,0.2-1,1-1
		c2.7,0,5.3-0.1,8-0.1c0.7,0,1-0.2,1-1c0.1-1.7,0.2-3.5,0.5-5.2c0.1-0.8-0.1-0.9-0.8-0.9c-5.1,0-10.2,0-15.3,0c-0.8,0-0.9,0.3-0.9,1
		C227.5,37.7,227.4,41,227.4,44.4z M224.6,54c0-6.6,0-13.1,0-19.7c0-0.8-0.2-1-1-1c-1.5,0.1-3,0.1-4.4,0c-0.7,0-0.9,0.2-0.8,0.9
		c0.2,4.8,0.3,9.7,0.5,14.5c0.2,5.3,0.3,10.6,0.5,15.9c0,0.6-0.1,0.8-0.8,0.6c-0.9-0.3-1.9-0.6-2.9-0.8c-0.5-0.1-0.7-0.4-0.7-0.9
		c0-0.9-0.1-1.8-0.2-2.7c0-0.5-0.3-0.8-0.8-0.9c-1-0.1-2-0.3-3-0.5c-0.7-0.1-1,0-0.9,0.8c0.3,3.3,0.6,6.6,0.9,9.9
		c0.1,0.6,0.4,0.9,0.9,1c3.9,1.1,7.8,2.2,11.8,3.3c0.8,0.2,0.9,0,0.9-0.7C224.6,67,224.6,60.5,224.6,54z"/>
	<path class="st0" d="M148.3,87.8c0-0.6-0.5-0.4-0.8-0.5c-4.7-1.3-9.3-2.6-14-3.9c-2.8-0.8-5.6-1.6-8.4-2.3
		c-0.6-0.2-0.9-0.4-0.9-1.1c-0.9-11.6-1.9-23.3-2.8-34.9c-0.6-7.7-1.3-15.5-1.9-23.2c-0.1-0.9,0.4-0.8,1-0.8c10.5,0,20.9,0,31.4,0
		c8.3,0,16.6,0,24.9,0c0.9,0,1.1,0.2,1.1,1.1c-0.6,6.3-1.1,12.5-1.7,18.8c-0.5,6.3-1.1,12.5-1.6,18.8c-0.6,6.3-1.1,12.6-1.7,18.9
		c-0.2,2.2-0.3,2.2-2.5,2.9c-6.8,1.9-13.5,3.9-20.3,5.9c-0.3,0.1-0.8,0-0.8,0.5C148.9,87.8,148.6,87.8,148.3,87.8z M148.9,55.3
		c2.6,0,5.2,0.1,7.8,0c0.8,0,1,0.2,0.9,1c-0.3,2.7-0.6,5.3-0.8,8c-0.1,0.6-0.3,0.9-0.9,1c-2.3,0.4-4.6,0.9-7,1.4
		c-2.6-0.6-5.2-1.2-7.8-1.7c-0.7-0.1-0.8-0.4-0.9-1c-0.1-1.3-0.3-2.6-0.4-3.9c-0.1-0.6-0.3-0.8-0.9-0.8c-1.9,0-3.8,0-5.7,0
		c-0.6,0-0.7,0.2-0.7,0.8c0.3,3.3,0.6,6.6,0.9,9.9c0,0.5,0.2,0.8,0.8,0.9c2.6,0.7,5.1,1.4,7.7,2.1c2.3,0.6,4.6,1.4,7,1.9
		c4.7-1.5,9.5-2.9,14.2-4.4c0.5-0.1,0.4-0.5,0.5-0.8c0.6-7,1.2-14,1.9-21c0.1-0.7-0.2-0.8-0.8-0.8c-4.5,0-9,0-13.5,0
		c-0.3,0-0.6,0.1-0.9-0.2c0.3-0.1,0.6-0.2,0.9-0.4c5-2,9.9-4.1,14.9-6.1c0.6-0.2,0.8-0.5,0.8-1.2c-0.1-1.8-0.1-3.6,0-5.4
		c0-0.7-0.2-0.9-0.9-0.9c-5.4,0-10.8,0-16.3,0c-0.3,0-0.5,0-0.8,0.1c-0.1,0-0.1,0-0.2,0c-6.1,0-12.1,0-18.2,0
		c-0.6,0-0.6,0.3-0.5,0.7c0.3,1.8,0.6,3.6,0.7,5.4c0.1,1,0.5,1.1,1.3,1.1c5,0,10,0,15,0c0.3,0,0.6-0.1,1,0.1c-0.4,0.2-0.7,0.3-1,0.5
		c-5,2.2-10,4.4-15.1,6.5c-0.4,0.2-0.9,0.2-0.7,0.9c0.3,1.8,0.6,3.7,0.8,5.5c0.1,0.7,0.4,0.8,1,0.8c2.3,0,4.7,0,7,0
		C143,55.3,145.9,55.3,148.9,55.3z"/>
	<path class="st0" d="M42,21c0.3,0,0.6,0.1,1,0.1c18.9,0,37.7,0,56.6,0c1.3,0,1.2,0,1.1,1.3c-0.6,6.2-1.1,12.3-1.7,18.5
		c-0.5,6.1-1.1,12.3-1.6,18.4c-0.5,6.1-1.1,12.1-1.6,18.2c-0.1,0.9-0.2,1.8-0.2,2.7c0,0.7-0.3,1-1,1.2C87.8,83.1,81,85,74.2,86.9
		c-0.8,0.2-1.7,0.3-2.4,0.8c0,0,0,0,0,0.1c0,0,0,0,0.1,0.1c-0.3,0-0.6,0-1,0c0,0,0,0,0.1-0.1c0,0,0-0.1,0-0.1
		c-0.3-0.3-0.8-0.3-1.1-0.4c-7.2-2-14.4-4-21.7-6c-0.6-0.2-0.8-0.4-0.9-1c-0.2-2.6-0.4-5.1-0.7-7.7c-0.5-6.1-1.1-12.2-1.6-18.3
		c-0.5-6.1-1.1-12.3-1.6-18.4c-0.3-3.8-0.7-7.5-1-11.3c0-0.2,0.1-0.6-0.3-0.5C42,23.1,42,22,42,21z M71.5,67.2c-0.1,0-0.2,0-0.3,0
		c-2.5-0.7-5-1.3-7.5-2c-0.4-0.1-0.5-0.4-0.5-0.8c-0.1-1.5-0.3-2.9-0.4-4.4c0-0.6-0.2-0.9-0.8-0.8c-2,0-3.9,0-5.9,0
		c-0.7,0-0.8,0.3-0.7,0.9c0.3,3.3,0.6,6.7,0.9,10c0,0.5,0.2,0.7,0.7,0.8c4.8,1.3,9.7,2.7,14.5,4c0,2.2,0,4.4,0,6.5
		c0,0.7,0.2,1,1,0.8c0.2-0.1,0.4-0.1,0.6-0.1c5.3-1.5,10.5-2.9,15.8-4.3c1.4-0.4,2.2-0.7,2.3-2.5c0.1-3.3,0.5-6.5,0.8-9.7
		c0.2-2.5,0.4-4.9,0.6-7.4c0.3-3.2,0.6-6.4,0.9-9.6c0.3-3.2,0.5-6.4,0.8-9.7c0.4-3.9,0.7-7.8,1.1-11.7c0.1-0.8-0.2-1.1-1.1-1.1
		c-7.2,0-14.5,0-21.7,0c-0.9,0-1.1,0.3-1.1,1.1c0,2.1,0,4.1,0,6.2c-5.9,0-11.7,0-17.6,0c-0.7,0-0.9,0.2-0.8,0.9
		c0.6,6.8,1.3,13.6,1.8,20.4c0.1,0.8,0.3,0.9,1,0.9c4.8,0,9.6,0,14.4,0c0.4,0,0.8,0.1,1.1,0.1C71.5,59.5,71.5,63.3,71.5,67.2z"/>
	<path class="st1" d="M71.5,67.3c2.4-0.7,4.9-1.3,7.3-2c0.5-0.1,0.8-0.3,0.9-0.9c0.2-2.7,0.4-5.3,0.7-7.9c0.1-0.7-0.1-0.9-0.8-0.9
		c-2.3,0-4.6,0-6.9,0c-0.4,0-0.8-0.1-1.1-0.1c0-2.4,0-4.8,0-7.2c5.4,0,10.9,0,16.3-0.1c0.7,0,0.6,0.4,0.6,0.9
		c-0.3,3-0.5,6.1-0.8,9.1c-0.4,4-0.7,7.9-1.1,11.9c0,0.4,0,0.8-0.6,0.9c-4.7,1.3-9.4,2.6-14.2,3.9c-0.3-0.4-0.3-0.8-0.3-1.3
		C71.5,71.4,71.5,69.4,71.5,67.3z"/>
	<path class="st1" d="M71.5,40.6c0-2.4,0-4.8,0-7.2c5.9,0,11.8,0,17.7-0.1c0.5,0,0.6,0.2,0.6,0.7c-0.2,2-0.4,4.1-0.6,6.1
		c-0.1,0.7-0.5,0.5-0.9,0.5c-3.5,0-7,0-10.5,0C75.7,40.7,73.6,40.6,71.5,40.6z"/>
	<path class="st0" d="M71.5,48.1c-3.1,0-6.1,0-9.2,0c-0.4,0-0.6-0.1-0.6-0.5c-0.2-2.1-0.4-4.2-0.6-6.3c0-0.5,0.1-0.7,0.6-0.7
		c3.3,0,6.5,0,9.8,0C71.5,43.2,71.5,45.7,71.5,48.1z"/>
</g>
</svg>
