<?xml version="1.0" encoding="utf-8"?>
<!-- Generator: Adobe Illustrator 24.0.2, SVG Export Plug-In . SVG Version: 6.00 Build 0)  -->
<svg version="1.1" id="Capa_1" xmlns="http://www.w3.org/2000/svg" xmlns:xlink="http://www.w3.org/1999/xlink" x="0px" y="0px"
	 viewBox="0 0 300 100" style="enable-background:new 0 0 300 100;" xml:space="preserve">
<style type="text/css">
	.st0{fill:#FFFFFF;}
</style>
<g>
	<path class="st0" d="M88.6,51.3c0,5.1,0.5,10.3-0.4,15.4c-1.4,7.1-6.3,11.9-13.5,12.6C65,80.1,55.2,80.1,45.5,79
		c-7.8-0.9-13.1-6.7-13.6-14.6c-0.5-8.7-0.5-17.5,0-26.3c0.5-8.8,6-14.4,14.7-15.1c9.5-0.9,18.9-0.7,28.4,0.1
		c7.7,0.6,13.3,7,13.7,15.2C88.8,42.6,88.6,46.9,88.6,51.3z M60,27.8C60,27.8,60,27.9,60,27.8c-4.2,0-8.5-0.1-12.7,0.1
		c-5.9,0.2-9.7,3.9-10.2,9.8c-0.8,8.2-0.6,16.5-0.3,24.8c0.3,7.9,3.8,11.7,10.7,12.1c8.7,0.5,17.3,0.2,26-0.1
		c5.6-0.2,9.2-3.5,9.9-9.2c1-9.3,1-18.7,0-28c-0.6-5.9-4.4-9.1-10.3-9.3C68.7,27.7,64.3,27.8,60,27.8z"/>
	<path class="st0" d="M159.9,61.6c-2,1-4,1.7-5.7-0.4c-0.5-0.6-0.8-0.8-1.4-0.1c-2.4,2.7-4.2,1.2-5.7-1.1c-3.5,3.5-5.5,3.4-8.3-0.7
		c-1.6,0.9-2.2,3.5-4.5,3c-2.3-0.5-2.4-2.6-3-4.3c-1.2-0.1-1.2,1-1.6,1.6c-1.8,2.6-5.2,3.7-8,2.5c-0.8-0.3-1.9-0.7-1.3-1.9
		c0.4-0.9,1.2-1.4,2.2-0.7c1.1,0.7,2.3,1.3,3-0.4c0.8-2-0.6-3.3-2-4.3c-1.7-1.3-1.9,0.7-2.5,1.5c-1.2,1.5-2.1,3.2-3.3,4.7
		c-0.7,0.9-1.9,1.5-3.2,1.2c-1.2-0.4-1.4-1.7-1.4-2.8c-0.1-2.3,0-4.6,0-6.9c0-0.6,0.5-1.5-0.6-1.7c-0.7-0.1-0.9,0.7-1.2,1.2
		c-1.2,2.5-2.4,5-2.7,7.8c-0.1,1.5-0.9,2.4-2.2,2.4c-1.6,0-1.3-1.5-1.3-2.5c-0.1-3.3,0-6.6,0-10c0-1,0.1-1.8,1.4-1.8
		c1.2,0,1.5,0.8,1.5,1.8c0,1.3,0,2.6,0,4.2c1.5-1.1,1.6-2.7,2.3-3.9c1-1.8,2.7-2.1,4.2-1.8c1.8,0.3,1.9,2,1.8,3.6
		c-0.2,2-0.2,4-0.3,6c0,0.6,0,1.4,0.7,1.5c0.7,0.2,1.1-0.5,1.4-1c1.2-2.4,3.8-4.2,2.6-7.5c-0.4-1.2,0.4-2.4,1.6-3
		c0.7-0.4,1.5-0.8,2.3-0.2c0.9,0.7,1,1.7,0.4,2.4c-1.3,1.7-0.5,2.5,0.9,3.5c1.6,1.1,3,2.4,3,5.1c3.2-3.6,2.1-7.4,2.1-10.9
		c0-1.3-1.4-0.7-2.2-0.8c-0.6-0.1-0.9-0.4-1.1-0.9c-0.2-0.5,0.4-0.6,0.6-0.8c2.8-2.1,2.8-2.1,3.8-5.3c1.5,1,3,1.5,2.8,3.9
		c-0.1,1.5,1.7,1.4,2.9,1.7c0.5,0.1,1.3-0.7,1.3,0.4c0,0.7-0.4,1.2-1.1,1.1c-3.4-0.6-3.4,1.6-3.3,3.9c0.1,2.4-0.1,4.8,0,7.2
		c0,0.7-0.3,1.7,1,1.8c1,0.1,1.5-0.4,1.9-1.1c0.9-1.4,1.1-3,1.2-4.6c0.1-1.9,0.6-3.6,1.7-5.1c1-1.3,2.3-2.1,3.9-1.6
		c1.3,0.4,2.3,1,3.8,0.6c1.3-0.3,1.7,1,1.7,2.2c-0.1,2.5-0.1,5,0,7.6c0,1-0.2,2.6,1.3,2.7c1.6,0,1.8-1.5,1.9-2.9
		c0-1.6-0.1-3.3,0.2-4.8c0.9-4.3,2.7-5.4,7-4.5c1.1,0.2,2.4-1.4,3.2,0.5c0.8,2,0.7,4.2,0.2,6.2c-0.3,1.1-0.2,2,0.1,3.1
		c1.6-2.5,4.3-4.6,2.8-8.1c-0.5-1.2,0.3-1.9,1.1-2.5c0.9-0.7,2-0.1,2.3,0.7c0.5,1.5,1.6,1.7,2.9,1.5c2.4-0.5,2.6,1.2,2.1,2.6
		c-0.7,2-0.4,3.9-0.4,5.8c0,1.2-0.1,2.6,1.6,2.5c1.7-0.1,1.7-1.4,1.7-2.7c-0.1-2.3-0.3-4.6,0.6-6.8c1.2-3,3-3.3,6.3-3
		c4.3,0.4,4.4,2.1,3.6,5.6c-0.7,2.7-0.1,6.3,2.1,7.8c-2,1.7-3.3,0.9-4.2-1.2c-2.3,1.8-4.4,3.8-7.2,1c-0.8-0.9-1.2,0-1.7,0.3
		c-2.5,1.7-4.4,1-5.5-1.9c-0.7-2.1-0.2-4.1-0.1-6.1c0-0.7,0.6-1.8-0.4-2.1c-0.8-0.3-1.7,0.1-2.2,1.2c-2.1,4.9-6.4,8.8-5.3,15
		c0.3,2-0.7,4.2-2.9,5.2c-1.9,0.9-3.8,0.9-5.2-0.8c-1.4-1.5-1-3.3,0.1-4.7c1.5-1.9,3.3-3.5,5-5.2c0-0.2,0-0.5,0.1-0.7
		C160.3,61.4,160.1,61.5,159.9,61.6z M180.6,55.9C180.6,55.9,180.7,55.9,180.6,55.9c0.1,0.7,0.1,1.4,0.1,2.1c0,1.1-0.1,2.3,1.5,2.5
		c1.4,0.2,2.1-0.7,2.5-1.7c0.9-2.2,1-4.5,0.6-6.8c-0.2-1.2-1.1-2.3-2.5-2.1c-1.3,0.1-1.7,1.4-2,2.4
		C180.6,53.5,180.7,54.7,180.6,55.9z M155.7,55.6c0.1,1,0.1,2,0.3,3c0.2,0.8,0.5,1.8,1.6,2c1.3,0.2,1.8-0.8,2.2-1.7
		c1-2.2,1.1-4.6,0.7-7c-0.2-1-0.6-2-1.8-2.1c-1-0.1-1.6,0.7-2,1.5C156,52.6,155.8,54.1,155.7,55.6z M141.7,55.8
		c0.1,0.7,0.1,1.7,0.3,2.7c0.2,0.9,0.5,1.8,1.6,2c1.1,0.2,1.7-0.6,2.1-1.4c1-2.3,1.4-4.8,0.7-7.3c-0.3-1-0.7-2-1.9-2
		c-1.2,0-1.6,1-2.1,1.9C141.8,52.9,141.9,54.2,141.7,55.8z M161.1,64.1c-2,1.4-3.2,3-4,4.8c-0.5,1.2-0.7,2.4,0.8,3
		c1.4,0.5,2.4-0.4,2.7-1.6C161.1,68.4,161.3,66.5,161.1,64.1z"/>
	<path class="st0" d="M204.3,52.3c-1.6,2.4-1.4,4.9-2.4,7.1c-0.3,0.8-0.5,1.7-1.4,1.6c-0.9-0.1-1.8-0.8-1.8-2c0-2.4,0-4.8,0-7.8
		c-1.9,1.8-2.5,3.5-2.8,5.4c-0.2,1.3-0.2,2.6-0.5,3.9c-0.3,1-1,2.1-2.3,1.9c-1.3-0.3-2.1-1.7-1.8-2.7c1.2-3.4,0.4-6.8,0.6-10.2
		c0.1-1,0-1.8,1.4-1.7c1.5,0.1,1.1,1,1.1,1.9c0,0.9,0.1,1.9,0.1,3.2c1.2-0.9,1.4-1.9,1.6-2.8c0.3-1.4,1.4-2.1,2.5-2
		c1.3,0.2,2,1.4,2,2.9c0,1.1-0.7,2.3,0.4,3.9c0.7-2.1,1.3-3.7,1.9-5.4c0.4-1.1,0.8-2.1,2.3-1.7c1.3,0.3,2.1,1,2,2.5
		c-0.1,2.6-0.4,5.2,0.2,7.8c0.2,0.8-0.3,2.1,0.9,2.3c1.4,0.2,1.5-1,1.7-2c0.1-0.3,0.4-0.6,1.1-1.5c0.4,2.8-0.3,4.6-2.2,5.3
		c-2.3,0.9-3.6-0.7-4.1-2.8C204.7,57.2,204.6,54.9,204.3,52.3z"/>
	<path class="st0" d="M99,42.4c-3.1,2.2-4.9,5.3-2.5,10.6c-2-0.3-3.3-1.5-3.6-3.4c-0.7-4,3.7-9.5,7.6-9.5c1.2,0,1.8,0.8,1.8,1.9
		c-0.1,6.1,0,12.3-0.2,18.4c-0.1,2.2-1.2,4-3.9,5.2c1.2-4.1,0.8-7.9,0.9-11.7C99,50.1,99,46.3,99,42.4z"/>
	<path class="st0" d="M159.9,61.6c0.2-0.1,0.4-0.2,0.6-0.3c0,0.2,0,0.5-0.1,0.7C160.3,61.9,160.1,61.7,159.9,61.6z"/>
	<path class="st0" d="M74.9,51.2c0,8-6.5,14.6-14.5,14.7c-7.9,0.1-14.6-6.6-14.7-14.5c-0.1-8.1,6.6-14.9,14.7-14.8
		C68.4,36.6,74.9,43.1,74.9,51.2z M60.7,41.7c-6.2-0.5-9.9,4.8-10.1,9.3c-0.2,5.1,4,9.4,9.2,9.7c5.5,0.2,10-3.9,10.1-9.3
		C70,46.2,65.9,41.9,60.7,41.7z"/>
	<path class="st0" d="M72.2,36.3c0.1-2.4,1.1-3.7,3.3-3.7c2.2,0,3.4,1.2,3.5,3.3c0,2.1-1.2,3.4-3.3,3.5
		C73.5,39.4,72.3,38.1,72.2,36.3z"/>
</g>
<g>
	<path class="st0" d="M233.8,56.3h-9.7l-2,4.6h-2.7l8.3-18.2h2.6l8.3,18.2h-2.7L233.8,56.3z M232.9,54.2l-3.9-8.9l-3.9,8.9H232.9z"
		/>
	<path class="st0" d="M253.8,41.6v19.3h-2.4v-2.2c-0.6,0.8-1.3,1.3-2.1,1.7c-0.9,0.4-1.8,0.6-2.8,0.6c-1.3,0-2.5-0.3-3.6-0.9
		c-1.1-0.6-1.9-1.4-2.5-2.5c-0.6-1.1-0.9-2.3-0.9-3.7c0-1.4,0.3-2.6,0.9-3.7c0.6-1.1,1.4-1.9,2.5-2.5c1.1-0.6,2.3-0.9,3.6-0.9
		c1,0,1.9,0.2,2.7,0.6c0.8,0.4,1.5,0.9,2.1,1.7v-7.6H253.8z M249,58.2c0.7-0.4,1.3-1,1.7-1.7c0.4-0.7,0.6-1.6,0.6-2.5
		c0-1-0.2-1.8-0.6-2.5c-0.4-0.7-1-1.3-1.7-1.7c-0.7-0.4-1.5-0.6-2.4-0.6c-0.9,0-1.7,0.2-2.4,0.6c-0.7,0.4-1.3,1-1.7,1.7
		c-0.4,0.7-0.6,1.6-0.6,2.5c0,1,0.2,1.8,0.6,2.5c0.4,0.7,1,1.3,1.7,1.7c0.7,0.4,1.5,0.6,2.4,0.6C247.5,58.8,248.3,58.6,249,58.2z"/>
	<path class="st0" d="M259.2,60.6c-1-0.3-1.9-0.7-2.4-1.2l1-2c0.6,0.4,1.3,0.8,2.2,1c0.9,0.3,1.7,0.4,2.6,0.4c2.2,0,3.3-0.6,3.3-1.9
		c0-0.4-0.1-0.7-0.4-1c-0.3-0.2-0.7-0.4-1.1-0.5c-0.4-0.1-1.1-0.2-1.9-0.4c-1.1-0.2-2-0.4-2.7-0.6c-0.7-0.2-1.3-0.6-1.8-1.1
		c-0.5-0.5-0.8-1.3-0.8-2.3c0-1.2,0.5-2.3,1.6-3c1-0.8,2.4-1.1,4.2-1.1c0.9,0,1.8,0.1,2.8,0.3c0.9,0.2,1.7,0.5,2.3,0.9l-1.1,2
		c-1.1-0.7-2.5-1.1-4-1.1c-1.1,0-1.9,0.2-2.4,0.5c-0.6,0.3-0.8,0.8-0.8,1.4c0,0.5,0.2,0.8,0.5,1.1c0.3,0.3,0.7,0.5,1.2,0.6
		c0.5,0.1,1.1,0.3,1.9,0.4c1.1,0.2,2,0.4,2.7,0.6c0.7,0.2,1.3,0.6,1.8,1.1c0.5,0.5,0.7,1.2,0.7,2.2c0,1.2-0.5,2.2-1.6,3
		c-1.1,0.7-2.5,1.1-4.4,1.1C261.4,61,260.3,60.9,259.2,60.6z"/>
</g>
</svg>
