<?xml version="1.0" encoding="utf-8"?>
<!-- Generator: Adobe Illustrator 24.0.2, SVG Export Plug-In . SVG Version: 6.00 Build 0)  -->
<svg version="1.1" id="Capa_1" xmlns="http://www.w3.org/2000/svg" xmlns:xlink="http://www.w3.org/1999/xlink" x="0px" y="0px"
	 viewBox="0 0 300 100" style="enable-background:new 0 0 300 100;" xml:space="preserve">
<style type="text/css">
	.st0{fill:#EDEDED;}
</style>
<g>
	<path class="st0" d="M97.9,22.8c1.3,0.8,2.6,1.7,3.9,2.4c2.8,1.6,3.6,4.2,3.9,7.1c0.1,1,1,1.1,1.5,1.5c4.4,3.2,8.1,7,9.7,12.4
		c2.9,10-1.5,20.4-11.4,26.8c-6.4,4.1-13.4,6-20.9,6.9c-0.5,0.1-1.2-0.3-1.5,0.5c-1,0-2,0-3.1,0c-1.9-0.7-3.8-0.7-5.6,0
		c-1.4,0-2.7,0-4.1,0c-1-0.9-2.3-0.8-3.5-1c-7.5-1.3-14.4-3.7-20.5-8.5c-10.5-8.2-13.5-23.9-2.8-34.1c1.3-1.2,2.7-2.3,4.1-3.4
		c0.4-0.3,0.9-0.5,0.9-1.3c-0.1-3,1.2-5.5,3.7-7.2c1.1-0.8,2.2-1.5,3.3-2.2c0.3,0,0.7,0,1,0c1.3,1.1,2.7,2.2,3.9,3.4
		c0.6,0.6,1.1,0.9,2,0.7c6-1.3,12-2,18.3-1.4c3.4,0.3,6.8,0.6,10.2,1.2c0.8,0.1,1.6,0.7,2.4-0.2c1.1-1.4,2.7-2.2,3.6-3.8
		C97.2,22.8,97.6,22.8,97.9,22.8z M78.5,62.6c-0.9,0-1.8-0.7-2.7,0.4c-0.7,0.8-2,1.1-3,1.1c-3.3,0.1-6.6,1-10,0.6
		c-3.8-0.4-7.6,0.3-11.4-0.6c-1.7-0.4-3.5-0.7-5.2-1c-0.6-0.1-1.3-0.1-1.5,0.5c-0.2,0.6,0.4,0.9,0.7,1.2c2.2,2.1,4.7,3.9,7.5,5.2
		c13.6,6.6,27.6,7.3,42,3c5.3-1.6,10.1-4,14.3-7.6c0.4-0.3,1.2-0.6,0.9-1.3c-0.3-0.7-1-1.2-1.9-1c-0.4,0.1-0.8,0.2-1.2,0.3
		c-8.4,1.6-16.9,1.8-25.4,0.6c-0.6-0.1-0.9-0.3-0.9-1c0.3,0,0.7-0.1,1-0.1c8.7,0.9,17.3,1.1,25.9-0.8c0.8-0.2,2.1-0.7,2.9,0.3
		c1,1.2,1.4,0.2,1.9-0.4c2.2-2.7,3.4-5.8,3.9-9.3c0.2-1.3-0.3-1.5-1.4-1.7c-3.2-0.5-6.3,0-9.4,0.4c-5.5,0.8-10.8,2.6-16.3,4.9
		c1.4-4,1.4-7.8,1.2-11.6c-0.1-3.1,0.7-6.1,1.9-8.9c0.3-0.8,0.7-1.7,1.8-1.6c3.5,0.2,6.3-2.1,9.6-2.4c0.5,0,1-0.3,0.8-1.2
		c-3.2,0.4-6.4,0.2-9.5,2c0.5-1.1,1.4-1.6,2.2-2.3c0.7-0.6,0.9-1.3,2.1-0.2c1.2,1.2,2.6-0.4,3.5-1.5c1.1-1.3-0.1-1.9-0.9-2.3
		c-4.3-2.4-3.8-4-7.2,1c-0.2,0.3-0.5,0.5-0.7,0.7c-3.6,3.3-6.1,7.3-8,11.7c-1.9,4.3-3.7,8.6-5.6,12.8C78.8,56,77.5,59.1,78.5,62.6z
		 M52.2,31.9c2.2,0.8,4.1,2,6,1.9c3-0.1,3.8,1.5,4.5,3.7c0.5,1.5,1,3.1,1.1,4.7c0.1,4.6-0.4,9.1,1.2,13.9c-1.2-0.5-1.9-0.8-2.6-1
		c-6.9-2.7-13.9-4.5-21.4-4.2c-2.1,0.1-2.7,0.9-2.3,2.8c0.6,2.9,1.7,5.5,3.5,7.8c0.3,0.4,0.6,1.4,1.5,0.8c1.5-0.9,3-0.3,4.5-0.1
		c4.2,0.6,8.4,1.8,12.5,1.7c3.6-0.1,7.2-0.6,10.8-1c4.2-0.5,5.4-2.2,3.9-6.3c-2-5.4-4.5-10.6-6.7-16c-2.2-5.3-5.2-9.9-9.5-13.7
		c-3.2-2.9-3.1-3-6.6-0.6c-0.8,0.5-2.1,0.9-1.5,2.2c0.5,1.1,1.4,2.4,2.9,1.8c2.7-1,3.6,1,4.7,2.6C56.8,32.2,55,30.3,52.2,31.9z
		 M76.8,56.2c4.8-9.3,7.2-19.7,14.4-28c-9.8-2.2-19.2-2.1-28.8,0.1C69.6,36.8,72.2,47,76.8,56.2z M91.2,54c7.7-3,15.4-4.7,23.4-4.2
		c1.4,0.1,1.5-0.7,1.3-1.8c-1.5-6.7-6-11-11.5-14.6c-0.7-0.5-1.3-0.1-2,0c-2.4,0.7-4.7,1.6-7.1,2c-1.6,0.2-2.1,0.9-2.6,2.1
		C90.5,42.8,91.8,48.3,91.2,54z M62.6,45.3c0.3-2.6-0.1-5.6-1.5-8.4c-0.3-0.5-0.4-1.3-1-1.3c-2.6,0.3-4.7-1.3-7.1-1.9
		c-0.9-0.2-1.9-0.6-2.7,0c-5.5,3.4-9.7,8-11.6,14.4c-0.3,1.2-0.1,2,1.5,1.8c7.4-0.6,14.5,1,21.4,3.7c1.4,0.6,1.7,0.1,1.5-1.1
		C62.5,50.2,62.6,48,62.6,45.3z"/>
	<path class="st0" d="M263.3,40.1c-0.9,0.6-0.6,1.7-0.9,2.5c-1.4,4.4-4.6,6.5-9.6,6.2c-4.4-0.3-7.3-3.1-8-7.6
		c-1.1-7.7,4.2-12.6,11.7-10.9c3.2,0.7,4.8,2.9,5.9,5.8c0.3,0.8,0,1.9,0.9,2.5C263.3,39.1,263.3,39.6,263.3,40.1z M258,39.6
		c0.1-3.4-1.5-5.6-4.1-5.7c-2.7-0.1-4.3,1.9-4.4,5.4c-0.1,3.4,1.5,5.6,4.1,5.6C256.3,45,258,43,258,39.6z"/>
	<path class="st0" d="M131.6,41.3c0.1-1.8-0.1-3.9,0.3-6c0.9-4.8,8.5-6.6,11.5-3.8c0.7,0.7,1,0.7,2,0.2c5.2-3,10.9-1.6,11.7,5.1
		c0.4,3.4,0.1,7,0.1,10.5c0,2-1.6,1-2.5,1.2c-1,0.2-1.9,0.1-1.8-1.3c0.1-2.7,0-5.5,0-8.2c0-3.2-1-4.5-3.3-4.4
		c-2.2,0.1-3.1,1.3-3.1,4.3c0,2.6-0.1,5.3,0,7.9c0.1,1.6-0.7,1.8-2,1.7c-1.1-0.1-2.4,0.4-2.3-1.6c0.1-2.8,0.1-5.6,0-8.4
		c-0.1-2.8-1.1-4-3.3-3.9c-2.1,0.1-3.1,1.4-3.2,4.1c0,2.8-0.1,5.6,0,8.4c0.1,1.7-0.9,1.5-2,1.4c-0.9-0.1-2.4,0.7-2.3-1.3
		C131.7,45.3,131.6,43.5,131.6,41.3z"/>
	<path class="st0" d="M238.7,32.3c0-1.3,0-2.4,0-3.4c0-3.1,0.6-3.7,3.6-4.2c1-0.1,1,0.5,1,1c-0.1,5.6,0.5,11.2-0.2,16.8
		c-0.5,4-3.6,6.2-8.1,6.3c-4.4,0.1-7.5-1.9-8.5-5.7c-0.6-2-0.4-4-0.2-6C226.7,31.1,233.9,28.1,238.7,32.3z M238.7,39.9
		c0-0.6,0-1.2-0.1-1.8c-0.5-2.1-1.5-3.9-4-3.9c-2.4,0-3.3,1.7-3.7,3.8c-0.3,1.5-0.2,3.1,0.3,4.5c1,2.7,4.7,3.3,6.4,1.1
		C238.4,42.6,238.7,41.3,238.7,39.9z"/>
	<path class="st0" d="M160.4,58.4c0-1.6,0-2.8,0-4.1c0-1.5,0.8-2.5,2.2-3.1c1.7-0.7,2.5-0.4,2.4,1.7c-0.1,4.9,0,9.9-0.1,14.8
		c-0.1,3.7-2.6,6.6-6,7.2c-5.3,0.9-9-0.8-10.4-4.6c-1.2-3.2-1-6.4,0.3-9.4C150.7,56.4,155.3,55.4,160.4,58.4z M160.4,66.3
		c0-0.4,0-0.6,0-0.9c-0.1-3.1-1.8-5-4.3-4.8c-2.5,0.2-3.8,2.6-3.5,6.6c0.3,2.9,1.9,4.4,4.4,4.1c0.5-0.1,1-0.2,1.4-0.5
		C160.1,69.7,160.6,68.1,160.4,66.3z"/>
	<path class="st0" d="M176.2,43.8c-2,4.1-5.6,5.8-10.3,5c-3.9-0.7-6.4-3.4-6.8-7.5c-0.4-3.4-0.1-6.8,2.9-9c3-2.3,6.6-2.6,10.1-1.1
		c3.3,1.5,4.5,4.6,4.7,8c0.1,1.3-0.4,1.6-1.6,1.6c-3.2-0.1-6.5,0.1-9.7-0.1c-1.8-0.1-1.8,0.7-1.4,2c0.6,1.9,3.5,3,5.7,2.1
		C173,43.6,173,43.6,176.2,43.8z M168,37.7c0.6,0,1.2,0.1,1.8,0c0.6-0.1,1.5,0.4,1.8-0.4c0.3-0.8-0.2-1.5-0.7-2.1
		c-1.5-1.8-4.7-1.7-6.1,0.1c-0.5,0.6-1.1,1.3-0.7,2c0.4,0.7,1.2,0.3,1.9,0.3C166.6,37.8,167.3,37.7,168,37.7z"/>
	<path class="st0" d="M224.7,39.1c0,0.1,0,0.2,0,0.3c0.7,9-4.9,9.9-11.4,9.4c-2.5-0.2-4.1-2-4.4-4.3c-0.3-3,0.7-5,3.3-5.9
		c1.4-0.5,3-0.7,4.5-1c1.2-0.2,2.7-0.1,3.1-1.6c0.2-0.9-0.2-1.6-1.1-1.8c-1.5-0.4-3.3-0.9-4.2,0.6c-0.9,1.6-2,1.4-3.4,1.5
		c-1.6,0.1-2-0.4-1.4-1.9c0.9-2.2,2.1-3.9,5-3.6c1.3,0.1,2.7-0.7,4.2-0.5c4,0.6,5.5,2.1,5.7,6.2C224.7,37.4,224.7,38.2,224.7,39.1z
		 M219.8,41.8c-0.3-0.5,0.7-1.9-0.9-1.6c-1.5,0.2-3,0.6-4.4,1.1c-1,0.4-1.4,1.4-1.2,2.5c0.2,1.1,0.9,1.5,1.9,1.7
		C217.6,45.9,219.7,44.2,219.8,41.8z"/>
	<path class="st0" d="M146.5,65.6c0,0.2,0,0.3,0,0.5c0,7.4-5.7,11.3-12.7,8.7c-2.3-0.9-3.2-2.6-3.1-5c0.1-2.6,1.5-4.3,3.9-5.1
		c1.5-0.4,3.2-0.5,4.7-0.9c1.1-0.2,2.6-0.4,2.3-2c-0.2-1.5-1.7-1.6-2.8-1.6c-1.1,0-2.2,0.2-2.8,1.4c-0.3,0.6-0.5,1.1-1.3,1
		c-1.1-0.2-2.7,0.6-3.3-0.4c-0.5-0.9,0.3-2.3,1.1-3.2c1.8-2.3,6.3-3.1,10.2-1.8c2.7,0.9,3.7,2.6,3.8,6.2
		C146.5,64.1,146.5,64.9,146.5,65.6z M138.5,71.8c1.6,0,3.2-1.6,3.2-4c0-0.6,0.3-1.3-0.9-1.3c-3,0.1-5.7,1.5-5.6,3.2
		C135.3,71.3,136.4,71.8,138.5,71.8z"/>
	<path class="st0" d="M179.8,62.2c-1.4,0.1-2.4,0.1-3.1-1.1c-0.4-0.7-1.2-0.9-2-1c-1.3-0.1-2.9-0.2-3.3,1.3c-0.4,1.6,1.4,1.6,2.4,2
		c1.8,0.6,3.7,0.8,5.4,1.6c3.4,1.5,4.1,5.7,1.5,8.2c-2.9,2.8-10,2.8-12.8,0c-1-1-2.4-2.6-1.1-3.6c1-0.8,3.2-1.2,4.4,0.7
		c1,1.5,2.7,1.7,4.4,1.4c0.9-0.1,2-0.5,2-1.6c0-1-0.9-1.4-1.7-1.6c-1.6-0.4-3.1-0.8-4.7-1.2c-3.3-1-4.4-2.3-4.3-5.1
		c0.1-2.7,1.8-4.5,4.7-5.2c4-0.9,7.8,0.1,9.3,2.5c0.5,0.7,1,1.6,0.7,2.4C181.3,62.7,180.3,62.1,179.8,62.2z"/>
	<path class="st0" d="M195.2,39.5c0.2,4.1,1.5,5.7,4.4,5.4c1-0.1,1.9-0.4,2.2-1.4c0.8-2.7,3-1.4,4.6-1.7c1-0.1,0.7,0.8,0.6,1.3
		c-0.5,1.8-1.5,3.2-3,4.3c-2.9,1.9-7.7,2-10.4,0c-3.5-2.5-3.8-6.2-3.3-10.1c0.9-7.3,10.2-8.3,14.5-5.5c0.8,0.5,1.5,1.2,1.8,2.1
		c0.3,1,1.4,2.4,0.2,2.8c-1.3,0.4-3.4,1-4.4-0.5c-1.2-1.9-2.7-2.7-4.7-1.9c-2.1,0.8-2.7,2.8-2.5,4.9
		C195.2,39.3,195.2,39.4,195.2,39.5z"/>
	<path class="st0" d="M178.9,42.8c0.1-1.8,0-3.6,0.3-5.3c0.6-4.5,4.2-7.4,8.7-7.3c1.2,0,1.7,0.5,1.4,1.5c-0.3,1,1.1,2.6-1.1,3.1
		c-4.1,0.9-4.5,1.4-4.5,5.6c0,1.9-0.1,3.7,0,5.6c0.1,1.8-0.2,2.5-2.3,2.5c-2.1,0-2.7-0.6-2.5-2.6C179,44.9,178.9,43.8,178.9,42.8
		C178.9,42.8,178.9,42.8,178.9,42.8z"/>
	<path class="st0" d="M78.5,62.6c0.7,0.2,1.4,0.4,2,0.6c0,0.6,0.3,0.9,0.9,1c8.5,1.2,17,0.9,25.4-0.6c0.4-0.1,0.8-0.2,1.2-0.3
		c0.9-0.1,1.5,0.4,1.9,1c0.3,0.7-0.5,1-0.9,1.3c-4.2,3.6-9.1,6.1-14.3,7.6c-14.3,4.2-28.4,3.6-42-3c-2.8-1.3-5.3-3.1-7.5-5.2
		c-0.3-0.3-1-0.6-0.7-1.2c0.3-0.7,1-0.6,1.5-0.5c1.8,0.3,3.5,0.6,5.2,1c3.8,0.9,7.6,0.2,11.4,0.6c3.4,0.4,6.7-0.5,10-0.6
		c1.1,0,2.4-0.3,3-1.1C76.7,61.9,77.6,62.6,78.5,62.6z"/>
	<path class="st0" d="M76.8,56.2c-4.7-9.2-7.2-19.4-14.3-27.9c9.6-2.2,19-2.3,28.8-0.1C84.1,36.5,81.7,47,76.8,56.2z"/>
	<path class="st0" d="M91.2,54c0.6-5.7-0.7-11.1,1.5-16.4c0.5-1.3,1-1.9,2.6-2.1c2.4-0.3,4.7-1.3,7.1-2c0.6-0.2,1.3-0.5,2,0
		c5.5,3.6,10,7.9,11.5,14.6c0.2,1.1,0.2,1.9-1.3,1.8C106.5,49.2,98.9,51,91.2,54z"/>
	<path class="st0" d="M62.6,45.3c0,2.7-0.1,4.9,0.4,7.1c0.3,1.2,0,1.7-1.5,1.1c-6.9-2.6-14-4.2-21.4-3.7c-1.6,0.1-1.8-0.7-1.5-1.8
		c1.9-6.4,6-10.9,11.6-14.4c0.8-0.5,1.8-0.2,2.7,0c2.4,0.6,4.5,2.1,7.1,1.9c0.7-0.1,0.8,0.7,1,1.3C62.5,39.7,62.9,42.7,62.6,45.3z"
		/>
</g>
</svg>
