<?xml version="1.0" encoding="utf-8"?>
<!-- Generator: Adobe Illustrator 24.0.2, SVG Export Plug-In . SVG Version: 6.00 Build 0)  -->
<svg version="1.1" id="Capa_1" xmlns="http://www.w3.org/2000/svg" xmlns:xlink="http://www.w3.org/1999/xlink" x="0px" y="0px"
	 viewBox="0 0 300 100" style="enable-background:new 0 0 300 100;" xml:space="preserve">
<style type="text/css">
	.st0{fill:#FFFFFF;}
</style>
<g>
	<path class="st0" d="M67.6,86c-12.4-0.2-24.4-2.3-34.7-9.7C23,69.1,18.3,59.5,20.7,47.1c1.4-7.2,6-12.3,11.8-16.4
		c19.1-13.7,52-13.6,70.9,0.2c8.1,5.9,13,13.5,12,23.9c-1,10.5-6.7,18.1-15.7,23.4C89.7,84.1,78.9,85.9,67.6,86z M73,65.5
		c1.1,1,2.2,2,3.3,2.9c1.4,1.2,2.8,0.9,4-0.2c1.2-1.2,0.3-2.2-0.6-3.2c-1.3-1.5-2.6-3-4-4.5c2.7,0.4,4.1,2.3,5.7,3.9
		c1.6,1.6,3.3,1.6,4.9,0.2c1.9-1.7,0.6-3-0.6-4.4c-1.8-2-4.2-3.5-5.2-6.3c2.5,1.7,4.8,3.7,7.1,5.7c1.6,1.5,3.4,1.8,4.9,0.1
		c1.7-1.9,0.1-3.1-1.2-4.3c-4-3.5-8-7-12.1-10.4c-8.5-7.1-8.9-8.7-18.4-1c-2.5,2-5.4,2.2-8.4,1c-1.9-0.8-2.6-2.2-1-4
		c1.2-1.3,2.5-2.7,3.9-4.3c-9.6,1.1-9.7,1.1-17.8-1.5c-1.2-0.4-2.4-0.7-3.5-1.2c-1.7-0.9-2.9-0.4-4.3,0.9c-3,2.9-5.3,6.1-6.9,9.9
		c-0.9,2.2-0.4,3,1.9,3.5c5.2,1,10.3,2.5,15.1,4.8c1.6,0.8,3.3,0.4,4.6,0.8c4,0.9,8.2-0.5,12.3,1.9c2.9,1.7,6.9,1.5,7.5,6
		c0,0.2,0.6,0.3,1,0.4c3,1,4.5,3,4.1,6.1c-0.2,1.5,0.5,2,1.7,2.3c1.1,0.3,2.5,0.5,3.2-0.3c1-1.2-0.7-1.8-1.2-2.6
		c-0.2-0.4-0.6-0.8-0.8-1.2C72.6,66.1,72.8,65.8,73,65.5z M67.4,80.5c4.2,0.1,8.4-0.2,12.5-0.9c10.5-2,20.2-5.7,27.7-13.7
		c3.3-3.5,5.2-7.7,5.8-12.5c0.3-2.2-0.2-3.4-2.8-2.7c-4.8,1.3-9.5,2.6-14.1,4.4c-0.8,0.3-1.8,0.6-1.6,1.7c0.4,3.5-1.1,5.4-4.6,5.8
		c-1.1,0.1-1.2,1.1-1.6,1.8c-0.6,1.3-1.7,2.1-3,2.6c-3.5,1.2-6.2,3.9-10,4.8c-4.5,1-9-0.2-13.4,0.7c-0.5,0.1-1.2-0.7-1.9-1.1
		c-2.9-1.5-5.8-3.4-8.9-4.5c-3.7-1.3-5.5-5.1-9.2-6.2c-0.4-0.1-0.9-1.1-0.8-1.6c0.5-4.1-2.6-4.8-5.4-5.7c-3.5-1.2-7.1-2-10.6-3.2
		c-3.2-1.1-3.9,0.1-3.6,3.1c0.8,7.8,5.5,13.1,11.4,17.3C43.6,77.9,55.2,80.4,67.4,80.5z M52.5,42.8c3.3,1.4,4.5,1.4,6.9-0.1
		c0.9-0.6,1.8-1.3,2.7-2c6.8-5.2,8.8-5.3,15.5,0.2c4.7,3.9,9.2,7.8,13.8,11.8c1.2,1,2.1,1.7,3.9,0.9c5.1-2.3,10.4-3.9,15.8-5.1
		c2-0.4,2.4-1.1,1.7-3c-1.4-3.8-3.6-7-6.3-9.9c-1.4-1.5-2.5-1.7-4.5-1c-7.7,3.1-15.4,3-23-0.6c-2.7-1.3-5.5-2-8.5-2.2
		C62,31.5,57.5,37.1,52.5,42.8z M34.2,31.8c8.3,3.7,12.5,4.1,21,2.7c2-0.4,3.7-0.9,5.5-2c6.5-3.8,13-2.8,19.5,0.1
		c7.8,3.5,16.6,3.3,21.6-0.4C86.2,19.3,50.2,19,34.2,31.8z M67.9,67.4c-0.3-2.2-1.5-3.5-3.9-3.6c-0.8,0-2.2,0.9-1.9-1.1
		c0.5-3.6-0.9-4.8-4.7-4.3c-2.2,0.3-3.8-4.4-6.9-1.7c-1,0.9-1.5,1.1-2.3-0.3c-0.9-1.5-2.4-1.7-3.8-0.7c-1,0.7-1.6,1.6-1.2,2.9
		c0.5,1.6,1.6,2.7,3.3,2.1c1.5-0.5,1.9-0.2,2.1,1.3c0.4,4.5,6.4,1.4,7.3,5.4c0.2,0.6,1.6,0.9,2.4,0.5c1.8-1,2.1-0.1,2.7,1.4
		c0.7,1.6,2.2,2.3,4,1.8C66.8,70.5,67.7,69.2,67.9,67.4z"/>
	<path class="st0" d="M158.1,39.5c0,1.6-0.1,3.2,0,4.8c0.1,1.6,0,2.8-2.2,2.8c-2.3,0-2.6-1-2.5-2.9c0.1-3.1,0-6.2,0-9.2
		c0-2.5-1.2-4.1-3.8-4c-2.5,0.1-3.7,1.6-3.7,4.1c0,3.1-0.1,6.2,0,9.2c0,1.7-0.1,2.7-2.3,2.7c-2,0-2.5-0.7-2.5-2.6
		c0.1-3.1,0.1-6.2,0-9.2c0-2.3-0.7-4.2-3.5-4.2c-2.8,0-3.9,1.6-3.9,4.2c0,3.2-0.1,6.4,0,9.6c0.1,1.9-0.9,2.2-2.5,2.2
		c-1.6,0-2.5-0.2-2.5-2.2c0.1-3.3-0.1-6.7,0.1-10c0.4-7.5,6.9-11,13.3-7.2c0.9,0.5,1.4,0.8,2.5,0.2c7.5-4.1,13.1-0.7,13.3,7.9
		C158.2,37,158.1,38.3,158.1,39.5z"/>
	<path class="st0" d="M251.8,28.6c0-2.4-0.2-4.3,0.1-6.1c0.3-2.1,2.1-2.8,3.9-2.7c1.8,0.2,1,1.9,1.1,3c0.1,5,0.1,10.1,0,15.1
		c-0.1,6.1-3.4,9.4-9.4,9.5c-6,0.2-9.8-3.2-10.3-9.2c-0.1-1.3,0-2.7,0.2-4C238.9,26.7,244.4,24.3,251.8,28.6z M251.8,37
		c0-3.9-1.8-6.3-4.7-6.3c-2.9,0-4.7,2.4-4.7,6.3c0,4,1.7,6.3,4.7,6.3C250,43.2,251.8,40.9,251.8,37z"/>
	<path class="st0" d="M199.3,75.2c0,1.6,0.1,3.1,0,4.5c-0.3,2.2-2,3.2-4,3.1c-2.2-0.1-1.1-2.1-1.1-3.2c-0.1-4.7-0.1-9.4,0-14
		c0.1-5.7,3.2-8.9,8.8-9.4c6.1-0.5,9.9,2.4,10.8,8.1c0.4,2.2,0.1,4.5-0.4,6.6C211.6,77.2,206.2,78.9,199.3,75.2z M199.3,66.5
		c0,4.2,1.7,6.5,4.8,6.5c2.9,0,4.5-2.3,4.5-6.4c0-4.1-1.6-6.3-4.6-6.3C201,60.3,199.3,62.5,199.3,66.5z"/>
	<path class="st0" d="M169.4,70.4c0,1.2-0.1,2.5,0,3.7c0.2,2.1-0.6,2.7-2.7,2.8c-2.1,0-2.5-0.8-2.4-2.6c0.1-2.5,0-4.9,0-7.4
		c0-3.3-1.7-5-5-5c-3.2,0-4.7,1.7-4.7,4.8c0,2.3-0.1,4.7,0,7c0.1,2,0,3.2-2.6,3.2c-2.5,0-2.4-1.3-2.4-3c0-6.7,0-13.3,0.1-20
		c0-1.1-1-3,1.2-3.2c1.9-0.2,3.8,0.9,3.7,2.8c-0.3,4.1,1.6,3.8,4.7,3.5c5.5-0.5,9.4,3.1,10,8.7C169.5,67.2,169.3,68.8,169.4,70.4
		C169.4,70.4,169.4,70.4,169.4,70.4z"/>
	<path class="st0" d="M180,41.8c-3.2,5.6-9.5,7.3-14.8,4.3c-4.7-2.6-6.2-10.3-3.1-15.5c2.7-4.5,9.4-5.9,14.1-3
		c3.3,2,4.3,5.3,4.5,8.8c0.1,1.6-1,1.7-2.2,1.7c-3.3,0-6.7-0.1-10,0c-0.9,0-2.2-0.6-2.5,0.8c-0.2,1,0.2,1.9,0.9,2.7
		c1.7,1.9,4.1,2.3,6.1,1.2C175.2,41.6,177.3,41.7,180,41.8z M170.6,35c1.1-1.2,3.8,1.2,4.1-1.3c0.2-2.2-2-3.1-4.2-3.1
		c-2.3,0-4.3,1.2-4.1,3.3C166.6,35.9,169,34.2,170.6,35z"/>
	<path class="st0" d="M235.2,36.5c0,9-5,12.9-13.4,10.7c-2.8-0.7-4.2-2.5-4.4-5.2c-0.2-2.8,0.8-5.2,3.7-6.1c2-0.6,4.1-0.9,6.1-1.3
		c1.4-0.3,3-0.4,2.8-2.2c-0.2-1.8-1.9-2-3.4-2.1c-1.4,0-2.5,0.6-3.4,1.8c-1.2,1.8-3.5,1.4-4.6,0.6c-1.2-0.9,0.1-2.7,0.9-3.8
		c2-2.7,7.3-3.4,11.7-2c3.6,1.2,4.1,3.9,3.9,7C235.2,34.7,235.2,35.6,235.2,36.5z M225.4,43.8c2.8-0.4,4.6-1.7,4.9-4.6
		c0.1-0.9,0.3-2.4-1.3-1.8c-2.3,0.9-5.9-0.2-6.3,3.7C222.4,42.9,223.8,43.6,225.4,43.8z"/>
	<path class="st0" d="M146.2,62.4c-2.1,0.1-4.3,0.9-5.9-1.6c-0.7-1.1-2.4-1.1-3.8-0.8c-1,0.2-2,0.5-2.2,1.7
		c-0.2,1.3,0.9,1.7,1.8,1.9c2.2,0.7,4.6,1.1,6.7,1.9c2.5,0.9,4.1,2.6,4,5.6c-0.1,2.8-1.6,4.6-4.1,5.6c-4.2,1.7-10.2,0.9-12.5-1.8
		c-1-1.2-2.5-3-1.2-4c1.1-0.9,3.6-1.3,4.9,0.7c1.3,2.1,3.2,2,5.2,1.9c1.1-0.1,2.3-0.4,2.5-1.7c0.2-1.4-0.9-1.9-2-2.2
		c-2.1-0.6-4.3-1.1-6.4-1.8c-4.8-1.7-5.6-6.5-1.8-9.8C136.3,53.7,145,56.2,146.2,62.4z"/>
	<path class="st0" d="M181.6,77.4c-6.2,0-10.3-4.2-10.3-10.6c-0.1-6.4,4.3-10.9,10.5-10.9c6.3,0,10.2,4.3,10.2,11.1
		C192,73.5,188,77.4,181.6,77.4z M186.7,66.6c0-4.1-1.8-6.4-5.1-6.3c-3.1,0-5,2.5-5,6.5c0,4.1,1.9,6.3,5.2,6.3
		C185,73.1,186.7,70.8,186.7,66.6z"/>
	<path class="st0" d="M269.3,26.1c6.1,0.1,10.1,4.5,10.1,10.8c-0.1,6.5-4.3,10.7-10.7,10.6c-6.1-0.1-10.1-4.5-10-10.8
		C258.7,30.1,262.8,26,269.3,26.1z M263.9,36.6c-0.1,4,1.8,6.5,4.8,6.6c3.1,0.1,5.1-2.2,5.2-6.2c0.1-3.9-1.7-6.5-4.8-6.6
		C265.9,30.3,264,32.5,263.9,36.6z"/>
	<path class="st0" d="M233.9,62.4c-2.1,0-4.3,1-5.9-1.6c-0.7-1.1-2.4-1.1-3.8-0.8c-1,0.2-2,0.4-2.1,1.7c-0.1,1.3,0.8,1.7,1.8,2
		c2.2,0.7,4.5,1.1,6.8,1.9c2.4,0.8,4.1,2.6,4.1,5.2c0,2.8-1.5,4.9-4.2,6c-4.2,1.7-10.6,0.8-12.8-2c-0.9-1.1-2.4-2.8-0.9-3.8
		c1.1-0.7,3.6-1.3,4.8,0.8c1.3,2.2,3.5,2,5.6,1.8c1-0.1,2-0.6,2.2-1.7c0.2-1.2-0.7-1.7-1.7-2c-2.1-0.6-4.3-1.2-6.4-1.8
		c-2.4-0.7-4.3-2-4.4-4.8c-0.1-2.9,1.3-4.9,3.9-6.2C226.2,54.2,232.7,56.9,233.9,62.4z"/>
	<path class="st0" d="M215.3,39.7c-1.2,5.6-5.1,8.4-10.8,7.7c-5.5-0.6-8.7-4.6-8.6-10.5c0.1-6.3,3.4-10.2,9-10.7
		c6-0.6,9.5,1.8,10.4,7.3c-2.5,0.1-4.8,0.8-6.7-2c-1.2-1.9-3.9-1.4-5.6,0.3c-2.1,2.1-2,8.4,0.2,10.3c1.9,1.6,4.5,1.9,5.5-0.2
		C210.5,38.7,212.8,39.7,215.3,39.7z"/>
	<path class="st0" d="M183.1,40.5c0-2.3-0.1-4.7,0.5-7c1.2-4.4,5-7.3,9.4-7.4c1.5,0,2.1,0.6,1.8,1.9c-0.3,1.2,1.3,3.3-1.4,3.3
		c-4.1,0.1-5.1,2.7-5,6.2c0,2,0.1,3.9,0,5.9c-0.1,1.6,0.8,3.6-2.4,3.7c-3.2,0-3-1.6-2.8-3.7C183.2,42.5,183.1,41.5,183.1,40.5z"/>
	<path class="st0" d="M72.4,66.4c-0.6-0.4-1.5-0.9-1-1.5c0.6-0.8,1.2,0.1,1.6,0.6C72.8,65.8,72.6,66.1,72.4,66.4z"/>
</g>
</svg>
