<?xml version="1.0" encoding="utf-8"?>
<!-- Generator: Adobe Illustrator 24.0.2, SVG Export Plug-In . SVG Version: 6.00 Build 0)  -->
<svg version="1.1" id="Capa_1" xmlns="http://www.w3.org/2000/svg" xmlns:xlink="http://www.w3.org/1999/xlink" x="0px" y="0px"
	 viewBox="0 0 300 100" style="enable-background:new 0 0 300 100;" xml:space="preserve">
<style type="text/css">
	.st0{fill:#F6F6F6;}
</style>
<g>
	<path class="st0" d="M57.5,22.7c3.9,0.1,8.2-0.4,12.4,0.8c4.8,1.3,8,5,8.2,9.1c0,1.5-0.1,2-1.9,1.6c-6-1.4-12.1-0.5-18.1-0.7
		c-3.1-0.1-3.9,1.9-4.3,4.5c-1.5,9.9-3.2,19.9-4.7,29.8c-0.3,2.1-1.1,2.6-3.1,2.6c-10.5,0-8,0.3-6.9-8.2c1.6-11.7,3.7-23.4,5.4-35.1
		c0.5-3.3,1.6-5,5.2-4.6C52.1,22.9,54.6,22.7,57.5,22.7z"/>
	<path class="st0" d="M117,34.8c2.4,0,4.8-0.2,7.1,0c5.6,0.5,8.6,4.5,7.7,10.1c-1.2,8-5.3,11.8-12.9,12c-6.4,0.2-6.4,0.2-7.4,6.4
		c-0.7,4.6-3.2,6.1-7.7,4.9c-1.4-0.4-1.2-1.3-1-2.2c1.5-9.9,3-19.7,4.5-29.5c0.2-1.3,1-2,2.5-2c2.4,0.1,4.8,0,7.1,0
		C117,34.7,117,34.8,117,34.8z M116,50.4c4.4,0.1,6.7-1.7,6.9-5.1c0.1-2.6-1.6-4.1-5.1-3.9c-5.2,0.3-2.5,4.9-3.7,7.4
		C113.2,50.7,115.1,50.3,116,50.4z"/>
	<path class="st0" d="M203.9,34.7c2.7,0.2,6.1-0.4,9.3,0.7c2.8,1,4.5,2.9,5.2,5.8c1.7,7.7-4,15.3-11.9,15.8
		c-7.5,0.5-7.5,0.5-8.5,7.6c-0.2,1.3,0.3,3.3-1.5,3.6c-2.2,0.4-4.5,0.2-6.7-0.1c-0.9-0.1-0.6-1.4-0.5-2.2c1.5-9.7,3-19.4,4.5-29.1
		c0.2-1.5,1-2.2,2.7-2.2C198.8,34.8,201.1,34.7,203.9,34.7z M202.7,50.4c4.3,0,6.5-1.8,6.6-5.2c0.1-3.6-2.6-3.7-5.1-3.8
		c-2.6-0.1-3.5,2.2-3.7,7.4C200.5,50.8,201.7,50.3,202.7,50.4z"/>
	<path class="st0" d="M79.7,37.9c2.2,1.4,3,3,3.3,4.9c1.7,9.5-5,17.9-14.6,18.4C63,61.5,63,61.5,62.2,67c-0.1,0.7-0.3,1.4-0.4,2.1
		c-1.5,7.8-1.5,7.7-9.4,7.2c-2-0.1-2.4-1-2.1-2.7c0.9-5.7,1.9-11.5,2.8-17.2c0.3-2.2,1.6-3,3.7-2.9c2.5,0,5,0.1,7.5-0.3
		C72.7,51.8,77.7,46.6,79.7,37.9z"/>
	<path class="st0" d="M151.1,68.3c-1-0.3-2.8,1-3.6-1.3c-0.3-0.8-1-0.2-1.5,0c-7.6,3-12.6,1.9-15-3.3c-2.7-6,0.5-14.2,6.7-17.2
		c1.5-0.7,3.1-1.1,4.8-1.2c2.6-0.1,5.1,1.3,7.4,1.5c1.6,0.2,4.2-1.1,6.5-1.1c2,0,2.4,1,2.1,2.8c-1,5.7-2,11.4-2.7,17.2
		C155.4,68.7,153.5,68.5,151.1,68.3z M149.4,56.1c-0.1-3-2-4.7-5-4.6c-3.5,0.1-6.6,3.3-6.3,6.8c0.2,2.9,2,4.4,5,4.3
		C146.7,62.6,149.5,59.8,149.4,56.1z"/>
	<path class="st0" d="M231,45.4c1.4,0,3.6,0.3,5.4,1.9c1.6-1.9,3.7-1.4,5.8-1.6c2.8-0.2,3.2,1.1,2.8,3.4c-0.9,5.3-1.8,10.5-2.6,15.8
		c-0.2,1.3,0.1,3-1.6,3.2c-2.1,0.2-4.8,1.2-6.3-0.6c-1-1.1-1.3-0.9-2.1-0.4c-1.4,1-3,1.4-4.7,1.7c-5.2,0.9-9.4-1.9-10.7-7
		C214.9,53.5,221.4,45.3,231,45.4z M231.1,51.5c-3.6,0-6.6,3.2-6.5,6.7c0.1,2.8,2,4.4,5,4.4c3.7,0,6.5-2.9,6.4-6.6
		C235.9,53.2,234,51.5,231.1,51.5z"/>
	<path class="st0" d="M173.3,58.2c2.5-3.7,4.6-6.8,6.8-9.9c1.5-2.2,6.2-3.7,8.5-2.4c1.9,1,0.4,2.2-0.2,3.1
		c-5.3,7.7-10.9,15.3-15.9,23.2c-2.2,3.5-4.8,4.3-8.5,4c-2.6-0.2-2.8-1.3-1.2-2.8c5.6-5.2,5.1-10.9,2-17.1c-1.3-2.5-1.7-5.4-2.8-8
		c-0.8-2,0-2.5,1.8-2.7c5.3-0.5,5.7-0.2,7.2,4.8C171.6,52.9,172.4,55.3,173.3,58.2z"/>
	<path class="st0" d="M53.8,51.2c0.7-4.5,1.4-8.7,2-12.9c0.2-1.7,1-2.7,2.7-2.7c5.4,0.2,10.9-0.4,16.3,0.4c2.8,0.4,2.9,1.6,2.1,3.8
		c-2.3,6.9-7,10.8-14.3,11.3C59.8,51.4,56.9,51.2,53.8,51.2z"/>
	<path class="st0" d="M249.8,68.3c-3.4,0.8-4-0.5-3.4-3.8c1.7-9.2,2.9-18.5,4.4-27.8c0.7-4.1,4-1.6,6.1-1.9c2.5-0.4,1.7,1.7,1.5,2.9
		c-1.3,8.8-2.7,17.6-4.1,26.4C253.8,66.7,253.4,69.3,249.8,68.3z"/>
</g>
</svg>
