<?xml version="1.0" encoding="utf-8"?>
<!-- Generator: Adobe Illustrator 24.0.2, SVG Export Plug-In . SVG Version: 6.00 Build 0)  -->
<svg version="1.1" id="Capa_1" xmlns="http://www.w3.org/2000/svg" xmlns:xlink="http://www.w3.org/1999/xlink" x="0px" y="0px"
	 viewBox="0 0 300 100" style="enable-background:new 0 0 300 100;" xml:space="preserve">
<style type="text/css">
	.st0{fill:#FFFFFF;}
</style>
<g>
	<path class="st0" d="M278.5,58.2c0-0.1,0-0.1,0-0.2c0-0.1,0-0.2,0-0.2c-0.7,0-0.6,0.6-0.8,1c-3.6,8.6-13.2,10.1-18.9,4.6
		c-0.1-0.1-0.2-0.1-0.6-0.3c0,1.3,0,2.4,0,3.6c0,2.4,0,4.9,0,7.3c0,1.1-0.3,1.4-1.4,1.5c-3.8,0.1-3.8,0.2-3.8-3.6
		c0-9.6,0-19.2,0-28.9c0-1.6,0.5-2.1,2-1.9c1,0.2,2.4-0.5,3,0.3c0.5,0.7,0.3,2,0.4,3.3c1.7-1.8,3.4-3.2,5.7-3.7
		c5.4-1.3,11.3,1.8,13.6,7c0.2,0.5,0.2,1.2,0.9,1.5c0,0,0.1-0.1,0.1-0.1c0,0,0.1-0.1,0.1-0.2C278.5,52.3,278.5,55.3,278.5,58.2z
		 M265.3,61.8c4.4,0,7.9-3.6,7.8-8.1c-0.1-4.6-3.4-8.1-7.7-8.1c-4.3,0-7.5,3.5-7.5,8.2C257.9,58.5,261,61.9,265.3,61.8z"/>
	<path class="st0" d="M28.7,33.3c4.1,0,8.2,0,12.3,0c2.2,0,4.4,0.3,6.5,1c3.9,1.2,6.1,3.9,6.9,7.9c0.1,0.6,0.2,1.3,0.3,1.9
		c0.7,6.9-2.7,11.3-9.6,12.4c-2.7,0.4-5.4,0.4-8.2,0.3c-1.8-0.1-2.4,0.6-2.3,2.4c0.1,1.8,0,3.7,0,5.5c0,1.3-0.5,1.8-1.8,1.7
		c-1.4-0.1-2.7,0-4.1,0C28.7,55.4,28.7,44.3,28.7,33.3z M34.5,45c0,1.7,0,3.4,0,5.2c0,0.7,0.2,1.4,1,1.3c3,0,5.9,0.4,8.9-0.3
		c2.8-0.6,4.2-2.5,4.4-5.7c0.2-3.7-0.8-5.4-3.7-6.4c-3.1-1.1-6.3-0.5-9.5-0.5c-0.9,0-1,0.7-1,1.4C34.5,41.6,34.5,43.3,34.5,45z"/>
	<path class="st0" d="M180.7,32.5c4.3,0,7.8,1,11,3.1c0.9,0.6,1.1,1.1,0.3,1.9c-0.8,0.9-1.2,2.3-2.1,2.8c-1.1,0.5-2-0.9-3.1-1.3
		c-2.7-0.9-5.3-1.7-8.2-1c-2.1,0.5-3.2,1.7-3.4,3.4c-0.2,1.9,0.6,3.1,2.6,4c1.6,0.7,3.3,1.3,5.1,1.6c2.1,0.4,4.1,1.2,6,2.2
		c6.2,3.2,5.8,12.4,0.3,15.7c-5.1,3-10.2,2.4-15.4,0.5c-1.9-0.7-3.6-1.8-5.2-3.1c-0.7-0.5-0.8-1-0.1-1.7c1-1,1.7-2.4,2.8-2.9
		c1.2-0.5,2.1,1.2,3.2,1.8c2.6,1.4,5.3,2.2,8.3,2.1c1.1,0,2.1-0.4,3-0.9c2.5-1.6,2.5-4.9,0-6.4c-2.7-1.6-5.9-2-8.9-3
		c-1-0.3-2-0.7-3-1.2c-6.2-2.9-5.8-12.4-0.7-15.4C175.8,33.2,178.4,32.4,180.7,32.5z"/>
	<path class="st0" d="M158.3,62.8c-3,3.1-6.4,4.5-10.5,3.7c-5.7-1.1-9.4-5.6-9.9-12.1c-0.6-7.8,5.4-14.1,12.9-13.7
		c3,0.2,5.2,1.7,7.1,3.9c0.6-0.1,0.4-0.6,0.5-0.9c0.2-0.8-0.5-2,0.6-2.4c1.3-0.4,2.8-0.3,4.2,0c0.6,0.1,0.5,0.7,0.5,1.2
		c0,7.5,0,15,0,22.4c0,1-0.4,1.3-1.4,1.4C158.8,66.7,158.7,66.7,158.3,62.8z M151,45.7c-4.4,0-7.8,3.5-7.8,8.2c0,4.5,3.4,8,7.8,8
		c4.3,0,7.4-3.4,7.4-8.1C158.3,49.1,155.2,45.7,151,45.7z"/>
	<path class="st0" d="M202.6,45.3c1.9-2.5,3.9-3.8,6.5-4.3c6-1.1,11.1,2.8,11.2,8.8c0.1,5,0,10.1,0,15.1c0,1.1-0.4,1.4-1.4,1.4
		c-3.9,0.1-3.9,0.1-3.9-3.9c0-3.4,0-6.9,0-10.3c0-4.4-1.9-6.6-5.5-6.6c-4,0-6.8,2.8-6.8,6.9c0,4.1,0,8.2,0,12.3
		c0,1.2-0.2,1.7-1.6,1.7c-3.8,0-3.8,0.1-3.8-3.7c0-9.9,0-19.8,0-29.7c0-1.4,0.4-1.7,1.7-1.7c3.6,0,3.6,0,3.6,3.7
		C202.6,38.2,202.6,41.5,202.6,45.3z"/>
	<path class="st0" d="M86.1,66.8c-5.9,0-11-3.7-12.6-9.2c-1.6-5.7,0.8-11.8,5.7-14.9c4.9-3,11.8-2.4,15.9,1.3
		c1.6,1.5,2.5,3.3,2.9,5.4c0.3,1.3-0.1,2.1-1.4,2.6c-4.9,2-9.8,4.1-14.8,6.2c-0.5,0.2-1.2,0.2-1.3,0.8c-0.1,0.7,0.6,1,1,1.3
		c3.1,2.2,7.6,1.9,10.6-0.7c1-0.9,1.6-1,2.5,0.1c2.2,2.6,2.2,2.6-0.7,4.5C91.7,66,89.1,66.8,86.1,66.8z M87.1,46
		c-4.8,0-8.3,2.9-8.7,7c-0.1,0.9-0.1,1.8,1.3,1.2c3.8-1.6,7.6-3.3,11.4-4.9c1-0.4,0.9-0.9,0.3-1.6C90.1,46.5,88.6,45.9,87.1,46z"/>
	<path class="st0" d="M236.2,66.8c-7.5,0-13.2-5.7-13.2-13c0-7.5,5.8-13,13.5-13c7.3,0,13,5.7,13,13
		C249.5,61.3,243.8,66.9,236.2,66.8z M244.3,54c0-4.7-3.2-8.1-7.7-8.2c-4.6-0.1-8,3.4-8,8.1c0,4.6,3.4,8.1,7.9,8
		C240.9,61.9,244.2,58.5,244.3,54z"/>
	<path class="st0" d="M110.8,41.1c2.3-0.1,4.4,0.5,6.5,1.4c1.5,0.6,1.7,1.4,1,2.9c-0.8,1.5-1.3,2.3-3.1,1.2
		c-1.9-1.1-4.1-1.1-6.2-0.9c-0.4,0-0.8,0.2-1.2,0.3c-0.8,0.4-1.3,1-1.4,1.9c0,1,0.5,1.6,1.4,1.9c1.2,0.4,2.5,0.8,3.7,1.2
		c1.7,0.5,3.2,1.2,4.8,1.9c5,2.4,4.4,9.8,0.2,12.3c-1.8,1.1-3.7,1.6-5.7,1.6c-3.3-0.1-6.4-1-9.3-2.5c-1.4-0.8-2-1.6-0.8-3
		c0.1-0.1,0.1-0.2,0.2-0.3c1.3-2,1.3-2,3.2-0.8c1.7,1.1,3.6,1.9,5.6,2.2c1,0.2,2,0.2,3-0.2c1-0.4,1.7-1.1,1.8-2.2
		c0.1-1.1-0.6-1.7-1.5-2.2c-1.5-0.9-3.2-1.3-4.8-1.9c-1.4-0.5-2.8-1-4-1.8c-4-2.7-4-8.3,0.1-11C106.1,41.6,108.3,41,110.8,41.1z"/>
	<path class="st0" d="M123.2,47c0-4,0-8,0-11.9c0-1.3,0.5-1.8,1.8-1.8c3.7-0.1,3.7-0.1,3.7,3.5c0,4.4,0,4.4,4.4,4.4
		c1.8,0,2.2,0.6,2.2,2.3c0,1.7-0.5,2.3-2.2,2.3c-4.5,0-4.5,0-4.5,4.5c0,2.6,0,5.1,0,7.7c0.1,3.5,2.6,5.1,5.7,3.4
		c1-0.5,1.6-0.5,1.9,0.5c0.4,1.1,2.2,2,0.3,3.3c-2.7,1.9-5.6,2.3-8.6,0.9c-2.9-1.4-4.6-3.8-4.7-7C123.1,55,123.2,51,123.2,47z"/>
	<path class="st0" d="M63.7,45.6c1.9-2.1,3.5-3.8,5.8-4.5c2-0.6,2.3-0.4,2.3,1.7c0,0.7,0,1.3,0,2c0,0.9-0.3,1.4-1.3,1.6
		c-4.5,0.9-6.8,3.6-6.9,8.3c-0.1,3.2-0.1,6.4,0,9.6c0,1.5-0.4,2.1-2,2.1c-3.4,0-3.4,0-3.4-3.3c0-6.5,0.1-13.1,0-19.6
		c0-1.8,0.5-2.6,2.3-2.3c0.2,0,0.5,0,0.7,0c2.4,0,2.4,0,2.4,2.4C63.7,44.1,63.7,44.6,63.7,45.6z"/>
</g>
</svg>
