<?xml version="1.0" encoding="utf-8"?>
<!-- Generator: Adobe Illustrator 24.0.2, SVG Export Plug-In . SVG Version: 6.00 Build 0)  -->
<svg version="1.1" id="Capa_1" xmlns="http://www.w3.org/2000/svg" xmlns:xlink="http://www.w3.org/1999/xlink" x="0px" y="0px"
	 viewBox="0 0 300 100" style="enable-background:new 0 0 300 100;" xml:space="preserve">
<style type="text/css">
	.st0{fill:#FFFFFF;}
</style>
<g>
	<path class="st0" d="M69.6,22.4c-1,19.8-1.9,38.8-2.8,57.8c-0.1,1.7-0.1,3-2.6,2.5c-11.5-2.3-23-4.5-34.5-6.6
		c-2.5-0.5-3.2-1.4-2.9-3.9c1.7-12.1,3.3-24.3,4.8-36.4c0.4-3,1.5-4.9,4.6-5.4c3.3-0.5,5-2.3,5.9-5.7c1.6-5.6,4.7-10.4,10.5-12.9
		c1.9-0.8,3.3-0.3,5.1,0.3c4.9,1.5,7.5,5.8,11.4,8.5C70,21.3,69.6,22.4,69.6,22.4z M54.3,36.1c-6.5-0.1-12,3.4-14,8.6
		c-2.2,5.8-0.1,10.1,4.5,13.7c0.7,0.5,1.3,1.3,1.8,2c0.7,1,0.8,2.2,0.2,3.3c-0.7,1.2-1.9,1.4-3.1,1.2c-1-0.2-2-0.7-2.9-1
		c-1.2-0.4-2.5-2.4-3.5,0c-0.7,1.8-2.1,3.7,0,5.7c4.3,4.1,13,4,16.8-0.3c4.1-4.6,3.6-12-1.1-16.2c-1.4-1.2-3-2.1-4.3-3.4
		c-2.1-2.1-1.4-4.4,1.4-5.3c1.6-0.5,3.1,0,4.6,0.2c0.8,0.1,1.9,0.7,2.5-0.4c0.9-2.1,2.5-4.4,1.7-6.6C58.4,35.9,55.8,36.3,54.3,36.1z
		 M56,14.6c-2.1-0.9-3.4-0.1-4.6,0.6c-3.4,2.1-5.2,5.4-6.6,8.9c-0.4,1.1-1.4,2.4-0.5,3.3c1,1,2.4-0.1,3.5-0.5
		c1.1-0.3,1.6-1.2,1.9-2.3C50.7,20.7,52.4,17.3,56,14.6z M58.9,20.4c-0.3-1,0.3-2.8-1.7-3.1c-1.3-0.2-4.6,4.6-4.6,6.4
		c0,1.2,0.7,1.4,1.4,1.1C56.1,24,59.4,24.6,58.9,20.4z M61.2,16.8c0.5,1.8-0.9,4.1,1.3,5.2c0.6,0.3,1.8-0.1,1.9-0.9
		C64.5,19,63.4,17.5,61.2,16.8z"/>
	<path class="st0" d="M71.1,20.9c2.9,3,5.5,4.3,8.9,4.2c1.6-0.1,1.7,1.4,1.8,2.5c2.4,16,4.7,31.9,7.1,47.9c0.3,2.2-0.4,3.1-2.4,3.5
		c-5,1-10,2-14.9,3.2c-3.2,0.8-3.5-0.8-3.3-3.3c0.7-14,1.4-28.1,2.1-42.1C70.6,31.8,70.8,26.8,71.1,20.9z"/>
	<path class="st0" d="M197.7,42.3c1.5-1.1,2.8-2.4,4.4-3.2c5.5-2.8,10.9-0.2,12.5,5.7c1.9,7.3-1.7,17.5-7.9,22
		c-3.1,2.3-6.5,3.5-10.3,2.5c-2.7-0.7-3.5,0.4-3.8,2.7c-0.3,1.9-0.9,3.8-1.1,5.7c-0.2,2.1-1.3,2.8-3.3,3c-5.4,0.4-5.8,0-4.9-5.3
		c2.1-11.4,4.3-22.7,6.1-34.2c0.6-4,3.3-2.8,5.5-2.9c2.9-0.2,2,1.9,2.1,3.5C197,42.3,197.1,42.8,197.7,42.3z M206.1,50.5
		c0-2.4-0.3-4.7-2.6-5.5c-2.3-0.8-4,0.8-5.2,2.5c-2.2,3.1-2.7,6.7-3.2,10.3c-0.2,1.7-1.6,3.6,1,4.7c2.2,0.9,4.1,0.1,5.7-1.4
		C204.7,58.2,205.6,54.3,206.1,50.5z"/>
	<path class="st0" d="M137,42.1c3.3-2.4,5.7-3.9,8.7-4c4.3-0.1,7.2,2.1,7.2,6.4c0.1,7.8-2,15.2-3.8,22.7c-0.8,3.3-4.3,1.5-6.5,1.5
		c-2.6,0-1.5-2.3-1.3-3.6c0.8-4.9,1.8-9.7,2.6-14.6c0.3-2,0.9-4.5-1.7-5.4c-2.6-0.9-4.1,1.1-5.3,3c-1.6,2.5-2.2,5.3-2.7,8.1
		c-0.6,3.2-1.2,6.4-1.7,9.6c-0.3,2.1-1.3,3-3.6,3.1c-5.5,0-5.5,0.1-4.4-5.4c2.2-11.3,4.3-22.5,6.5-33.8c0.7-3.8,4.3-5.6,7.7-3.9
		c1.8,0.8,0.9,2.2,0.7,3.4C138.7,33.2,137.9,37.1,137,42.1z"/>
	<path class="st0" d="M264.8,57.9c2-5.3,4-10.4,5.9-15.5c1.5-3.9,4.6-5.2,8.6-4c1.5,0.5,1.1,1.2,0.7,2c-5.6,11.5-9.7,23.7-17.5,34
		c-2.1,2.7-4.5,5.1-7.6,6.6c-1.5,0.7-3.5,2.5-4.4-0.5c-0.6-2-3.1-4.5,0.8-6.2c1.1-0.4,2.1-1.2,3-1.9c3.1-2.4,4.6-5.3,3.7-9.5
		c-1.5-6.9-2.7-13.8-3.8-20.8c-0.2-1.3-1.9-3.9,1.3-3.8c2.5,0.1,6.4-2.3,7.1,2.8c0.5,4,0.8,8,1.2,12.1
		C263.6,54.7,263.5,56.2,264.8,57.9z"/>
	<path class="st0" d="M155.4,57.3c0.1-10.8,7.7-19.4,17-19.3c6.4,0.1,10.6,3.6,11.5,9.9c1.5,10.1-5.5,20-15.1,21.2
		C161,70.2,155.4,65.2,155.4,57.3z M164.1,56.9c0.2,2.4,0.3,4.9,3.1,5.7c2.9,0.9,4.7-1,5.9-3.3c1.8-3.2,2.7-6.8,2.4-10.5
		c-0.1-1.9-0.8-3.6-2.9-4.2c-2-0.5-3.6,0.2-4.8,1.8C165.3,49.5,164.5,53.1,164.1,56.9z"/>
	<path class="st0" d="M235.2,68.9c-3.1,0.6-4-0.7-3.2-4.1c1.2-5.3,2.1-10.7,3.1-16.1c0.3-1.7,1.1-3.7-1.9-4.2
		c-1.3-0.2-1.2-1.3-0.9-2.2c0.5-1.4-0.1-3.7,1.9-3.8c2.7-0.1,2.9-1.9,3.5-3.8c2.1-6.8,6.7-10.4,13.1-10.1c1.4,0.1,4-0.6,3.7,2.1
		c-0.2,1.9,0.1,4.8-3.4,4.6c-1.8-0.1-3.2,0.9-4.3,2.4c-2,2.9-1.5,4.2,1.9,4.6c1.5,0.2,2.3,0.6,2,2.1c-0.4,1.6,0.2,4.3-2.5,4.1
		c-4.1-0.4-4.6,2.1-5.1,5.1c-0.9,5.1-1.8,10.3-2.8,15.4C239.7,68.9,239.7,68.9,235.2,68.9z"/>
	<path class="st0" d="M116.7,38.1c1,0.1,2.1,0,3.1,0.3c1.5,0.4,3.8,0.1,3,2.8c-0.6,1.8-0.5,4.5-3.8,3.5c-0.7-0.2-1.5-0.3-2.3-0.3
		c-1.7,0-3.6,0.1-4.2,2.1c-0.6,1.9,0.9,2.8,2.2,3.7c0.5,0.4,1.1,0.7,1.6,1c3.4,2.3,6,5.1,5,9.7c-1,4.6-4.2,7-8.6,8
		c-3.2,0.8-6.5,0.5-9.7-0.3c-1.8-0.5-3.2-1.3-2.2-3.6c0.7-1.8,1.1-4,3.9-2.6c0.7,0.3,1.5,0.4,2.3,0.6c2.2,0.4,4.4,0.4,5.4-1.8
		c1.1-2.4-1-3.5-2.5-4.7c-0.7-0.6-1.5-1-2.2-1.6c-5.8-4.5-5.1-11.8,1.4-15.3C111.5,38.4,114,38.1,116.7,38.1z"/>
	<path class="st0" d="M219.5,68.9c-3.2,0.5-4.2-0.6-3.5-3.9c1.7-7.7,3-15.6,4.4-23.4c0.5-2.7,5.9-4.7,8-3c0.9,0.8,0.7,1.9,0.5,2.9
		c-1.5,8.3-3.2,16.6-4.7,24.9C223.7,69.7,221.3,68.7,219.5,68.9z"/>
	<path class="st0" d="M222.5,30.5c0.2-2.7,1.6-4.5,4.5-4.6c2.8-0.1,4.3,1.7,4.2,4.4c-0.1,2.9-1.9,4.6-4.7,4.6
		C223.9,34.9,222.5,33.3,222.5,30.5z"/>
	<path class="st0" d="M197.7,42.3c-0.6,0.4-0.6,0-0.6-0.4C197.3,42,197.5,42.2,197.7,42.3z"/>
</g>
</svg>
