<?xml version="1.0" encoding="utf-8"?>
<!-- Generator: Adobe Illustrator 24.0.2, SVG Export Plug-In . SVG Version: 6.00 Build 0)  -->
<svg version="1.1" id="Capa_1" xmlns="http://www.w3.org/2000/svg" xmlns:xlink="http://www.w3.org/1999/xlink" x="0px" y="0px"
	 viewBox="0 0 300 100" style="enable-background:new 0 0 300 100;" xml:space="preserve">
<style type="text/css">
	.st0{fill:#F6F6F6;}
</style>
<g>
	<path class="st0" d="M71.4,68.7c1,2.8,1.8,5.2,2.8,8.1c-1-0.3-1.5-0.2-1.8-0.5c-9.7-7.6-20.9-8.4-32.6-7.6c-5.3,0.3-10.7,0.2-16,0
		c-5.9-0.1-9.4-3.3-9.5-9.3c-0.2-9.2-0.2-18.3,0-27.5c0.1-5.8,3.7-9.1,9.6-9.1c24.3-0.1,48.6-0.1,73,0c6.3,0,9.6,3.2,9.8,9.5
		c0.2,9,0.2,18,0,27c-0.1,6.2-3.6,9.3-9.9,9.4C88.4,68.7,80.1,68.7,71.4,68.7z M45.3,48c-0.8-3-1.6-6.1-2.3-9.1
		c-0.5-1.9-0.5-4.3-3-4.6c-2.4-0.3-3.2,2-4.1,3.7c-2.3,4.4-4.7,8.7-7.7,14.2c-1.3-7.3-2.3-13.1-3.3-19c-0.4-2.2-1.1-3.9-3.8-3.5
		s-3,2.3-2.6,4.5c1.6,8.3,2.7,16.7,5.3,24.8c0.6,1.9,0.7,4.7,3.4,4.9c2.5,0.2,3.4-2.3,4.6-4.1c0.6-1,1.1-2.1,1.7-3.1
		c1.8-2.8,2.3-6.3,5.2-8.7c1.7,5.1,3.6,9.7,6.9,13.6c1.2,1.4,2.4,3,4.6,2.3c2.4-0.7,1.9-2.8,1.9-4.6c0.2-8.5,1.3-16.9,4-25
		c0.8-2.4,2.2-5-1.2-6.2C51.7,27,51,29.9,50,32C47.7,37,47.5,42.6,45.3,48z M80.1,47.5c0,5.7,2.1,10.3,5.9,11.8
		c3.6,1.4,7.2,1.2,10.3-1.5c4.9-4.3,7-13.8,4.5-19.8c-2.8-6.6-10.5-8.2-15.5-3C81.9,38.4,80.1,42.7,80.1,47.5z M78.1,44.9
		c0.1-7.4-2.8-11.8-8-12.9c-4.8-1-9.4,2-11.9,7.9c-1,2.4-1.6,5.1-1.8,7.7c-0.4,6,2.8,11.1,7.4,12.2c5.4,1.3,9.8-1.3,12.6-7.3
		C77.6,49.9,78.2,47.1,78.1,44.9z"/>
	<path class="st0" d="M252.8,43.7c-7.7,5.6,1.4,9.9,0.7,14.8c-9,3.2-8.2-6.3-12.4-10.6c0,2.8-0.1,4.9,0,7c0.1,2.3,0.3,4.1-3.1,4
		c-3.1-0.1-3.9-0.9-3.8-4c0.2-6.1,0.2-12.3,0-18.5c-0.1-2.6,0.8-3.6,3.4-3.4c2.3,0.2,4.7,0.2,7,0.3c4.9,0.4,8,2.9,8.6,8.7
		c2.9-6.8,7.5-9.9,14.4-9.5c2.4,0.1,3.1,0.9,3.1,3.2c0,2.5-0.7,2.9-3.2,2.9c-4.6-0.1-6.9,2.5-6.9,7.2c0,4.9,2.5,7.6,7.3,7.4
		c1.7-0.1,2.9-0.5,2.7,1.9c-0.1,1.7,0.5,3.5-2.3,4.1c-5.8,1.2-12.7-2.7-14.4-8.7C253.3,48.4,253.2,46.1,252.8,43.7z M241,40.9
		c0.5,1.1-1.1,3.3,1.8,3c1.6-0.2,3-0.7,3-2.6c0-2-1.5-3-3.2-3.2C240.3,37.8,241.3,39.8,241,40.9z"/>
	<path class="st0" d="M162.3,45c-0.4,3.6-1.2,7.2-1.2,10.7c0.1,3.4-1.8,3-4.1,3.1c-3.2,0.2-2.5-1.7-2.2-3.5
		c0.8-6.4,1.6-12.8,2.2-19.3c0.3-2.6,1.7-3.4,4.1-3c2.2,0.4,5.2-1.3,5.8,2.7c0.5,3.2,1.3,6.4,2.6,9.5c0.5-2.5,1.3-5,1.6-7.6
		c0.5-3.9,2.3-5,6.2-4.9c3.3,0.1,4.3,1.2,4.6,4.2c0.7,7,1.7,14.1,2.6,21.1c-4.8,1.7-7.3,0.4-7.3-5.1c0-2.9-0.6-5.8-1.1-9.9
		c-2.5,4.9-2.8,9.2-4,13.1c-0.5,1.6-0.9,2.5-2.8,2.5c-1.8-0.1-2.5-0.6-2.9-2.4c-0.9-3.9-2.1-7.8-3.1-11.7
		C163.1,44.9,162.7,44.9,162.3,45z"/>
	<path class="st0" d="M194.4,42.7c-1.7,4.8-1.2,9.4-1.9,13.8c-0.6,3.6-3.2,2.1-5,2.2c-2.6,0.1-1.6-2.1-1.4-3.3
		c0.8-6.6,1.9-13.1,2.6-19.7c0.2-2.2,1.2-3.1,3.1-2.5c2.1,0.6,5.2-2,6.2,1.9c0.8,3.4,1.5,6.8,2.3,10.4c2-2.5,2.1-5.6,2.4-8.3
		c0.5-4.9,3.8-3.8,6.8-4.1c3.7-0.4,3.3,2,3.6,4.3c0.8,6.1,1.8,12.1,2.7,18.2c0.2,1.6,0.8,3.6-2.1,3.2c-1.9-0.3-4.6,1.2-4.8-2.5
		c-0.3-4.3-0.8-8.6-1.2-13.6c-2.4,4.4-2.6,8.9-3.7,13c-0.5,1.7-0.7,3.1-3,3.1c-2.2,0-2.7-1.1-3.1-2.9
		C196.9,51.6,195.6,47.4,194.4,42.7z"/>
	<path class="st0" d="M153.8,45.8c0,8.3-4.3,13.6-11.2,13.7c-7.2,0-11.5-5.1-11.4-13.9c0-8.2,4.1-12.9,11.1-12.9
		C149.7,32.6,153.8,37.3,153.8,45.8z M146.4,45.7c-0.1-0.7-0.1-1.4-0.2-2c-0.3-2.5-0.6-5.4-3.8-5.4c-3.3,0-3.4,3-3.7,5.5
		c-0.1,0.7-0.2,1.3-0.1,2c0.5,3-0.9,7.7,3.8,7.7C147.1,53.4,145.7,48.7,146.4,45.7z"/>
	<path class="st0" d="M272.7,45.8c0-0.8,0-1.7,0-2.5c0-10.9,0-10.8,10.9-10.2c1.9,0.1,3,0.3,3.1,2.7c0.1,2.6-1,3-3.2,3
		c-1.5,0-3.9-1.3-4.1,1.8c-0.2,3.2,2,2.9,4,2.8c2.2-0.1,2.3,1.1,2.4,2.8c0,2-0.9,2.5-2.7,2.5c-1.6,0-3.8-0.7-3.6,2.4
		c0.2,3,2.3,2.3,3.9,2.3c2,0,3.4,0,3.5,2.8c0,3.1-1.8,2.5-3.5,2.6c-10.5,0.3-10.5,0.3-10.5-10C272.7,47.8,272.7,46.8,272.7,45.8z"/>
	<path class="st0" d="M218.1,45.8c0-0.8,0-1.7,0-2.5c0-10.5,0-10.4,10.6-10.1c2,0.1,3.4-0.1,3.5,2.7c0,2.7-1.2,2.9-3.3,2.9
		c-1.5,0-3.8-1.2-3.9,2.1c-0.1,3,1.7,2.8,3.5,2.6c2.4-0.3,2.6,0.9,2.7,2.9c0.1,2.1-0.9,2.5-2.7,2.4c-1.7-0.1-3.7-0.6-3.5,2.5
		c0.1,3.2,2.4,2.2,3.9,2.2c2.1,0,3.3,0.1,3.4,2.8c0,3.1-1.8,2.5-3.6,2.5c-10.5,0.2-10.5,0.2-10.5-10.5
		C218.1,47.5,218.1,46.6,218.1,45.8z"/>
	<path class="st0" d="M125.6,32.7c1.5,0.5,4.5-1.2,4.3,2.7c-0.1,2.2,0.1,3.6-3.1,3.4c-4.8-0.3-7.1,2.5-7,7.4
		c0.1,4.5,2.6,7.3,7.1,7.1c2-0.1,3-0.4,3,2.2c0,2.3-0.4,3.6-3.1,3.9c-7.5,0.9-13.7-4.4-14.4-12.4C111.8,38.7,117.2,32.7,125.6,32.7z
		"/>
	<path class="st0" d="M95.3,44c0,3.2-0.5,5.9-2.6,8.1c-2.5,2.6-4.8,2-5.7-1.5c-0.7-2.6-0.6-5.3,0.6-7.8c1-2.1,2.1-4.6,4.9-4.1
		C95.5,39.2,95,42.1,95.3,44z"/>
	<path class="st0" d="M62.9,47.1c0.2-3.2,1.2-6.3,4.2-8.2c1-0.7,2.4-0.5,3.2,0.6c2.3,3,2,6.2,0.7,9.5c-0.9,2.4-2.3,5.1-5.1,4.6
		C63,53,63,49.9,62.9,47.1z"/>
</g>
</svg>
