<?xml version="1.0" encoding="utf-8"?>
<!-- Generator: Adobe Illustrator 24.0.2, SVG Export Plug-In . SVG Version: 6.00 Build 0)  -->
<svg version="1.1" id="Capa_1" xmlns="http://www.w3.org/2000/svg" xmlns:xlink="http://www.w3.org/1999/xlink" x="0px" y="0px"
	 viewBox="0 0 300 100" style="enable-background:new 0 0 300 100;" xml:space="preserve">
<style type="text/css">
	.st0{fill:#FFFFFF;}
</style>
<g>
	<path class="st0" d="M147.5,55.7c1.6,1.6,2.9,3.1,4.4,4.6c1,1,2.2,1.8,3.7,2.1c3,0.7,4.4-0.3,4.5-3.4c0.1-3.3,0-6.5,0-9.8
		c0-1.9-0.5-3.4-2.8-3.5c-0.4,0-0.9,0-0.8-0.6c0.1-0.6,0.6-0.5,0.9-0.5c4,0.1,8-0.2,12,0.2c6.5,0.7,9.9,5.5,8.6,11.5
		c-0.8,3.8-3.9,6.5-8.5,7c-6.2,0.6-12.5,0.1-18.7,0.2c-0.8,0-1.2-0.6-1.6-1.1c-1.6-2-3.2-4-4.8-6.1c-0.3-0.4-0.6-0.8-1.1-0.7
		c-0.7,0.2-0.4,0.8-0.4,1.2c0,0.7,0,1.5,0,2.2c0,1.8,0.6,3.2,2.7,3.3c0.4,0,0.9,0.1,0.9,0.6c0,0.6-0.5,0.5-0.9,0.5
		c-3.1,0-6.2,0-9.4,0c-0.4,0-0.9,0.1-1-0.5c-0.1-0.7,0.6-0.6,1-0.7c1.9-0.2,2.6-1.3,2.6-3c0-3.5,0-7.1,0-10.6c0-1.8-0.6-3-2.7-3.1
		c-0.4,0-0.9,0-0.9-0.5c0-0.7,0.6-0.6,1.1-0.6c3.4,0,6.8,0,10.2,0.1c1.2,0,2.3,0.3,3.3,0.9c1.9,0.9,3,2.3,3,4.4
		c0.1,2.1-1,3.6-2.8,4.6C149.3,55.1,148.5,55.3,147.5,55.7z M164,53.7C164,53.7,164,53.7,164,53.7c0,2,0,4.1,0,6.1
		c0,0.9,0.2,1.9,1.3,2c2.4,0.3,4.6,0.1,6.4-1.7c2.1-2.1,2.6-7.3,1.1-10.4c-1.3-2.5-4.4-3.8-7.9-3.3c-1,0.1-0.9,0.7-0.9,1.4
		C164,49.8,164,51.8,164,53.7z M144.5,46.5c-1.5-0.4-1.9,0.4-1.8,1.9c0.1,1.5,0,3,0,4.5c0,0.5-0.2,1.2,0.7,1.2
		c1.6,0.1,3.3,0.2,4.5-1.2c1-1.3,1-2.8,0.5-4.2C147.7,46.8,146.3,46.3,144.5,46.5z"/>
	<path class="st0" d="M239.8,58.2c0.4,1.8,0,3.3,0,4.9c0,0.8-0.8,0.6-1.3,0.6c-7.1,0-14.1,0-21.2,0c-0.9,0-1.3-0.4-1.8-1.1
		c-1.6-2-3.2-4-4.8-6.1c-0.3-0.4-0.5-0.9-1.1-0.7c-0.8,0.2-0.5,0.9-0.5,1.4c0,0.9,0.1,1.8,0.1,2.6c0.1,1.6,0.8,2.6,2.4,2.7
		c0.4,0,1.1-0.1,1.1,0.6c0,0.7-0.7,0.5-1.1,0.5c-3.1,0-6.1,0-9.2,0c-0.4,0-0.9,0.1-0.9-0.5c0-0.6,0.5-0.6,0.8-0.6
		c2.2-0.1,2.7-1.5,2.7-3.3c0-3.4,0-6.8,0-10.2c0-1.8-0.6-3.2-2.8-3.3c-0.4,0-0.9,0-0.8-0.6c0-0.6,0.5-0.5,0.9-0.5
		c3.6,0,7.2,0,10.8,0.1c1.2,0,2.3,0.4,3.3,1c3.5,2,3.5,6.6,0.1,8.7c-0.7,0.5-1.6,0.7-2.7,1.2c2.3,2.2,4,5,7,6.3
		c2.8,1.3,4.6,0.2,4.7-2.8c0.1-3.3,0-6.7,0-10c0-1.9-0.5-3.4-2.8-3.5c-0.4,0-0.9,0-0.8-0.6c0.1-0.6,0.6-0.5,1-0.5
		c4.9,0,9.8,0,14.7,0c0.7,0,1.1,0.2,1.1,1c0,1.2,0.2,2.3,0.3,3.5c0,0.3,0.1,0.7-0.3,0.8c-0.4,0.1-0.6-0.3-0.7-0.6
		c-0.3-1.1-0.6-2.3-1.9-2.6c-1.9-0.6-4.1-0.8-5.8-0.2c-1.5,0.6-0.4,2.9-0.6,4.4c-0.1,0.6-0.4,1.4,0.6,1.7c1.7,0.6,3.6-0.5,4.1-2.4
		c0.1-0.4,0.1-0.9,0.6-0.9c0.6,0,0.5,0.5,0.5,0.9c0,2.2,0,4.3,0,6.5c0,0.4,0.1,0.9-0.4,1c-0.7,0-0.7-0.5-0.7-1
		c0-1.1-0.5-1.8-1.6-2.1c-2.5-0.7-3.1-0.3-3.1,2.3c0,4.5,0.4,5,4.8,4.9C237.1,61.9,237.1,61.9,239.8,58.2z M211,46.5
		c-1.4-0.3-2.1,0.2-2,1.9c0.1,1.5,0,3,0,4.5c0,0.5,0,1.2,0.7,1.2c1.5,0,3.2,0.2,4.3-1.1c1.1-1.3,1.2-2.9,0.6-4.4
		C214.1,46.9,212.8,46.4,211,46.5z"/>
	<path class="st0" d="M91.2,55.4c1.6-4.9,3.2-9.8,4.9-14.6c0.2-0.6,0.1-1.7,1.1-1.7c1.1,0,0.9,1.1,1.1,1.7c1.5,4.3,2.8,8.6,4.3,12.9
		c0.2,0.6,0.5,1.2,0.9,2.3c1.5-4.5,2.9-8.6,4.2-12.7c0.6-2,0-2.6-2.1-3c-0.5-0.1-1.3,0.1-1.2-0.7c0.1-0.8,0.8-0.5,1.3-0.5
		c2.7,0,5.4,0,8.1,0c0.4,0,1.1-0.2,1.1,0.5c0.1,0.7-0.6,0.7-1,0.7c-2.7,0-3.7,1.9-4.5,4c-2.1,6.2-4.1,12.4-6.2,18.5
		c-0.2,0.7-0.3,1.5-1.3,2.1c-1.9-5.9-3.8-11.6-5.7-17.4c-0.7,0.2-0.6,0.8-0.8,1.3c-1.6,4.8-3.2,9.5-4.8,14.3c-0.2,0.6-0.1,1.6-1,1.6
		c-0.8,0-0.7-1-0.9-1.7c-2-6.1-3.9-12.1-5.9-18.2c-0.8-2.3-1.7-4.5-4.7-4.5c-0.4,0-0.7-0.2-0.7-0.6c0-0.4,0.3-0.5,0.7-0.5
		c3.7,0,7.5,0,11.2,0c0.4,0,0.7,0.1,0.7,0.6c0,0.4-0.4,0.5-0.7,0.6c-3.2,1-3.3,1.2-2.3,4.5c1.2,3.6,2.4,7.2,3.5,10.8
		C90.9,55.4,91,55.4,91.2,55.4z"/>
	<path class="st0" d="M75,51.4C75,65.5,63.5,77,49.4,77c-14.1,0-25.6-11.6-25.6-25.7c0-14.1,11.6-25.6,25.7-25.6
		C63.5,25.6,75,37.2,75,51.4z M25.4,51.3c0,13.3,10.6,24.1,23.8,24.1c13.5,0.1,24.3-10.7,24.3-24c0-13.3-10.7-24.1-24-24.1
		C36.1,27.2,25.4,37.9,25.4,51.3z"/>
	<path class="st0" d="M186.5,39.1c2,0,4.1-0.1,6.1,0c2.4,0.1,4.5,1,6.1,2.9c2.6,3.1,1.6,7.8-2,9.8c-2.2,1.3-4.7,1.4-7.1,1.3
		c-1.4-0.1-2,0.3-1.8,1.8c0.1,1.1,0,2.3,0.1,3.5c0.2,3.1,0.6,3.4,3.6,4.2c0.4,0.1,0.9,0.1,0.8,0.7c0,0.6-0.5,0.5-0.9,0.5
		c-3.7,0-7.5,0-11.2,0c-0.4,0-0.9-0.1-0.8-0.6c0-0.4,0.4-0.5,0.7-0.6c3.3-1,3.6-1.3,3.7-4.7c0.1-4.5,0.1-9,0-13.4
		c-0.1-3.1-0.5-3.4-3.5-4.2c-0.4-0.1-0.9-0.1-0.8-0.6c0-0.6,0.5-0.5,0.9-0.5C182.3,39,184.4,39,186.5,39.1
		C186.5,39,186.5,39.1,186.5,39.1z M187.8,46c0,1.2,0.1,2.3,0,3.5c-0.1,1.3,0.4,1.7,1.6,1.5c0.5-0.1,0.9,0,1.4,0
		c1.9,0,3.5-0.6,4.3-2.4c0.9-2,0.8-4-0.5-5.8c-1-1.5-4.2-2.4-6.2-1.6c-1.6,0.6-0.4,2.3-0.7,3.4C187.7,45,187.8,45.5,187.8,46z"/>
	<path class="st0" d="M122.2,64.4c-0.3,0-1-0.1-1.8-0.2c-6.2-1.3-10.1-6.8-8.7-12.3c1.5-5.9,8.5-9.4,14.9-7.4
		c5.1,1.6,8.3,6.3,7.5,11.1C133.2,60.7,128.3,64.5,122.2,64.4z M129.8,54.2c0-1.9-0.4-3.6-1.4-5.2c-2.5-4.2-8.9-4.3-11.4,0
		c-2,3.5-2,7.1,0,10.7c0.9,1.7,2.5,2.6,4.4,3C126.3,63.3,129.8,59.8,129.8,54.2z"/>
	<path class="st0" d="M243.7,60.5c0-0.9,0-1.8,0-2.6c0-0.5-0.3-1.2,0.6-1.3c0.7-0.1,0.7,0.6,0.8,1c0.4,1.7,1.4,3.1,2.9,4
		c0.7,0.4,1.5,0.7,2.3,0.8c1.7,0.2,3.4,0.1,4.1-1.7c0.7-1.9-0.7-3-2.1-3.9c-1.4-0.8-2.9-1.4-4.4-2.2c-3.5-1.7-4.9-4.6-3.8-7.3
		c1.2-2.8,5.2-4.1,8.5-2.8c0.9,0.4,1.7,1.3,2.6-0.3c0.4-0.7,1,0.1,1,0.8c0,1.6,0,3.1,0,4.7c0,0.4,0,0.9-0.5,1
		c-0.6,0.1-0.8-0.3-0.9-0.8c-0.2-0.9-0.6-1.7-1.1-2.4c-0.9-1.2-2.1-1.7-3.6-1.6c-1.3,0-2.5,0.4-3,1.7c-0.5,1.5,0.5,2.3,1.6,2.9
		c1.6,0.9,3.3,1.7,4.9,2.5c3.6,1.8,4.9,4.3,3.9,7.3c-1,3-4.6,4.8-8,4c-0.7-0.1-1.3-0.4-1.9-0.7c-1-0.5-2.1-1.6-2.7,0.5
		c-0.1,0.3-0.4,0.4-0.7,0.3c-0.4-0.1-0.4-0.5-0.4-0.8C243.7,62.6,243.7,61.6,243.7,60.5z"/>
	<path class="st0" d="M260.9,60.5c0-0.9,0-1.8,0-2.6c0-0.4-0.2-1.1,0.4-1.2c0.8-0.1,0.8,0.5,0.9,1.1c0.7,2.6,2.3,4.3,5,4.7
		c2.2,0.4,3.9-0.3,4.3-1.8c0.6-2-0.8-3-2.2-3.9c-1.4-0.8-2.9-1.4-4.4-2.2c-3.5-1.8-4.9-4.7-3.7-7.3c1.3-2.8,5.2-4.1,8.5-2.8
		c0.9,0.3,1.8,1.5,2.5-0.3c0.1-0.4,1-0.3,1,0.3c0.1,1.8,0,3.7,0,5.5c0,0.4-0.2,0.6-0.6,0.6c-0.4,0-0.6-0.2-0.7-0.6
		c-0.2-0.8-0.4-1.6-0.9-2.2c-0.8-1.2-1.9-1.9-3.4-2c-1.4-0.1-2.8,0.1-3.4,1.7c-0.6,1.6,0.5,2.4,1.7,3.1c1.5,0.9,3.1,1.6,4.7,2.4
		c3.6,1.8,5,4.3,4,7.2c-1.1,3.2-4.8,5-8.3,4.1c-0.8-0.2-1.6-0.5-2.2-0.9c-0.9-0.6-1.5-0.7-1.9,0.5c-0.1,0.4-0.4,0.8-0.9,0.6
		c-0.5-0.2-0.4-0.7-0.4-1.1C260.9,62.4,260.9,61.4,260.9,60.5z"/>
	<path class="st0" d="M63.4,35.3c-3.5,1.6-4.6,3.9-2.5,7c3.4,4.9,3.4,9.8,1.3,15.1c-0.8,2.1-1.4,4.2-2.2,6.9
		c-0.8-2.2-1.3-3.9-1.9-5.6c-1.8-5.3-3.5-10.5-5.3-15.8c-0.4-1.1-0.4-1.8,1.1-1.7c0.7,0,1.7,0,1.6-1.1c-0.1-0.9-1-0.7-1.7-0.7
		c-3.2,0.2-6.4,0.2-9.6,0c-0.7,0-1.7-0.4-1.7,0.8c0,1,0.9,1,1.5,0.9c1.2-0.1,1.5,0.7,2,1.6c2.6,5,2.9,9.9,0.3,15
		c-1,1.9-1.4,4.1-2.3,6.6C42.3,59,40.6,54.1,39,49.2c-0.7-2.2-1.4-4.4-2.2-6.6c-0.4-1.1-0.1-1.4,1-1.5c0.7,0,1.7,0.1,1.7-1
		c-0.1-1.1-1.1-0.7-1.8-0.7c-1.9,0-3.7,0-5.6,0C36.7,30.5,52.5,25.6,63.4,35.3z"/>
	<path class="st0" d="M49.8,53.2c2.3,6.2,4.3,11.8,6.3,17.4c0.3,0.8,0,1.1-0.7,1.3c-3.7,1.1-7.3,1.1-11,0.3
		c-0.8-0.2-0.9-0.6-0.6-1.3C45.7,65.1,47.6,59.4,49.8,53.2z"/>
	<path class="st0" d="M29.9,42.7c3.4,9.4,6.7,18.3,10,27.4C32.6,67.7,24.4,55.5,29.9,42.7z"/>
	<path class="st0" d="M68.2,41.8c5,8.2,2.3,22-8,27.7c1.7-4.8,3.3-9.3,4.7-13.8C66.4,51.3,68.6,47.1,68.2,41.8z"/>
</g>
</svg>
